<svg xmlns:xlink="http://www.w3.org/1999/xlink" xmlns="http://www.w3.org/2000/svg" width="264" height="120" viewBox="0 0 264 120">
    <path fill="#3b4a67" fill-rule="evenodd" d="M74.504 81.297c0 2.016.016 3.604-.02 5.19-.004.191-.247.468-.439.536-.173.061-.496-.045-.637-.19-.932-.964-.505-4.332 1.096-5.536zm3.998-11.27c.003-.374-.15-.88.036-1.097.848-.993 1.752-1.95 2.73-2.814.238-.212.825-.032 1.585-.032-.423.662-.551.943-.75 1.16-.798.873-1.584 1.764-2.453 2.563-.243.223-.758.154-1.148.22zm41.044 17.564c0-2.15-.013-4.121.022-6.092.003-.172.3-.444.495-.478.198-.035.509.108.649.274.728.864.49 5.217-.318 6.117-.066.073-.235.055-.848.179zm-19.76 19.499c-.072.308-.318.761-.562.809-.793.156-1.616.155-2.571.225-.799-.092-1.74-.153-2.656-.336-.272-.055-.473-.458-.707-.701.255-.227.509-.648.765-.65 1.689-.009 3.38.051 5.068.147.244.014.69.387.662.506zm15.964-8.226c-1.335 1.39-2.714 2.736-4.087 4.088-.036.036-.117.026-.29.059-.126-.102-.427-.224-.466-.402-.058-.266-.033-.67.134-.845 1.172-1.217 2.376-2.404 3.609-3.559.172-.16.63-.207.831-.09.185.106.36.654.269.75zM93.002 61.711l-.16-.5c.22-.263.428-.745.664-.759 1.807-.106 3.62-.148 5.43-.133.238.002.673.454.656.667-.022.259-.422.686-.67.693-1.971.057-3.947.032-5.92.032zM79.216 97.948c1.264 1.284 2.458 2.636 3.676 3.965l-.153.565c-.452-.063-1.058.036-1.33-.219-1.14-1.067-2.21-2.213-3.23-3.396-.201-.234-.063-.758-.082-1.149.38.071.897.009 1.119.234zm31.144-32.1c-.125-.12-.142-.57-.03-.672.198-.182.68-.381.789-.285 1.46 1.281 2.88 2.61 4.3 3.937.077.072.068.235.157.582-.353.103-.889.411-1.043.278-1.433-1.23-2.81-2.529-4.173-3.84zm3.694 22.748c-1.135.638-14.455.9-18.398.334-.058-1.622-.17-3.294-.17-4.966.001-5.74.04-11.478.065-17.217.001-.252-.023-.507.004-.757.075-.686-.324-1.683.818-1.72.197-.007.616 1.1.62 1.695.034 6.552.005 13.104.001 19.655 0 .617.058 1.234.099 2.037h4.998c3.415 0 6.83-.01 10.246.006.716.003 1.594-.195 1.717.933zm-17.069 22.98c-15.064.184-27.014-12.124-27.518-26.054-.628-17.399 13.097-29.12 27.68-28.98 15.583.15 27.515 12.47 27.497 27.54-.02 16.17-13.32 27.768-27.659 27.493zm2.139-56.438c-15.212-1.238-30.51 10.177-31.212 27.97-.615 15.587 11.347 29.175 27.874 29.978 14.38.74 29.596-10.005 30.37-28.266.58-13.682-9.766-28.277-27.032-29.682zm-1.995 59.506c-16.608.044-30.697-13.307-30.764-30.465C66.3 67.003 80.422 53.52 96.98 53.586c15.792-.162 31.181 12.6 30.6 31.877-.48 15.917-14.073 29.138-30.45 29.181zm-.08-62.556c-17.715-.031-32.104 13.904-32.116 31.992-.012 18.843 15.454 32.202 32.078 31.966 17.104.215 32.162-13.613 32.117-31.929-.045-18.023-14.234-31.997-32.079-32.029zm72.242-2.853c-.005 1.24-.926 1.083-1.703 1.084-4.984.008-9.968.004-14.953 0-.377 0-.77.026-1.126-.07-.34-.089-.643-.32-1.052-.538 1.463-.946 16.666-1.152 18.834-.476zm-72.312 69.273c-19.01-.022-34.6-15.546-34.562-34.417.037-19.072 15.69-34.634 34.956-34.417 18.913.214 34.232 15.005 34.196 34.511-.037 20.333-16.692 34.513-34.59 34.323zm36.126-34.45c-.39-19.873-15.637-35.37-35.124-35.826-20.355-.476-36.813 15.437-36.98 35.438-.165 19.936 15.62 36.273 35.932 36.33 20.044.056 35.912-15.859 36.172-35.942zm57.613 23.375h-3.379v-2.4-83.05c0-2.59-.007-2.577-2.478-3.37-4.629-1.488-9.252-2.992-13.876-4.494-.412-.134-.811-.304-1.453-.547.681-1.49 1.278-2.792 1.92-4.199 5.37 1.727 10.587 3.41 15.808 5.08 3.453 1.106 3.457 1.097 3.457 4.68v88.3zm-4.85-20.785V112.386h-8.273v-2.315-83.61c0-2.233-.006-2.223-2.076-2.883-3.55-1.133-7.096-2.279-10.642-3.424-.284-.092-.555-.226-.962-.394l2.6-5.427c.681.17 1.286.286 1.866.474 5.233 1.686 10.442 3.445 15.702 5.04 1.428.433 1.82 1.086 1.818 2.52-.046 21.427-.032 42.854-.032 64.28zm-9.736 28.506c.003.678 0 1.355 0 2.154H136.53V34.705l.328-.182 8.19 9.385c2.363-4.277 4.063-8.434 5.95-12.498 1.879-4.047 3.767-8.088 5.718-12.274 2.907.946 5.645 1.852 8.393 2.728 3.003.959 6.02 1.878 9.023 2.836 2.002.638 2 .656 2 2.723.002 11.31.02 22.62-.007 33.932-.014 6.123-.158 12.245-.15 18.368.017 11.81.1 23.62.156 35.431zM124.246 11.353h22.888l-11.473 17.833-11.415-17.833zm9.816 21.33c-2.244 2.727-4.594 5.367-6.911 8.034-.114.13-.307.19-.623.377-1.05-2.24-2.097-4.426-3.103-6.63-2.194-4.812-4.33-9.651-6.575-14.438-.542-1.155-.457-1.907.475-2.801 1.767-1.697 3.41-3.522 5.338-5.537l7.518 11.686c1.33 2.068 2.654 4.14 3.992 6.202.695 1.07.632 2.205-.111 3.107zm-1.568-25.882l1.754 2.9h-4.499l2.745-2.9zm24.448-.357l-4.415 6.911c-.584-.544-1.128-.896-1.46-1.39-1.28-1.9-3.065-2.304-5.234-2.17-2.457.151-4.94-.098-7.392.08-1.78.128-2.852-.507-3.537-2.053-.171-.386-.415-.74-.78-1.378h22.818zm-19.54-4.53l1.775 2.915h-4.56l2.785-2.916zm24.45-.371l-2.193 3.367H143.76c-3.06 0-3.207-.103-4.582-3.367h22.674zm-7.016 18.082c-1.895 4.12-3.78 8.244-5.68 12.36-1.396 3.026-2.811 6.043-4.34 9.328-.835-.913-1.543-1.656-2.215-2.43-1.658-1.906-3.303-3.822-4.944-5.741-1.05-1.228-1.189-2.43-.366-3.72 3.592-5.63 7.2-11.249 10.81-16.869.133-.207.332-.373.591-.658 2.082 2.03 4.041 3.987 6.06 5.881.7.658.376 1.215.084 1.849zm-1.189-5.36l4.723-7.22 6.692 6.772-2.608 5.523c-3.481-.87-6.835-1.582-8.807-5.075zm9.655-12.191l6.773 6.718-2.049 4.426c-3.347-1.392-4.983-4.468-7.685-6.551l2.96-4.593zm28.947 14.596c0-2.117-.005-2.121-1.995-2.767-5.815-1.884-11.64-3.735-17.436-5.676-.915-.306-1.813-.884-2.518-1.549-1.935-1.82-3.715-3.804-5.66-5.612-.582-.54-1.502-1.005-2.272-1.012-7.983-.073-15.968-.069-23.952-.007-.72.006-1.595.398-2.122.9-2.247 2.133-4.505 4.276-6.533 6.61-1.548 1.782-3.242 2.676-5.59 2.277-1.23-.208-2.138.287-2.978 1.211-1.616 1.778-3.425 3.385-4.996 5.198-.884 1.021-1.896 1.571-3.143 1.927-6.374 1.821-12.724 3.725-19.114 5.489-1.467.405-1.873 1.126-1.823 2.545.094 2.715.027 5.435.027 8.153 0 3.287-.001 6.574.002 9.862.001.753-.05 1.558 1.327 1.563.063-.773.17-1.491.171-2.21.013-5.436.055-10.873-.03-16.308-.024-1.475.48-2.082 1.891-2.46 4.267-1.144 8.495-2.436 12.733-3.686 2.16-.637 4.309-1.306 6.542-1.986 3.977 8.19 7.347 16.436 11.497 24.804 2.945-3.37 5.575-6.377 8.496-9.716v83.21h-2.26c-5.07 0-10.139-.013-15.208.017-.667.004-1.332.238-1.997.365l-.003.705c.731.113 1.463.323 2.194.324 19.264.018 38.528.015 57.792.015.317 0 .634-.011.95-.005.942.017 1.392-.407 1.359-1.378-.037-1.11-.008-2.223-.008-3.476 2.876 0 5.466-.03 8.056.013 1.207.02 1.76-.442 1.696-1.673-.05-.994-.01-1.993-.01-3.192 1.028 0 1.834.004 2.64 0 2.207-.012 2.261-.057 2.264-2.209.009-6.826.01-13.653.012-20.48l-.001-69.786z"/>
</svg>