<svg xmlns:xlink="http://www.w3.org/1999/xlink" xmlns="http://www.w3.org/2000/svg" width="264" height="120" viewBox="0 0 264 120">
    <path fill="#3b4a67" fill-rule="evenodd" d="M56.597.08l.423-.026c.836-.046 1.63-.06 2.793-.052l3.33.042 97.67-.017c3.238-.003 5.451.787 7.23 2.94 1.326 1.605 1.935 3.314 1.922 5.37l-.04 8.722c-.004 2.538.003 4.66.023 6.867l.068 5.783.3 19.105-.004 3.191 21.447.004c3.906.01 5.946 2.037 5.991 5.97l.021 3.112V69.9l.004.735c.002.14.008.28.02.51l.079 1.28 4.467-.005 4.27-.024c1.273-.001 2.241.007 3.3.03 3.336.069 5.122 1.893 5.146 5.231l.088 13.965c.044 7.605.079 14.972.106 22.18.002 1.198-.117 2.22-.413 3.128-.632 1.945-2.035 3.068-4.064 3.065l-8.314-.006c-2.97 0-5.527.004-8.017.013-1.715.005-3.032-.781-3.934-2.268-.111-.182-.217-.372-.33-.59l-.271-.542-.265-.545-27.795-.005-.084-.001c-3.955-.086-6.002-2.037-6.171-5.929l-.035-1.709c-.009-.575-.016-1.16-.022-1.788l-.038-10.572v-.762l-1.453-.057c-2.654-.092-5.365-.104-9.92-.076l-5.924.029-10.533-.024-9.359.01 2.152 7.04.843 2.702c.576 1.86.9 2.976 1.249 4.307.248.947.583 1.201 1.496 1.166l.458-.014c.253-.006.513-.009.83-.009l1.922.012.868.001.491 1.371c.166.48.208.652.279 1.01.183.928.098 1.774-.322 2.637l-.112.215-.214.388H89.46l-.383-5.427 4.589-.187.825-.017c.68-.012.917-.217 1.112-.973l.728-2.792c.35-1.319.75-2.805 1.31-4.87l1.468-5.414.279-1.154-41.491.007-.544.016-.368.007c-.33.002-.56-.011-.833-.048-5.058-.675-7.75-3.292-7.831-8.29l-.045-3.36c-.042-3.934-.042-7.844-.006-13.266l.166-19.512.012-2.375c.015-4.038.006-7.66-.033-11.108l-.037-3.128c-.005-.63-.006-1.282-.005-2.04l.033-8.155c-.002-.789-.008-1.492-.019-2.255l-.034-1.746c-.015-.597-.033-1.223-.057-1.925l-.293-8.063c-.01-.374.004-.761.04-1.2l.055-.57.082-.728C48.688 2.953 51.827.399 56.597.08zM192.42 114.3l-.041.42c-.014.155-.021.276-.025.395l-.001.204.002.096c.065 1.604.458 1.997 2.047 2.01 5.502.05 10.91.049 16.24-.004 1.508-.014 1.973-.5 1.978-2.044l-.004-.143c-.01-.164-.046-.339-.137-.698l-.099-.38-.095-.008c-4.178-.34-16.304-.24-19.669.13l-.196.022zm-90.529-18.818l-4.892 17.423-3.628-.006c-.296.002-.554.006-.839.012-.493.011-.698.11-.705.536l.002.088.905.074c.206.014.355.02.52.021l17.766.006 13.668.001.462.006c.174 0 .304-.005.428-.016l.092-.009c.418-.046.548-.099.46-.47l-.039-.142-5.058-.248-5.358-17.427h-.011c-3.576-.327-10.938-.244-13.538.116l-.235.035zm58.13 12.209c-.51 0-.911.009-1.294.031-.461.027-.62.186-.652.654l-.026.48c-.141 3.344.82 4.628 4.18 4.633l7.411.007c4.963.001 9.97-.005 15.026-.017l3.866-.012c.259-.008.475-.046.976-.163l.231-.057v-5.43l-1.46-.108c-.13-.008-.227-.012-.32-.015l-27.938-.003zm53.723 4.74l-.354.097c-.184.05-.462.096-.822.139l.311.03.728.085.141.658-.004-1.009zm-22.505.138v.445l.299-.078c.233-.06.642-.117 1.189-.168l-.5-.047c-.232-.025-.435-.052-.605-.08l-.383-.072zm18.058-37.62l-3.723.026-7.388-.018c-1.096.002-1.974.01-2.954.027-2.099.034-2.744.617-2.85 2.638l-.01.316.002.504-.015 26.601-.001 6.184.1.012c3.793.4 16.198.365 19.768-.033l.216-.027.007-31.244c-.003-.877-.01-1.694-.018-2.52-.02-1.87-.507-2.405-2.317-2.459l-.817-.008zm-52.083 31.298l-.182-.058.008.794c.183-.234.418-.417.698-.546l-.382-.142-.142-.048zm.854-48.172l-.015 18 .004 27.534c.002.272.013.436.074 1.134l.021.247.258.094.022.006c9.898.022 19.799.033 29.7.034.173 0 .357-.008.564-.022l.26-.022.789-.08.097-.11.004-26.1-.005-.728c0-.423.012-.73.042-1.062.217-2.457 1.33-3.767 3.717-4.384l.385-.094c.135-.03.277-.061.435-.094l.784-.158.02-9.022c-.001-2.469-.017-4.206-.054-6.2-.025-1.316-.926-2.226-2.43-2.486-.268-.046-.555-.07-.921-.08l-.372-.004-29.615.012c-2.758.006-3.712.893-3.764 3.585zM153.03 82.57l-.44.007c-.436.011-.893.035-1.593.08l-1.806.112-.13.006c-.374.018-.718.03-1.046.035l-91.09-.01-2.72-.01-3.499-.002-.177 2.396-.043 1.055c-.088 3.797 2.888 6.508 6.418 6.486l22.564-.086 74.062.005c.228-.003.439-.01.751-.03l1.268-.089.018-3.207c-.002-.532-.009-.951-.022-1.386l-.019-.597c-.005-.307.002-.618.022-1.125l.028-.786c.03-1.134-.015-1.824-.206-2.5l-.029-.095-.98-.149-.159-.022c-.46-.061-.828-.09-1.172-.088zm7.772-80.042L57.612 2.527c-.844-.002-1.388.016-1.93.079-2.827.326-4.401 1.827-4.826 4.627-.082.54-.102 1.04-.084 1.89l.04 1.477.065 17.549c.004 1.632.006 3.152.006 4.604l-.018 6.35c-.015 1.56-.053 3.107-.132 5.763l-.135 4.738c-.035 1.423-.05 2.5-.055 3.714l-.01 5.49c.002 2.906.016 6.066.044 10.325l.068 9.34c.005.142.022.289.076.651l.184 1.201 102.325.008c.24-.006.472-.022.899-.064l1.393-.146-.002-18.504-.004-1.209c0-.969.012-1.605.043-2.333.161-3.802 2.044-5.755 5.798-5.999l.649-.035c.379-.016.778-.026 1.3-.033l2.573-.027.607-.02c.1-.006.2-.013.345-.026l.931-.094.036-.322.008-.116-.42-43.61c-.126-2.986-2.03-4.982-5.004-5.241l-.26-.019c-.132-.006-.272-.01-.44-.011l-.879.005zm23.12 54.328l-1.219 1.27c-.93.967-1.737 1.185-3.132 1.119l-.714-.039c-.118-.003-.206 0-.3.008-.54.046-1.068.061-1.757.056l-1.97-.034-1.375.01c-.847 0-1.394-.037-1.974-.15l-.176-.036-.619-.135.098-2.07h13.138z"/>
</svg>