<?xml version="1.0" standalone="no"?>
<!DOCTYPE svg PUBLIC "-//W3C//DTD SVG 20010904//EN"
 "http://www.w3.org/TR/2001/REC-SVG-20010904/DTD/svg10.dtd">
<svg version="1.0" xmlns="http://www.w3.org/2000/svg"
 width="256.000000pt" height="256.000000pt" viewBox="0 0 256.000000 256.000000"
 preserveAspectRatio="xMidYMid meet">
<metadata>
Created by potrace 1.16, written by Peter Selinger 2001-2019
</metadata>
<g transform="translate(0.000000,256.000000) scale(0.100000,-0.100000)"
fill="#000000" stroke="none">
<path d="M400 2441 c0 -4 5 -12 12 -19 10 -10 0 -25 -45 -69 l-57 -58 -63 63
-63 63 -25 -28 c-13 -15 -17 -22 -8 -16 13 10 25 2 74 -47 l59 -60 -59 -60
-59 -60 -23 22 c-22 21 -23 21 -23 2 0 -11 5 -25 12 -32 9 -9 9 -15 0 -24 -7
-7 -12 -21 -12 -32 0 -19 1 -19 23 2 l23 22 59 -60 59 -60 -59 -60 -59 -60
-23 22 -23 21 0 -24 c0 -14 5 -30 11 -36 8 -8 8 -13 0 -17 -13 -8 -15 -46 -2
-46 5 0 14 7 21 16 12 13 21 8 72 -43 l58 -57 -57 -58 -57 -58 -23 22 -23 21
0 -24 c0 -14 5 -30 11 -36 8 -8 8 -13 0 -17 -6 -4 -11 -19 -11 -33 l0 -26 23
21 22 21 58 -56 58 -55 -61 4 c-56 4 -63 2 -81 -20 -19 -24 -19 -43 -19 -491
1 -292 5 -470 11 -477 7 -8 6 -14 -1 -19 -12 -8 -14 -45 -1 -45 5 0 14 7 21
16 12 13 21 8 72 -43 l58 -57 -57 -58 c-54 -54 -58 -57 -75 -41 -10 9 -21 13
-25 10 -3 -4 15 -28 41 -53 25 -26 49 -44 53 -40 4 3 -1 14 -10 23 -16 16 -14
21 40 75 l57 58 58 -57 58 -57 -22 -23 -21 -23 24 0 c14 0 30 5 35 10 8 8 15
6 23 -4 6 -8 21 -12 32 -9 l20 6 -20 21 -21 22 60 59 60 60 57 -57 57 -57 -23
-25 c-21 -22 -21 -24 -4 -28 10 -3 26 2 36 11 13 11 20 12 29 3 7 -7 21 -12
32 -12 19 0 19 1 -2 23 l-22 23 60 59 60 59 60 -59 60 -59 -21 -22 c-15 -16
-17 -23 -7 -27 7 -2 21 2 31 11 15 13 19 13 35 0 9 -8 25 -13 35 -10 17 4 17
6 -4 28 l-23 25 57 57 57 57 60 -60 60 -59 -21 -22 -20 -21 20 -6 c11 -3 26 1
32 9 10 13 14 13 28 0 9 -8 24 -11 34 -7 17 6 17 8 -3 26 l-21 19 58 58 57 58
58 -57 58 -57 -21 -22 -20 -21 20 -6 c11 -3 26 1 32 9 10 13 14 13 28 0 9 -8
24 -11 34 -7 17 6 17 8 -3 26 l-21 19 58 58 57 58 58 -57 58 -57 -22 -23 -21
-23 24 0 c14 0 30 5 35 10 8 8 15 6 23 -4 6 -8 21 -12 32 -9 l20 6 -20 21 -21
22 60 59 60 59 60 -59 60 -59 -21 -22 c-15 -16 -17 -23 -7 -27 7 -2 21 2 31
11 15 14 19 14 35 0 9 -9 23 -13 30 -11 10 4 8 11 -7 27 l-21 22 60 59 60 59
58 -57 c32 -31 63 -57 70 -57 25 0 10 26 -45 82 l-57 58 54 55 c38 39 60 53
72 49 15 -5 18 1 18 37 0 33 -3 40 -12 31 -9 -9 -18 -7 -37 12 l-26 25 -25
-21 c-14 -12 -18 -19 -9 -15 10 3 25 -3 38 -17 l21 -22 -58 -57 -58 -57 -59
60 -59 60 24 25 c21 22 32 25 91 25 49 0 70 4 80 16 8 9 21 60 31 113 11 64
17 84 18 61 2 -24 4 -28 7 -13 2 13 10 20 17 17 9 -3 13 7 14 36 1 22 -3 40
-8 40 -6 0 -11 12 -12 28 -1 18 -3 12 -8 -18 -4 -25 -5 20 -2 100 2 80 -1 196
-7 259 -10 91 -9 116 1 122 7 4 18 3 25 -3 10 -8 13 -2 13 31 0 38 -2 42 -20
36 -15 -5 -22 -1 -29 17 l-10 23 -1 -25 c-1 -15 -9 1 -19 40 -10 36 -21 76
-25 90 -6 19 -5 21 3 10 9 -13 11 -13 11 1 0 24 54 71 73 63 14 -5 17 1 17 36
0 34 -3 40 -13 32 -10 -9 -27 2 -72 48 l-59 60 54 55 c38 39 60 53 72 49 15
-4 18 1 18 36 0 35 -3 40 -18 36 -12 -4 -34 10 -72 49 l-54 55 54 55 c30 30
61 54 70 52 11 -1 16 9 18 36 3 34 1 38 -15 33 -14 -4 -34 9 -73 49 l-54 55
57 58 c45 45 55 60 45 70 -10 10 -25 0 -70 -45 l-58 -58 -57 58 c-45 44 -55
59 -45 69 21 21 14 26 -38 26 -52 0 -59 -5 -38 -26 10 -10 0 -25 -45 -69 l-57
-58 -60 60 c-54 54 -58 60 -44 76 14 15 11 17 -35 17 -53 0 -60 -5 -39 -26 10
-10 0 -25 -45 -69 l-57 -58 -60 60 c-39 39 -56 63 -50 69 19 19 10 24 -35 24
-45 0 -54 -5 -35 -24 6 -6 -11 -30 -50 -69 l-60 -60 -57 58 c-45 44 -55 59
-45 69 21 21 14 26 -39 26 -46 0 -49 -2 -35 -17 14 -16 10 -22 -44 -76 l-60
-60 -57 58 c-45 44 -55 59 -45 69 21 21 14 26 -38 26 -52 0 -59 -5 -38 -26 10
-10 0 -25 -45 -70 l-57 -57 -57 57 c-45 45 -55 60 -45 70 21 21 14 26 -38 26
-52 0 -59 -5 -38 -26 10 -10 0 -25 -45 -69 l-57 -58 -60 60 c-54 54 -58 60
-44 76 14 15 11 17 -35 17 -28 0 -51 -3 -51 -7z m107 -228 l-57 -58 -60 60
-60 59 57 58 58 58 60 -60 60 -60 -58 -57z m843 2 l-60 -60 -57 58 -58 57 60
60 59 60 58 -57 58 -58 -60 -60z m285 -5 l-60 -60 -60 60 -59 60 59 60 60 60
60 -60 60 -60 -60 -60z m282 3 l-57 -58 -60 60 -60 59 57 58 58 58 60 -60 60
-60 -58 -57z m-1127 112 l55 -55 -58 -58 -57 -57 -57 57 -58 58 55 55 c30 30
57 55 60 55 3 0 30 -25 60 -55z m280 0 l55 -55 -58 -58 -57 -57 -57 57 -58 58
55 55 c30 30 57 55 60 55 3 0 30 -25 60 -55z m1130 0 l55 -55 -58 -58 -57 -57
-57 57 -58 58 55 55 c30 30 57 55 60 55 3 0 30 -25 60 -55z m-1835 -255 l-60
-60 -60 60 -59 60 59 60 60 60 60 -60 60 -60 -60 -60z m1130 0 l-60 -60 -60
60 -59 60 59 60 60 60 60 -60 60 -60 -60 -60z m297 22 c-24 -21 -42 -44 -39
-52 2 -8 2 -11 -1 -7 -2 5 -12 1 -21 -7 -16 -14 -22 -11 -76 44 l-59 60 59 60
60 60 60 -60 60 -61 -43 -37z m-1142 93 l55 -55 -58 -58 -57 -57 -57 57 -58
58 55 55 c30 30 57 55 60 55 3 0 30 -25 60 -55z m280 0 l55 -55 -58 -58 -57
-57 -57 57 -58 58 55 55 c30 30 57 55 60 55 3 0 30 -25 60 -55z m280 0 l55
-55 -58 -58 -57 -57 -57 57 -58 58 55 55 c30 30 57 55 60 55 3 0 30 -25 60
-55z m850 0 l55 -55 -58 -58 -57 -57 -57 57 -58 58 55 55 c30 30 57 55 60 55
3 0 30 -25 60 -55z m280 0 l55 -55 -58 -58 -57 -57 -57 57 -58 58 55 55 c30
30 57 55 60 55 3 0 30 -25 60 -55z m-705 -255 l-60 -60 -60 60 -59 60 59 60
60 60 60 -60 60 -60 -60 -60z m-1125 115 l54 -55 -59 -60 -59 -60 -58 57 -58
57 57 58 c32 32 60 58 63 58 3 0 30 -25 60 -55z m280 0 l55 -55 -58 -58 -57
-57 -57 57 -58 58 55 55 c30 30 57 55 60 55 3 0 30 -25 60 -55z m280 0 l55
-55 -58 -58 -57 -57 -57 57 -58 58 55 55 c30 30 57 55 60 55 3 0 30 -25 60
-55z m283 -3 l57 -58 -58 -57 -58 -57 -59 60 -59 60 54 55 c30 30 57 55 60 55
3 0 31 -26 63 -58z m847 3 l55 -55 -58 -58 -57 -57 -57 57 -58 58 55 55 c30
30 57 55 60 55 3 0 30 -25 60 -55z m-1830 -140 l54 -55 -59 -60 -59 -60 -58
57 -58 57 57 58 c32 32 60 58 63 58 3 0 30 -25 60 -55z m280 0 l54 -55 -59
-60 -59 -60 -58 57 -58 57 57 58 c32 32 60 58 63 58 3 0 30 -25 60 -55z m280
0 l55 -55 -58 -58 -57 -57 -57 57 -58 58 55 55 c30 30 57 55 60 55 3 0 30 -25
60 -55z m283 -3 l57 -58 -58 -57 -58 -57 -59 60 -59 60 54 55 c30 30 57 55 60
55 3 0 31 -26 63 -58z m280 0 l57 -58 -58 -57 -58 -57 -59 60 -59 60 54 55
c30 30 57 55 60 55 3 0 31 -26 63 -58z m847 3 l55 -55 -58 -58 -57 -57 -57 57
-58 58 55 55 c30 30 57 55 60 55 3 0 30 -25 60 -55z m-235 -200 c48 -68 72
-111 57 -101 -6 3 -14 1 -18 -5 -4 -7 -29 11 -65 47 l-59 58 22 23 c17 18 19
25 8 38 -11 13 -15 12 -33 -11 l-21 -27 -18 23 c-10 12 -18 16 -18 9 0 -7 -2
-10 -5 -7 -3 3 0 26 7 52 l12 46 44 -42 c24 -24 63 -70 87 -103z m-1595 60
l54 -55 -59 -60 -59 -60 -58 57 -58 57 57 58 c32 32 60 58 63 58 3 0 30 -25
60 -55z m280 0 l54 -55 -59 -60 -59 -60 -58 57 -58 57 57 58 c32 32 60 58 63
58 3 0 30 -25 60 -55z m283 -3 l57 -58 -58 -57 -58 -57 -59 60 -59 60 54 55
c30 30 57 55 60 55 3 0 31 -26 63 -58z m280 0 l57 -58 -58 -57 -58 -57 -59 60
-59 60 54 55 c30 30 57 55 60 55 3 0 31 -26 63 -58z m317 -22 c0 7 2 11 5 9 2
-3 -3 -31 -12 -63 -9 -31 -19 -52 -23 -47 -4 7 -18 -1 -35 -19 l-29 -30 -58
57 -58 57 57 58 57 58 48 -47 c26 -26 48 -41 48 -33z m-1307 -232 l-57 -58
-58 57 -58 57 57 58 57 58 58 -57 58 -57 -57 -58z m287 117 l54 -55 -59 -60
-59 -60 -58 57 -58 57 57 58 c32 32 60 58 63 58 3 0 30 -25 60 -55z m283 -3
l57 -58 -60 -59 -60 -59 -60 59 -60 59 57 58 c32 32 60 58 63 58 3 0 31 -26
63 -58z m280 0 l57 -58 -58 -57 -58 -57 -59 60 -59 60 54 55 c30 30 57 55 60
55 3 0 31 -26 63 -58z m280 -114 l-57 -58 -58 57 -58 57 57 58 57 58 58 -57
58 -57 -57 -58z m564 120 c28 -29 50 -60 50 -69 0 -14 -5 -14 -39 -2 -33 11
-44 11 -78 -3 -47 -19 -73 -58 -112 -164 -15 -41 -27 -70 -27 -64 -1 6 6 31
14 55 9 23 12 46 7 51 -5 5 -17 -20 -26 -54 -10 -35 -20 -58 -22 -53 -2 6 12
57 31 115 19 58 32 92 30 75 -3 -16 0 -37 6 -45 8 -12 9 -10 5 10 -3 14 -3 19
0 12 5 -10 10 -8 21 8 13 19 13 22 -8 38 -16 14 -20 24 -14 41 6 18 9 21 16
10 7 -12 9 -12 9 1 0 13 68 90 80 90 3 0 29 -24 57 -52z m-689 -245 l-42 -43
-36 35 c-20 20 -38 33 -41 31 -3 -3 -23 1 -44 9 -22 8 -35 14 -28 15 6 0 35
25 64 55 l53 56 58 -58 58 -57 -42 -43z m216 22 c-20 -70 -30 -92 -35 -79 -4
10 -26 37 -48 59 l-41 39 57 58 c56 57 58 58 76 39 18 -18 18 -21 -9 -116z
m473 -183 l-57 -57 -32 32 -32 32 28 89 28 88 61 -64 61 -63 -57 -57z m-527
63 c0 -12 -21 -42 -48 -68 l-48 -47 -41 42 c-22 24 -43 50 -46 58 -3 8 -6 -7
-6 -33 -1 -27 3 -46 7 -43 5 3 21 -7 35 -22 l26 -27 -49 -51 -49 -51 -19 26
c-19 27 -19 27 1 51 11 14 23 24 27 23 4 -1 6 36 6 83 -1 46 0 80 2 75 2 -5
26 16 54 45 l52 55 48 -48 c27 -26 48 -56 48 -68z m754 -9 c16 -76 20 -137 6
-81 -5 20 -8 -5 -9 -75 0 -71 2 -100 9 -90 5 8 10 38 11 65 1 28 5 4 10 -55 6
-85 4 -109 -8 -128 -20 -32 -38 -22 -36 19 l3 34 -15 -32 c-22 -50 -24 -39 -4
20 30 87 23 269 -16 411 -5 17 -4 18 4 6 9 -13 11 -12 11 5 1 19 2 19 10 -2 5
-12 16 -56 24 -97z m-1100 33 c28 -13 50 -58 43 -86 -3 -12 -5 -10 -6 8 0 15
-10 37 -22 50 l-21 24 16 -25 c23 -35 20 -52 -14 -85 l-31 -29 -56 56 c-31 31
-53 61 -49 67 4 6 35 12 69 13 34 2 -149 5 -408 8 l-470 5 462 3 c327 1 469
-1 487 -9z m-488 -20 c4 -6 -18 -36 -50 -67 l-56 -57 -59 59 c-33 33 -58 63
-55 68 8 13 212 10 220 -3z m288 3 c3 -5 -22 -35 -54 -67 l-60 -59 -60 59
c-32 32 -57 62 -54 67 3 4 54 8 114 8 60 0 111 -4 114 -8z m1182 -152 c6 -73
4 -87 -10 -99 -15 -13 -24 -8 -77 45 l-59 58 60 61 c33 33 60 67 61 75 2 33
19 -60 25 -140z m-208 17 c14 -16 13 -20 -11 -45 -23 -24 -27 -37 -27 -89 0
-53 3 -64 22 -77 12 -9 34 -16 48 -15 23 1 22 2 -6 8 -48 12 -54 19 -54 70 0
40 5 52 33 79 l33 32 59 -61 60 -60 -37 -34 c-20 -18 -34 -36 -30 -39 3 -3
-15 -6 -40 -6 -31 0 -54 7 -73 22 l-28 22 7 95 c7 110 18 168 24 136 2 -11 11
-28 20 -38z m-492 -107 l-5 -35 14 35 c21 54 17 29 -11 -75 l-26 -94 -44 41
c-23 22 -45 50 -47 62 -2 11 -5 -1 -6 -27 0 -27 3 -46 7 -43 5 3 21 -7 35 -22
l26 -27 -48 -50 -47 -50 -22 27 c-14 16 -18 29 -12 33 6 3 20 25 31 47 17 33
20 54 17 102 -3 34 -3 56 -1 50 2 -7 27 13 55 42 49 52 52 54 70 37 15 -13 18
-26 14 -53z m-267 -27 c11 -10 23 -34 26 -53 4 -29 3 -31 -4 -10 -8 22 -9 22
-10 4 -1 -11 -15 -33 -31 -49 l-31 -29 -56 56 c-31 31 -53 61 -49 67 12 18
126 14 148 -6 18 -16 18 -16 12 0 -7 19 -27 25 -99 30 -48 3 -47 3 11 5 46 2
67 -2 83 -15z m-783 -14 c4 -6 -18 -35 -49 -67 l-55 -55 -31 24 c-25 20 -30
31 -30 67 l-1 42 79 0 c48 0 83 -4 87 -11z m280 0 c4 -6 -18 -36 -50 -67 l-56
-57 -59 59 c-33 33 -58 63 -55 68 8 13 212 10 220 -3z m280 0 c4 -6 -18 -36
-50 -68 l-56 -56 -56 56 c-32 32 -54 62 -50 68 5 7 44 11 106 11 62 0 101 -4
106 -11z m867 -123 c11 -15 43 -39 71 -53 31 -15 40 -22 23 -18 -16 3 -26 2
-23 -3 3 -5 -8 -22 -25 -37 l-29 -29 -60 59 -60 59 27 28 c19 20 30 25 39 17
9 -8 11 -5 8 13 -2 13 -1 16 2 8 4 -8 16 -28 27 -44z m-388 -162 c91 -7 92 -8
34 -70 l-53 -54 -42 41 c-51 50 -62 93 -31 126 l20 22 16 -31 c13 -26 23 -31
56 -34z m-1050 16 c18 -20 18 -22 -35 -75 -30 -30 -59 -55 -65 -55 -27 0 -53
46 -57 98 l-3 52 71 0 c59 0 74 -4 89 -20z m280 0 c19 -21 18 -22 -38 -78
l-57 -57 -56 56 c-52 52 -55 58 -43 78 12 19 23 21 95 21 69 0 84 -3 99 -20z
m284 -1 c12 -20 9 -26 -43 -78 l-56 -56 -56 56 c-52 52 -55 58 -43 78 12 19
23 21 99 21 76 0 87 -2 99 -21z m236 -4 c16 -15 25 -35 24 -52 l-1 -28 -8 25
c-7 22 -8 22 -9 4 -1 -11 -15 -33 -31 -49 l-31 -29 -56 56 c-56 56 -57 57 -38
78 28 31 117 29 150 -5z m371 -147 c-6 -69 -4 -78 13 -90 19 -13 19 -15 2 -25
-16 -10 -27 -3 -77 48 l-59 60 53 50 c29 28 50 56 46 62 -3 7 2 3 11 -8 14
-16 16 -34 11 -97z m-83 -96 l57 -58 -58 -57 -58 -57 -59 60 -59 60 54 55 c30
30 57 55 60 55 3 0 31 -26 63 -58z m-273 3 c0 -2 -15 -9 -32 -15 l-33 -10 36
5 c28 4 40 0 57 -18 l22 -23 -58 -57 -58 -57 -59 60 -59 60 23 24 c19 20 35
26 85 29 33 2 64 4 69 5 4 1 7 0 7 -3z m-820 -30 l24 -25 -59 -60 -59 -60 -58
57 -57 56 22 28 c20 26 28 28 93 28 63 1 73 -2 94 -24z m280 0 l24 -25 -59
-60 -59 -60 -58 57 -57 56 22 28 c20 26 28 28 93 28 63 1 73 -2 94 -24z m280
0 l24 -26 -57 -57 -57 -57 -57 57 -57 57 24 26 c21 22 32 25 90 25 58 0 69 -3
90 -25z m850 0 l24 -25 -59 -60 -59 -60 -58 57 -57 56 22 28 c20 26 28 28 93
28 63 1 73 -2 94 -24z m280 0 l24 -25 -59 -60 -59 -60 -58 57 -57 56 22 28
c20 26 28 28 93 28 63 1 73 -2 94 -24z m-1580 -110 l54 -55 -59 -60 -59 -60
-58 57 -58 57 57 58 c32 32 60 58 63 58 3 0 30 -25 60 -55z m280 0 l54 -55
-59 -60 -59 -60 -58 57 -58 57 57 58 c32 32 60 58 63 58 3 0 30 -25 60 -55z
m283 -3 l57 -58 -58 -57 -58 -57 -59 60 -59 60 54 55 c30 30 57 55 60 55 3 0
31 -26 63 -58z m280 0 l57 -58 -58 -57 -58 -57 -59 60 -59 60 54 55 c30 30 57
55 60 55 3 0 31 -26 63 -58z m280 -114 l-57 -58 -58 57 -58 57 57 58 57 58 58
-57 58 -57 -57 -58z m287 117 l54 -55 -59 -60 -59 -60 -58 57 -58 57 57 58
c32 32 60 58 63 58 3 0 30 -25 60 -55z m283 -3 l57 -58 -60 -59 -60 -59 -60
59 -60 59 57 58 c32 32 60 58 63 58 3 0 31 -26 63 -58z"/>
</g>
</svg>
