<svg xmlns:xlink="http://www.w3.org/1999/xlink" xmlns="http://www.w3.org/2000/svg" width="160" height="160" viewBox="0 0 160 160"><script xmlns=""/>
    <path fill="#3b4a67" fillRule="evenodd" d="M81.793 49.881H59.754c3.61-3.558 16.979-3.89 22.04 0zM54.98 51.894h15.81c5.306 0 10.611.002 15.917-.001.352 0 .746.06 1.046-.075.315-.141.725-.464.756-.745.037-.337-.22-.766-.468-1.055-.187-.22-.553-.295-.847-.414-2.451-.99-4.886-2.025-7.364-2.943-1.57-.582-3.184-1.283-4.818-1.407-2.99-.227-6.008-.08-9.014-.055-.555.005-1.14.086-1.655.28-1.451.547-2.874 1.17-4.307 1.767-2.083.866-4.18 1.7-6.232 2.635-.386.176-.587.756-.873 1.15.436.286.853.608 1.315.843.197.1.487.02.734.02zm100.431 3.014c-3.782 9.244-7.537 18.499-11.293 27.754-.713 1.76-1.42 3.522-2.09 5.299-.309.822-.753 1.24-1.713 1.172-1.195-.085-2.402-.02-3.604.012-.659.017-.936-.188-.93-.913.04-4.585.12-9.173.007-13.755-.056-2.315.326-4.45 1.292-6.538.752-1.626 1.375-3.313 2.053-4.973.552-1.353.396-1.723-.943-2.242-2.365-.919-2.365-.919-2.365-3.478 0-3.139-.004-6.279.001-9.418.001-.371.047-.743.088-1.331 2.824 1.085 5.419 2.079 8.01 3.077 3.65 1.405 7.291 2.831 10.952 4.205.64.241.818.44.535 1.13zm-30.083 36.745c-.66 1.626-1.32 3.255-2.078 4.835-.18.374-.734.74-1.157.795-1.113.144-2.248.134-3.375.149-1.422.018-1.427.003-1.427-1.383-.002-7.726-.002-15.453-.002-23.18V54.844c1.818.688 3.358 1.265 4.894 1.854 4.573 1.752 9.144 3.51 13.718 5.26 1.262.484 1.27.478.766 1.722-3.778 9.325-7.554 18.651-11.339 27.974zm8.503 58.065h-1.384c-4.6 0-9.2-.031-13.799.023-1.058.011-1.387-.263-1.383-1.355.037-12.778.017-25.556.029-38.334.003-2.89.095-5.778.1-8.668.004-1.972-.031-1.985 2.025-1.971 1.092.007 2.188.026 3.275.117 1.082.09 1.701-.355 2.101-1.348 1.587-3.942 3.223-7.864 4.831-11.798 1.186-2.898 2.355-5.804 3.539-8.704.103-.252.26-.483.39-.723l.276.036v72.725zm-20.135-98.393c.7-1.386 1.517-2.673 2.02-4.074.723-2.009 1.27-4.086 1.78-6.161.175-.718.338-.857 1.035-.615 4.794 1.663 9.606 3.272 14.391 4.955.39.137.891.693.897 1.061.06 3.95.034 7.901.026 11.852 0 .135-.051.27-.126.637l-20.023-7.655zm1.634 105.365c0 1.004-.257 1.317-1.299 1.316-28.801-.027-57.602-.02-86.403-.02-1.46 0-1.455-.004-1.455-1.462 0-16.414.004-32.828-.008-49.242-.002-3.913-.094-7.825-.09-11.738.018-13.517.063-27.035.085-40.553 0-.655.198-.982.872-1.21 4.745-1.594 9.47-3.247 14.203-4.871.325-.112.676-.148 1.157-.25.406 3.007 1.158 5.75 2.496 8.292 3.308 6.28 8.406 10.62 15.061 12.91 11.25 3.869 21.671 2.236 30.843-5.535 4.424-3.748 7.11-8.591 8.071-14.34.058-.348.122-.695.194-1.04.013-.062.077-.112.235-.327 1.228.412 2.518.836 3.802 1.277 3.734 1.283 7.457 2.599 11.205 3.841.781.26 1.067.627 1.025 1.433-.061 1.162-.017 2.33-.016 3.494.011 15.068.033 30.136.033 45.205 0 17.606-.028 35.214-.011 52.82zM93.352 58.54c-5.824 7.687-13.463 11.271-22.76 11.234-9.175-.036-16.708-3.622-22.45-11.234h45.21zM45.707 47.255c5.66-2.255 11.3-4.562 16.97-6.795.522-.206 1.26-.158 1.805.035 1.727.613 3.415 1.335 5.104 2.048.756.32 1.459.355 2.23.022 1.713-.74 3.433-1.475 5.191-2.095.571-.2 1.348-.228 1.902-.01 5.703 2.251 11.374 4.584 17.07 6.85.862.344 1.303.8 1.035 1.719-.619 2.122-1.26 4.238-1.898 6.354-.263.874-.853 1.133-1.763 1.13-7.533-.034-15.065-.02-22.598-.02v-.003c-7.603 0-15.206.011-22.81-.03-.459-.003-1.155-.316-1.336-.683-1.093-2.216-2.017-4.49-1.927-7.055.028-.808.302-1.18 1.025-1.467zm19.74-9.533c.835-1.387 1.713-2.754 2.449-4.193.436-.851.973-1.216 1.91-1.087.416.057.847.01 1.272.01 2.063-.604 3.036.479 3.685 2.255.385 1.051.969 2.033 1.496 3.029.28.53.205.805-.392 1.027-1.484.553-2.934 1.199-4.422 1.741-.397.145-.93.186-1.316.046-1.457-.529-2.867-1.187-4.321-1.724-.685-.253-.68-.572-.36-1.104zm22.951 3.811c-2.18.068-3.826-1.186-5.752-1.725l-.015-.404c.435-.185.868-.522 1.306-.528 3.423-.051 6.878-.312 10.26.057 2.036.222 3.96 1.456 5.934 2.235l-.046.274c-.365.02-.729.057-1.093.058-3.531.005-7.066-.076-10.594.033zM77.546 33.59c1.359-.487 2.673-1.1 4.032-1.59.346-.124.827-.077 1.183.058 1.878.71 3.717 1.525 5.612 2.187.57.2 1.332.192 1.904-.011 1.825-.645 3.586-1.468 5.406-2.128.503-.182 1.194-.206 1.683-.012 5.83 2.307 11.638 4.672 17.457 7.009.61.244.882.572.777 1.274-.36 2.418-1 4.74-2.053 6.957-.272.574-.626.746-1.226.74-2.616-.023-5.233.01-7.849-.029-.546-.008-1.107-.192-1.629-.382-3.11-1.137-6.21-2.296-9.31-3.461-.237-.09-.437-.28-.654-.425.03-.096.06-.192.088-.287h5.072c2.546 0 5.091-.006 7.637.002.638.002 1.267-.05 1.4-.809.13-.747-.44-1.018-1.027-1.255-3.626-1.464-7.246-2.945-10.876-4.4-.348-.138-.753-.185-1.13-.187-3.253-.014-6.512-.125-9.756.05-1.277.067-2.538.737-3.774 1.216-1.311.508-1.577.447-2.225-.827-.399-.784-.766-1.586-1.205-2.347-.383-.666-.341-1.055.463-1.343zm6.504-4.322c.901-1.386 1.7-2.839 2.511-4.281.36-.642.803-.988 1.594-.94 1.057.065 2.123-.016 3.181.036.342.018.848.169.98.417.96 1.792 1.84 3.626 2.83 5.612-1.943.778-3.694 1.512-5.475 2.164-.344.126-.836.01-1.209-.13-1.32-.49-2.618-1.047-3.93-1.566-.663-.264-.984-.538-.482-1.312zM24.147 96.89c-.007.199-.412.534-.646.546-1.27.063-2.546.076-3.818.041-.68-.018-1.226-.224-1.542-1.002C13.6 85.296 9.022 74.133 4.46 62.963c-.051-.125-.044-.273-.081-.526l19.676-7.57c.056.536.14.961.14 1.386.006 11.931.005 23.861.004 35.792 0 1.615.01 3.232-.05 4.845zM156.9 52.39c-6.518-2.5-13.01-5.07-19.565-7.472-6.023-2.206-12.159-4.106-18.161-6.364-7.094-2.668-14.103-5.563-21.13-8.402-.466-.189-.904-.674-1.15-1.13-1.015-1.89-2-3.797-2.892-5.746-.4-.87-.931-1.268-1.865-1.203-.387.027-.788.052-1.164-.02-.225-.043-.596-.28-.591-.422.045-1.47-.004-2.97.292-4.395.257-1.24 1.459-1.802 2.512-2.42 3.15-1.844 4.43-4.65 3.916-8.214-.456-3.155-2.309-5.274-5.348-6.19-3.317-1-6.222-.174-8.538 2.44-1.188 1.34-1.74 2.96-1.849 4.734-.04.675.23 1.323.926 1.274.377-.027.743-.658 1.046-1.068.128-.174.074-.479.111-.723.62-4.024 4.871-6.266 8.524-4.444 2.063 1.029 3.155 2.744 3.224 5.073.072 2.415-.938 4.286-3.053 5.398-2.66 1.397-4.01 3.452-3.828 6.472.03.492-.026.99.007 1.481.05.775-.268 1.131-1.055 1.03-.983-.126-1.55.36-2.014 1.19-1.118 1.998-2.291 3.966-3.481 5.923-.222.365-.576.74-.958.907-1.615.703-3.263 1.33-4.561 1.85-1.025-.646-1.703-1.393-2.469-1.497-1.982-.269-1.998-.156-1.998-2.222 0-.071.005-.142-.002-.212-.215-2.276.761-3.76 2.803-4.834 3.517-1.85 5.03-6.142 3.619-9.72-1.582-4.01-5.71-6.01-9.844-4.767-3.161.95-5.637 4.267-5.516 7.373.023.586.164 1.075.844 1.13.697.056 1.02-.373 1.137-1 .026-.137.014-.281.024-.422.17-2.565 2.23-4.885 4.705-5.3 2.967-.498 5.593.87 6.677 3.476 1.25 3.004.01 6.045-3.163 7.802-2.156 1.194-3.298 3.015-3.327 5.496-.008.67-.027 1.343.02 2.01.055.789-.196 1.241-1.058 1.14-.995-.12-1.548.401-2.006 1.216-1.034 1.844-2.162 3.636-3.184 5.485-.457.828-1.088 1.315-1.953 1.642-1.814.684-3.601 1.437-5.403 2.154-4.75 1.89-9.462 3.88-14.26 5.636-5.662 2.07-11.438 3.829-17.094 5.914-7.242 2.67-14.412 5.533-21.616 8.309-1.245.48-1.433.847-.937 2.073 2.084 5.153 4.187 10.3 6.267 15.455 2.698 6.69 5.39 13.382 8.059 20.082.32.803.79 1.19 1.664 1.152 1.696-.072 3.393-.11 5.09-.147.416-.01.84-.075.837.616-.011 2.465.053 4.93.053 7.396-.003 16.98-.016 33.958-.025 50.937 0 1.428.254 1.678 1.646 1.678l76.64-.01c4.387 0 8.775.003 13.162.004 1.372 0 1.634-.245 1.64-1.58.007-1.835.054-3.672-.02-5.505-.039-.974.265-1.252 1.242-1.244 5.236.046 10.473.024 15.71.022 1.42-.001 1.606-.19 1.607-1.581 0-13.59-.006-27.18.003-40.77.002-3.774.049-7.547.066-11.32.009-2.012.01-4.024-.011-6.036-.008-.728.264-.986 1.019-.947 1.447.073 2.905-.029 4.348.082 1.244.096 1.848-.449 2.287-1.538 4.726-11.718 9.483-23.423 14.228-35.133.465-1.15.267-1.619-.866-2.054z"/>
</svg>