
<svg version="1.0" xmlns="http://www.w3.org/2000/svg"
 width="293.000000pt" height="184.000000pt" viewBox="0 0 293.000000 184.000000"
 preserveAspectRatio="xMidYMid meet">
<g transform="translate(0.000000,184.000000) scale(0.100000,-0.100000)"
fill="#3b4a67" stroke="none">
<path d="M1390 1831 c-118 -39 -201 -132 -216 -244 l-7 -47 47 0 c41 0 46 2
46 23 1 65 73 153 146 177 89 30 202 -19 244 -105 61 -125 -11 -267 -149 -296
-31 -6 -62 -16 -68 -21 -9 -7 -13 -46 -13 -128 l0 -117 -652 -304 c-570 -265
-658 -309 -695 -347 -136 -138 -67 -373 120 -412 36 -7 439 -10 1302 -8 1415
3 1296 -4 1375 85 88 100 80 257 -17 344 -26 24 -242 129 -690 339 l-653 305
0 86 0 85 53 17 c64 20 128 72 164 134 22 37 28 62 31 129 4 72 1 89 -20 136
-30 66 -87 124 -148 151 -48 22 -159 32 -200 18z m731 -1142 c354 -165 655
-310 667 -322 78 -72 68 -185 -21 -251 l-28 -21 -1252 -3 c-1132 -2 -1256 -1
-1295 14 -108 41 -136 190 -48 260 34 27 1290 621 1317 623 9 1 306 -134 660
-300z"/>
</g>
</svg>
