<svg height="512" viewBox="0 0 60 60" width="512" xmlns="http://www.w3.org/2000/svg"><g id="Page-1" fill="none" fill-rule="evenodd"><g id="001---House-Clean" fill="rgb(0,0,0)" fill-rule="nonzero"><path id="Shape" d="m3 60h5c.84849384-.0026614 1.6557601-.3662948 2.22-1h25.08c1.4674156.0006138 2.9066743-.4027938 4.16-1.166l18.74-11.408c.8861698-.5351758 1.5101446-1.4144837 1.722716-2.4276587.2125715-1.0131749-.0053725-2.0691235-.601716-2.9153413-.0211838-.0347875-.0445646-.0681886-.07-.1-.9674494-1.285176-2.6463435-1.8108862-4.174-1.307l-7.077 2.353v-21.029h1.31c.83848.0044805 1.5907385-.51454 1.8841979-1.3000018s.0658102-1.6705896-.5701979-2.2169982l-2.624-2.265v-11.218c0-1.1045695-.8954305-2-2-2h-5c-1.1045695 0-2 .8954305-2 2v3.448l-7.7-6.648c-.7496818-.63682621-1.8503182-.63682621-2.6 0l-19.327 16.686c-.63404392.5472616-.85993036 1.4316354-.56599012 2.2159224.29394024.7842871 1.04544087 1.3023493 1.88299012 1.2980776h1.31v14h-1.184c-.4222546-1.1943509-1.54921457-1.9947486-2.816-2h-5c-1.65685425 0-3 1.3431458-3 3v21c0 1.6568542 1.34314575 3 3 3zm52.7-18.431c.6861666-.2253147 1.4402969-.0070139 1.9.55.0150636.02484.0314194.048873.049.072.2947436.3918849.4095617.8903409.3159627 1.3716795-.0935989.4813386-.3868419.9004449-.8069627 1.1533205l-18.738 11.41c-.9401696.5719432-2.0195283.8743021-3.12.874l-24.3.0000002v-20.0000002h1.8c1.845108.0020745 3.634951.6299473 5.077 1.781 1.7963064 1.4330224 4.0251194 2.2152043 6.323 2.219h5.23c1.394477.0037201 2.687363.7300223 3.416 1.919.011.025.023.048.033.066.6282519.9152462.600051 2.1298968-.07 3.015h-6.089c-1.9744471.0012643-3.9045319.5857168-5.548 1.68l-.73.49c-.4583963.3081749-.5801749.9296037-.272 1.388s.9296037.5801749 1.388.272l.724-.486c1.3144658-.875765 2.8585114-1.3433624 4.438-1.344h8.89c.5394129.0006918 1.0752548-.087489 1.586-.261zm-18.7 4.131-.444.148c-.3048656.1021956-.6244653.1535477-.946.152h-.545c.4410785-1.3276445.2826613-2.7815064-.434-3.983-.0159082-.0344212-.0339431-.0678191-.054-.1-1.0873635-1.8046689-3.0380713-2.9106386-5.145-2.917h-5.232c-.4019373-.0032901-.8030621-.0367172-1.2-.1v-1.9c0-3.8659932 3.1340068-7 7-7s7 3.1340068 7 7zm4-41.7h5v9.492l-5-4.317zm-25 17c.5522847 0 1-.4477153 1-1s-.4477153-1-1-1h-5.317l19.317-16.683 9.3 8.03 10.01 8.653h-13.31c-.5522847 0-1 .4477153-1 1s.4477153 1 1 1h10v21.7l-7 2.333v-8.033c0-4.9705627-4.0294373-9-9-9s-9 4.0294373-9 9v1.336c-.6727193-.2856669-1.3034921-.6614393-1.875-1.117-1.4768401-1.1744322-3.2513695-1.9147139-5.125-2.138v-14.081zm-14 15c0-.5522847.44771525-1 1-1h5c.55228475 0 1 .4477153 1 1v21c0 .5522847-.44771525 1-1 1h-5c-.55228475 0-1-.4477153-1-1z"/><path id="Shape" d="m12 5c.5522847 0 1-.44771525 1-1v-2c0-.55228475-.4477153-1-1-1s-1 .44771525-1 1v2c0 .55228475.4477153 1 1 1z"/><path id="Shape" d="m12 7c-.5522847 0-1 .44771525-1 1v2c0 .5522847.4477153 1 1 1s1-.4477153 1-1v-2c0-.55228475-.4477153-1-1-1z"/><path id="Shape" d="m14 7h2c.5522847 0 1-.44771525 1-1s-.4477153-1-1-1h-2c-.5522847 0-1 .44771525-1 1s.4477153 1 1 1z"/><path id="Shape" d="m8 7h2c.5522847 0 1-.44771525 1-1s-.4477153-1-1-1h-2c-.55228475 0-1 .44771525-1 1s.44771525 1 1 1z"/><path id="Shape" d="m55.5 29.5c.2651948-.0000566.5195073-.1054506.707-.293l1.5-1.5c.3789722-.3923789.3735524-1.0160848-.0121814-1.4018186s-1.0094397-.3911536-1.4018186-.0121814l-1.5 1.5c-.2859079.2859943-.3714219.7160366-.216678 1.0896546.1547439.3736179.5192821.6172591.923678.6173454z"/><path id="Shape" d="m51.793 30.793-1.5 1.5c-.2599566.2510745-.3642126.6228779-.2726972.9725073.0915155.3496295.3645604.6226744.7141899.7141899.3496294.0915154.7214328-.0127406.9725073-.2726972l1.5-1.5c.3789722-.3923789.3735524-1.0160848-.0121814-1.4018186s-1.0094397-.3911536-1.4018186-.0121814z"/><path id="Shape" d="m56.293 33.707c.3923789.3789722 1.0160848.3735524 1.4018186-.0121814s.3911536-1.0094397.0121814-1.4018186l-1.5-1.5c-.3923789-.3789722-1.0160848-.3735524-1.4018186.0121814s-.3911536 1.0094397-.0121814 1.4018186z"/><path id="Shape" d="m50.293 26.293c-.3903819.3904999-.3903819 1.0235001 0 1.414l1.5 1.5c.3923789.3789722 1.0160848.3735524 1.4018186-.0121814s.3911536-1.0094397.0121814-1.4018186l-1.5-1.5c-.3904999-.3903819-1.0235001-.3903819-1.414 0z"/><path id="Shape" d="m20 21c2.7600532.0033061 4.9966939 2.2399468 5 5 0 .5522847.4477153 1 1 1s1-.4477153 1-1c.0033061-2.7600532 2.2399468-4.9966939 5-5 .5522847 0 1-.4477153 1-1s-.4477153-1-1-1c-2.7600532-.0033061-4.9966939-2.2399468-5-5 0-.5522847-.4477153-1-1-1s-1 .4477153-1 1c-.0033061 2.7600532-2.2399468 4.9966939-5 5-.5522847 0-1 .4477153-1 1s.4477153 1 1 1zm6-3.4c.5931269.9831096 1.4168904 1.8068731 2.4 2.4-.9831096.5931269-1.8068731 1.4168904-2.4 2.4-.5931269-.9831096-1.4168904-1.8068731-2.4-2.4.9831096-.5931269 1.8068731-1.4168904 2.4-2.4z"/></g></g></svg>