<?xml version="1.0" encoding="utf-8"?>
<!-- Generator: Adobe Illustrator 21.0.0, SVG Export Plug-In . SVG Version: 6.00 Build 0)  -->
<svg version="1.1" id="Layer_1" xmlns="http://www.w3.org/2000/svg" xmlns:xlink="http://www.w3.org/1999/xlink" x="0px" y="0px"
	 width="1400px" height="980px" viewBox="0 0 1400 980" style="enable-background:new 0 0 1400 980;" xml:space="preserve">
<style type="text/css">
	.st0{fill:#cfeae0;}
	.st1{fill:#32956f5d}
	.st2{fill:#D3D3EA;}
	.st3{fill:#8B7EA6;}
	.st4{fill:#98B1D6;}
	.st5{fill:#AFD8A1;}
	.st6{fill:#D39785;}
	.st7{fill:#FEC465;}
	.st8{fill:#E5AE51;}
	.st9{fill:#FDB740;}
	.st10{fill:#90BAB4;}
	.st11{fill:#619D95;}
	.st12{fill:#F3F3F9;}
	.st13{fill:#58C5C7;}
	.st14{fill:#EFCB91;}
	.st15{fill:#513B71;}
	.st16{fill:#FFFFFF;}
	.st17{fill:#908FB5;}
	.st18{fill:#CFEAE0;}
	.st19{fill:#EBF6F1;}
	.st20{fill:#ADDCCF;}
	.st21{fill:#F1F7F4;}
	.st22{fill:#298276;}
	.st23{fill:#B4B4DA;}
	.st24{fill:#F27581;}
	.st25{fill:#9CC48D;}
	.st26{fill:#B7B6CE;}
</style>
<rect class="st0" width="1400" height="980"/>
<g>
	<path class="st1" d="M242.981,333.38h-74.899c-1.598,0-2.893,1.295-2.893,2.893v14.434c0,1.598,1.295,2.893,2.893,2.893h74.899
		c1.598,0,2.893-1.295,2.893-2.893v-14.434C245.874,334.676,244.579,333.38,242.981,333.38z"/>
	<path class="st1" d="M331.579,333.38H256.68c-1.598,0-2.893,1.295-2.893,2.893v14.434c0,1.598,1.295,2.893,2.893,2.893h74.899
		c1.598,0,2.893-1.295,2.893-2.893v-14.434C334.472,334.676,333.177,333.38,331.579,333.38z"/>
	<path class="st1" d="M420.178,333.38h-74.899c-1.598,0-2.893,1.295-2.893,2.893v14.434c0,1.598,1.295,2.893,2.893,2.893h74.899
		c1.598,0,2.893-1.295,2.893-2.893v-14.434C423.071,334.676,421.776,333.38,420.178,333.38z"/>
	<path class="st1" d="M508.776,333.38h-74.899c-1.598,0-2.893,1.295-2.893,2.893v14.434c0,1.598,1.295,2.893,2.893,2.893h74.899
		c1.598,0,2.893-1.295,2.893-2.893v-14.434C511.669,334.676,510.374,333.38,508.776,333.38z"/>
	<path class="st1" d="M597.374,333.38h-74.899c-1.598,0-2.893,1.295-2.893,2.893v14.434c0,1.598,1.295,2.893,2.893,2.893h74.899
		c1.598,0,2.893-1.295,2.893-2.893v-14.434C600.268,334.676,598.972,333.38,597.374,333.38z"/>
	<path class="st1" d="M685.973,333.38h-74.899c-1.598,0-2.893,1.295-2.893,2.893v14.434c0,1.598,1.295,2.893,2.893,2.893h74.899
		c1.598,0,2.893-1.295,2.893-2.893v-14.434C688.866,334.676,687.571,333.38,685.973,333.38z"/>
</g>
<g>
	<path class="st1" d="M287.28,364.253h-74.899c-1.598,0-2.893,1.295-2.893,2.893v14.434c0,1.598,1.295,2.893,2.893,2.893h74.899
		c1.598,0,2.893-1.295,2.893-2.893v-14.434C290.173,365.549,288.878,364.253,287.28,364.253z"/>
	<path class="st1" d="M375.878,364.253H300.98c-1.598,0-2.893,1.295-2.893,2.893v14.434c0,1.598,1.295,2.893,2.893,2.893h74.899
		c1.598,0,2.893-1.295,2.893-2.893v-14.434C378.772,365.549,377.476,364.253,375.878,364.253z"/>
	<path class="st1" d="M464.477,364.253h-74.899c-1.598,0-2.893,1.295-2.893,2.893v14.434c0,1.598,1.295,2.893,2.893,2.893h74.899
		c1.598,0,2.893-1.295,2.893-2.893v-14.434C467.37,365.549,466.075,364.253,464.477,364.253z"/>
	<path class="st1" d="M553.075,364.253h-74.899c-1.598,0-2.893,1.295-2.893,2.893v14.434c0,1.598,1.295,2.893,2.893,2.893h74.899
		c1.598,0,2.893-1.295,2.893-2.893v-14.434C555.968,365.549,554.673,364.253,553.075,364.253z"/>
	<path class="st1" d="M641.674,364.253h-74.899c-1.598,0-2.893,1.295-2.893,2.893v14.434c0,1.598,1.295,2.893,2.893,2.893h74.899
		c1.598,0,2.893-1.295,2.893-2.893v-14.434C644.567,365.549,643.271,364.253,641.674,364.253z"/>
</g>
<g>
	<path class="st1" d="M810.808,366.579h-74.899c-1.598,0-2.893,1.295-2.893,2.893v14.434c0,1.598,1.295,2.893,2.893,2.893h74.899
		c1.598,0,2.893-1.295,2.893-2.893v-14.434C813.701,367.875,812.406,366.579,810.808,366.579z"/>
	<path class="st1" d="M988.005,366.579h-74.899c-1.598,0-2.893,1.295-2.893,2.893v14.434c0,1.598,1.295,2.893,2.893,2.893h74.899
		c1.598,0,2.893-1.295,2.893-2.893v-14.434C990.898,367.875,989.603,366.579,988.005,366.579z"/>
</g>
<g>
	<path class="st1" d="M855.107,397.452h-74.899c-1.598,0-2.893,1.295-2.893,2.893v14.434c0,1.598,1.295,2.893,2.893,2.893h74.899
		c1.598,0,2.893-1.295,2.893-2.893v-14.434C858,398.748,856.705,397.452,855.107,397.452z"/>
	<path class="st1" d="M943.706,397.452h-74.899c-1.598,0-2.893,1.295-2.893,2.893v14.434c0,1.598,1.295,2.893,2.893,2.893h74.899
		c1.598,0,2.893-1.295,2.893-2.893v-14.434C946.599,398.748,945.303,397.452,943.706,397.452z"/>
	<path class="st1" d="M1032.304,397.452h-74.899c-1.598,0-2.893,1.295-2.893,2.893v14.434c0,1.598,1.295,2.893,2.893,2.893h74.899
		c1.598,0,2.893-1.295,2.893-2.893v-14.434C1035.197,398.748,1033.902,397.452,1032.304,397.452z"/>
	<path class="st1" d="M1120.902,397.452h-74.899c-1.598,0-2.893,1.295-2.893,2.893v14.434c0,1.598,1.295,2.893,2.893,2.893h74.899
		c1.598,0,2.893-1.295,2.893-2.893v-14.434C1123.795,398.748,1122.5,397.452,1120.902,397.452z"/>
</g>
<g>
	<path class="st1" d="M915.737,604.331h-74.899c-1.598,0-2.893,1.295-2.893,2.893v14.434c0,1.598,1.295,2.893,2.893,2.893h74.899
		c1.598,0,2.893-1.295,2.893-2.893v-14.434C918.63,605.626,917.334,604.331,915.737,604.331z"/>
	<path class="st1" d="M1004.335,604.331h-74.899c-1.598,0-2.893,1.295-2.893,2.893v14.434c0,1.598,1.295,2.893,2.893,2.893h74.899
		c1.598,0,2.893-1.295,2.893-2.893v-14.434C1007.228,605.626,1005.933,604.331,1004.335,604.331z"/>
	<path class="st1" d="M1092.933,604.331h-74.899c-1.598,0-2.893,1.295-2.893,2.893v14.434c0,1.598,1.295,2.893,2.893,2.893h74.899
		c1.598,0,2.893-1.295,2.893-2.893v-14.434C1095.827,605.626,1094.531,604.331,1092.933,604.331z"/>
	<path class="st1" d="M1181.532,604.331h-74.899c-1.598,0-2.893,1.295-2.893,2.893v14.434c0,1.598,1.295,2.893,2.893,2.893h74.899
		c1.598,0,2.893-1.295,2.893-2.893v-14.434C1184.425,605.626,1183.13,604.331,1181.532,604.331z"/>
</g>
<g>
	<path class="st1" d="M960.036,635.204h-74.899c-1.598,0-2.893,1.295-2.893,2.893v14.434c0,1.598,1.295,2.893,2.893,2.893h74.899
		c1.598,0,2.893-1.295,2.893-2.893v-14.434C962.929,636.499,961.634,635.204,960.036,635.204z"/>
	<path class="st1" d="M1048.634,635.204h-74.899c-1.598,0-2.893,1.295-2.893,2.893v14.434c0,1.598,1.295,2.893,2.893,2.893h74.899
		c1.598,0,2.893-1.295,2.893-2.893v-14.434C1051.527,636.499,1050.232,635.204,1048.634,635.204z"/>
	<path class="st1" d="M1225.831,635.204h-74.899c-1.598,0-2.893,1.295-2.893,2.893v14.434c0,1.598,1.295,2.893,2.893,2.893h74.899
		c1.598,0,2.893-1.295,2.893-2.893v-14.434C1228.724,636.499,1227.429,635.204,1225.831,635.204z"/>
</g>
<g>
	<path class="st1" d="M738.54,245.944h-74.899c-1.598,0-2.893,1.295-2.893,2.893v14.434c0,1.598,1.295,2.893,2.893,2.893h74.899
		c1.598,0,2.893-1.295,2.893-2.893v-14.434C741.433,247.239,740.138,245.944,738.54,245.944z"/>
	<path class="st1" d="M827.138,245.944h-74.899c-1.598,0-2.893,1.295-2.893,2.893v14.434c0,1.598,1.295,2.893,2.893,2.893h74.899
		c1.598,0,2.893-1.295,2.893-2.893v-14.434C830.031,247.239,828.736,245.944,827.138,245.944z"/>
	<path class="st1" d="M915.737,245.944h-74.899c-1.598,0-2.893,1.295-2.893,2.893v14.434c0,1.598,1.295,2.893,2.893,2.893h74.899
		c1.598,0,2.893-1.295,2.893-2.893v-14.434C918.63,247.239,917.334,245.944,915.737,245.944z"/>
	<path class="st1" d="M1004.335,245.944h-74.899c-1.598,0-2.893,1.295-2.893,2.893v14.434c0,1.598,1.295,2.893,2.893,2.893h74.899
		c1.598,0,2.893-1.295,2.893-2.893v-14.434C1007.228,247.239,1005.933,245.944,1004.335,245.944z"/>
	<path class="st1" d="M1092.933,245.944h-74.899c-1.598,0-2.893,1.295-2.893,2.893v14.434c0,1.598,1.295,2.893,2.893,2.893h74.899
		c1.598,0,2.893-1.295,2.893-2.893v-14.434C1095.827,247.239,1094.531,245.944,1092.933,245.944z"/>
	<path class="st1" d="M1181.532,245.944h-74.899c-1.598,0-2.893,1.295-2.893,2.893v14.434c0,1.598,1.295,2.893,2.893,2.893h74.899
		c1.598,0,2.893-1.295,2.893-2.893v-14.434C1184.425,247.239,1183.13,245.944,1181.532,245.944z"/>
</g>
<g>
	<path class="st1" d="M782.839,276.817H707.94c-1.598,0-2.893,1.295-2.893,2.893v14.434c0,1.598,1.295,2.893,2.893,2.893h74.899
		c1.598,0,2.893-1.295,2.893-2.893V279.71C785.732,278.112,784.437,276.817,782.839,276.817z"/>
	<path class="st1" d="M871.437,276.817h-74.899c-1.598,0-2.893,1.295-2.893,2.893v14.434c0,1.598,1.295,2.893,2.893,2.893h74.899
		c1.598,0,2.893-1.295,2.893-2.893V279.71C874.331,278.112,873.035,276.817,871.437,276.817z"/>
	<path class="st1" d="M960.036,276.817h-74.899c-1.598,0-2.893,1.295-2.893,2.893v14.434c0,1.598,1.295,2.893,2.893,2.893h74.899
		c1.598,0,2.893-1.295,2.893-2.893V279.71C962.929,278.112,961.634,276.817,960.036,276.817z"/>
	<path class="st1" d="M1048.634,276.817h-74.899c-1.598,0-2.893,1.295-2.893,2.893v14.434c0,1.598,1.295,2.893,2.893,2.893h74.899
		c1.598,0,2.893-1.295,2.893-2.893V279.71C1051.527,278.112,1050.232,276.817,1048.634,276.817z"/>
	<path class="st1" d="M1137.233,276.817h-74.899c-1.598,0-2.893,1.295-2.893,2.893v14.434c0,1.598,1.295,2.893,2.893,2.893h74.899
		c1.598,0,2.893-1.295,2.893-2.893V279.71C1140.126,278.112,1138.83,276.817,1137.233,276.817z"/>
</g>
<g>
	<path class="st1" d="M399.355,712.362h-74.899c-1.598,0-2.893,1.295-2.893,2.893v14.434c0,1.598,1.295,2.893,2.893,2.893h74.899
		c1.598,0,2.893-1.295,2.893-2.893v-14.434C402.248,713.658,400.953,712.362,399.355,712.362z"/>
	<path class="st1" d="M487.953,712.362h-74.899c-1.598,0-2.893,1.295-2.893,2.893v14.434c0,1.598,1.295,2.893,2.893,2.893h74.899
		c1.598,0,2.893-1.295,2.893-2.893v-14.434C490.847,713.658,489.551,712.362,487.953,712.362z"/>
	<path class="st1" d="M576.552,712.362h-74.899c-1.598,0-2.893,1.295-2.893,2.893v14.434c0,1.598,1.295,2.893,2.893,2.893h74.899
		c1.598,0,2.893-1.295,2.893-2.893v-14.434C579.445,713.658,578.15,712.362,576.552,712.362z"/>
	<path class="st1" d="M665.15,712.362h-74.899c-1.598,0-2.893,1.295-2.893,2.893v14.434c0,1.598,1.295,2.893,2.893,2.893h74.899
		c1.598,0,2.893-1.295,2.893-2.893v-14.434C668.043,713.658,666.748,712.362,665.15,712.362z"/>
	<path class="st1" d="M753.748,712.362H678.85c-1.598,0-2.893,1.295-2.893,2.893v14.434c0,1.598,1.295,2.893,2.893,2.893h74.899
		c1.598,0,2.893-1.295,2.893-2.893v-14.434C756.642,713.658,755.346,712.362,753.748,712.362z"/>
	<path class="st1" d="M842.347,712.362h-74.899c-1.598,0-2.893,1.295-2.893,2.893v14.434c0,1.598,1.295,2.893,2.893,2.893h74.899
		c1.598,0,2.893-1.295,2.893-2.893v-14.434C845.24,713.658,843.945,712.362,842.347,712.362z"/>
</g>
<g>
	<path class="st1" d="M443.654,743.236h-74.899c-1.598,0-2.893,1.295-2.893,2.893v14.434c0,1.598,1.295,2.893,2.893,2.893h74.899
		c1.598,0,2.893-1.295,2.893-2.893v-14.434C446.547,744.531,445.252,743.236,443.654,743.236z"/>
	<path class="st1" d="M532.253,743.236h-74.899c-1.598,0-2.893,1.295-2.893,2.893v14.434c0,1.598,1.295,2.893,2.893,2.893h74.899
		c1.598,0,2.893-1.295,2.893-2.893v-14.434C535.146,744.531,533.85,743.236,532.253,743.236z"/>
	<path class="st1" d="M620.851,743.236h-74.899c-1.598,0-2.893,1.295-2.893,2.893v14.434c0,1.598,1.295,2.893,2.893,2.893h74.899
		c1.598,0,2.893-1.295,2.893-2.893v-14.434C623.744,744.531,622.449,743.236,620.851,743.236z"/>
	<path class="st1" d="M709.449,743.236H634.55c-1.598,0-2.893,1.295-2.893,2.893v14.434c0,1.598,1.295,2.893,2.893,2.893h74.899
		c1.598,0,2.893-1.295,2.893-2.893v-14.434C712.342,744.531,711.047,743.236,709.449,743.236z"/>
	<path class="st1" d="M798.048,743.236h-74.899c-1.598,0-2.893,1.295-2.893,2.893v14.434c0,1.598,1.295,2.893,2.893,2.893h74.899
		c1.598,0,2.893-1.295,2.893-2.893v-14.434C800.941,744.531,799.646,743.236,798.048,743.236z"/>
</g>
<g>
	<path class="st1" d="M359.012,538.308h-74.899c-1.598,0-2.893,1.295-2.893,2.893v14.434c0,1.598,1.295,2.893,2.893,2.893h74.899
		c1.598,0,2.893-1.295,2.893-2.893v-14.434C361.906,539.603,360.61,538.308,359.012,538.308z"/>
	<path class="st1" d="M447.611,538.308h-74.899c-1.598,0-2.893,1.295-2.893,2.893v14.434c0,1.598,1.295,2.893,2.893,2.893h74.899
		c1.598,0,2.893-1.295,2.893-2.893v-14.434C450.504,539.603,449.209,538.308,447.611,538.308z"/>
	<path class="st1" d="M536.209,538.308H461.31c-1.598,0-2.893,1.295-2.893,2.893v14.434c0,1.598,1.295,2.893,2.893,2.893h74.899
		c1.598,0,2.893-1.295,2.893-2.893v-14.434C539.102,539.603,537.807,538.308,536.209,538.308z"/>
	<path class="st1" d="M624.807,538.308h-74.899c-1.598,0-2.893,1.295-2.893,2.893v14.434c0,1.598,1.295,2.893,2.893,2.893h74.899
		c1.598,0,2.893-1.295,2.893-2.893v-14.434C627.701,539.603,626.405,538.308,624.807,538.308z"/>
	<path class="st1" d="M802.004,538.308h-74.899c-1.598,0-2.893,1.295-2.893,2.893v14.434c0,1.598,1.295,2.893,2.893,2.893h74.899
		c1.598,0,2.893-1.295,2.893-2.893v-14.434C804.897,539.603,803.602,538.308,802.004,538.308z"/>
</g>
<g>
	<path class="st1" d="M403.312,569.181h-74.899c-1.598,0-2.893,1.295-2.893,2.893v14.434c0,1.598,1.295,2.893,2.893,2.893h74.899
		c1.598,0,2.893-1.295,2.893-2.893v-14.434C406.205,570.476,404.909,569.181,403.312,569.181z"/>
	<path class="st1" d="M491.91,569.181h-74.899c-1.598,0-2.893,1.295-2.893,2.893v14.434c0,1.598,1.295,2.893,2.893,2.893h74.899
		c1.598,0,2.893-1.295,2.893-2.893v-14.434C494.803,570.476,493.508,569.181,491.91,569.181z"/>
	<path class="st1" d="M580.508,569.181h-74.899c-1.598,0-2.893,1.295-2.893,2.893v14.434c0,1.598,1.295,2.893,2.893,2.893h74.899
		c1.598,0,2.893-1.295,2.893-2.893v-14.434C583.401,570.476,582.106,569.181,580.508,569.181z"/>
	<path class="st1" d="M669.107,569.181h-74.899c-1.598,0-2.893,1.295-2.893,2.893v14.434c0,1.598,1.295,2.893,2.893,2.893h74.899
		c1.598,0,2.893-1.295,2.893-2.893v-14.434C672,570.476,670.705,569.181,669.107,569.181z"/>
	<path class="st1" d="M757.705,569.181h-74.899c-1.598,0-2.893,1.295-2.893,2.893v14.434c0,1.598,1.295,2.893,2.893,2.893h74.899
		c1.598,0,2.893-1.295,2.893-2.893v-14.434C760.598,570.476,759.303,569.181,757.705,569.181z"/>
</g>
<g>
	<g>
		<g>
			<rect x="1241.351" y="313.776" class="st2" width="14.663" height="461.637"/>
			<path class="st3" d="M1256.014,778.314h-14.663c-1.603,0-2.902-1.299-2.902-2.902V313.776c0-1.602,1.299-2.902,2.902-2.902
				h14.663c1.603,0,2.901,1.299,2.901,2.902v461.637C1258.915,777.016,1257.617,778.314,1256.014,778.314z M1244.253,772.511h8.859
				V316.677h-8.859V772.511z"/>
			<polygon class="st4" points="1232.7,805.641 1236.614,775.413 1260.751,775.413 1264.665,805.641 			"/>
			<path class="st3" d="M1264.665,808.542h-31.965c-0.835,0-1.628-0.359-2.179-0.986c-0.552-0.627-0.806-1.46-0.699-2.288
				l3.914-30.228c0.188-1.447,1.42-2.529,2.878-2.529h24.137c1.458,0,2.69,1.082,2.878,2.529l3.914,30.228
				c0.107,0.827-0.147,1.66-0.699,2.288C1266.293,808.183,1265.5,808.542,1264.665,808.542z M1236,802.739h25.363l-3.163-24.425
				h-19.037L1236,802.739z"/>
		</g>
		<g>
			<rect x="947.262" y="313.776" class="st2" width="14.663" height="461.637"/>
			<path class="st3" d="M961.925,778.314h-14.663c-1.603,0-2.902-1.299-2.902-2.902V313.776c0-1.602,1.299-2.902,2.902-2.902h14.663
				c1.603,0,2.902,1.299,2.902,2.902v461.637C964.826,777.016,963.528,778.314,961.925,778.314z M950.164,772.511h8.859V316.677
				h-8.859V772.511z"/>
			<polygon class="st4" points="938.611,805.641 942.525,775.413 966.662,775.413 970.576,805.641 			"/>
			<path class="st3" d="M970.577,808.542H938.61c-0.835,0-1.628-0.359-2.18-0.986c-0.551-0.627-0.805-1.46-0.698-2.289l3.915-30.228
				c0.188-1.446,1.42-2.528,2.878-2.528h24.137c1.458,0,2.69,1.082,2.878,2.529l3.914,30.228c0.107,0.827-0.147,1.66-0.699,2.288
				C972.205,808.183,971.411,808.542,970.577,808.542z M941.912,802.739h25.363l-3.163-24.425h-19.037L941.912,802.739z"/>
		</g>
	</g>
	<rect x="961.925" y="323.191" class="st3" width="279.426" height="5.803"/>
</g>
<g>
	<g>
		<path class="st5" d="M1207.621,490.611h-10.557V350.286c0-3.881-3.157-7.038-7.038-7.038s-7.038,3.157-7.038,7.038v140.324
			h-10.557V350.286c0-9.702,7.893-17.596,17.596-17.596c9.702,0,17.596,7.893,17.596,17.596V490.611z"/>
		<path class="st3" d="M1207.622,493.513h-10.558c-1.603,0-2.902-1.299-2.902-2.902V350.286c0-2.281-1.856-4.136-4.137-4.136
			s-4.136,1.855-4.136,4.136v140.325c0,1.603-1.299,2.902-2.901,2.902h-10.558c-1.603,0-2.901-1.299-2.901-2.902V350.286
			c0-11.302,9.195-20.497,20.497-20.497c11.303,0,20.498,9.195,20.498,20.497v140.325
			C1210.523,492.214,1209.224,493.513,1207.622,493.513z M1199.965,487.71h4.755V350.286c0-8.102-6.592-14.694-14.695-14.694
			c-8.102,0-14.694,6.592-14.694,14.694V487.71h4.755V350.286c0-5.481,4.459-9.94,9.939-9.94c5.481,0,9.94,4.459,9.94,9.94V487.71z"
			/>
	</g>
	<g>
		<path class="st6" d="M1183.682,347.393v18.544c0,3.504,2.84,6.344,6.344,6.344l0,0c3.504,0,6.344-2.84,6.344-6.344v-18.544
			c0-2.046-1.659-3.705-3.705-3.705h-5.279C1185.34,343.688,1183.682,345.347,1183.682,347.393z"/>
		<path class="st3" d="M1190.025,375.182c-5.098,0-9.245-4.147-9.245-9.245v-18.544c0-3.643,2.963-6.606,6.606-6.606h5.279
			c3.643,0,6.606,2.963,6.606,6.606v18.544C1199.271,371.035,1195.124,375.182,1190.025,375.182z M1187.386,346.589
			c-0.443,0-0.803,0.36-0.803,0.803v18.544c0,1.898,1.544,3.442,3.442,3.442c1.899,0,3.443-1.544,3.443-3.442v-18.544
			c0-0.443-0.36-0.803-0.803-0.803H1187.386z"/>
		<rect x="1187.124" y="319.934" class="st3" width="5.803" height="23.754"/>
	</g>
</g>
<g>
	<g>
		<path class="st6" d="M1119.018,347.393v18.544c0,3.504,2.84,6.344,6.344,6.344l0,0c3.504,0,6.344-2.84,6.344-6.344v-18.544
			c0-2.046-1.659-3.705-3.705-3.705h-5.279C1120.677,343.688,1119.018,345.347,1119.018,347.393z"/>
		<path class="st3" d="M1125.362,375.182c-5.098,0-9.246-4.147-9.246-9.245v-18.544c0-3.643,2.964-6.606,6.607-6.606h5.278
			c3.643,0,6.607,2.963,6.607,6.606v18.544C1134.608,371.035,1130.461,375.182,1125.362,375.182z M1122.723,346.589
			c-0.443,0-0.804,0.36-0.804,0.803v18.544c0,1.898,1.544,3.442,3.443,3.442c1.899,0,3.443-1.544,3.443-3.442v-18.544
			c0-0.443-0.361-0.803-0.804-0.803H1122.723z"/>
		<rect x="1122.461" y="319.934" class="st3" width="5.803" height="23.754"/>
	</g>
	<path class="st7" d="M1141.491,572.792h-32.258V365.549c0-6.245,5.063-11.308,11.308-11.308h9.643
		c6.245,0,11.308,5.063,11.308,11.308V572.792z"/>
	<path class="st8" d="M1130.184,354.241h-4.822c3.504,0,6.344,2.84,6.344,6.344v212.207h9.785V365.549
		C1141.491,359.304,1136.429,354.241,1130.184,354.241z"/>
	<path class="st3" d="M1141.492,575.694h-32.259c-1.603,0-2.901-1.299-2.901-2.902V365.549c0-7.835,6.375-14.209,14.209-14.209
		h9.643c7.835,0,14.209,6.374,14.209,14.209v207.243C1144.393,574.395,1143.094,575.694,1141.492,575.694z M1112.134,569.891h26.456
		V365.549c0-4.635-3.771-8.406-8.406-8.406h-9.643c-4.635,0-8.406,3.771-8.406,8.406V569.891z"/>
	<path class="st9" d="M1145.563,428.237h-27.713v-55.9c0-4.737,3.84-8.578,8.578-8.578l0,0c10.568,0,19.135,8.567,19.135,19.135
		V428.237z"/>
	<rect x="1117.85" y="418.909" class="st0" width="27.713" height="9.328"/>
	<path class="st3" d="M1145.563,431.138h-27.713c-1.603,0-2.902-1.299-2.902-2.902v-55.9c0-6.33,5.15-11.48,11.48-11.48
		c12.151,0,22.036,9.886,22.036,22.037v45.342C1148.464,429.839,1147.165,431.138,1145.563,431.138z M1120.751,425.335h21.91
		v-42.441c0-8.951-7.282-16.234-16.233-16.234c-3.13,0-5.677,2.546-5.677,5.677V425.335z"/>
</g>
<g>
	<g>
		<path class="st6" d="M1054.074,347.393v18.544c0,3.504,2.84,6.344,6.344,6.344l0,0c3.504,0,6.344-2.84,6.344-6.344v-18.544
			c0-2.046-1.659-3.705-3.705-3.705h-5.279C1055.732,343.688,1054.074,345.347,1054.074,347.393z"/>
		<path class="st3" d="M1060.418,375.182c-5.099,0-9.246-4.147-9.246-9.245v-18.544c0-3.643,2.964-6.606,6.607-6.606h5.279
			c3.643,0,6.606,2.963,6.606,6.606v18.544C1069.663,371.035,1065.516,375.182,1060.418,375.182z M1057.779,346.589
			c-0.443,0-0.804,0.36-0.804,0.803v18.544c0,1.898,1.544,3.442,3.443,3.442s3.443-1.544,3.443-3.442v-18.544
			c0-0.443-0.36-0.803-0.803-0.803H1057.779z"/>
		<rect x="1057.516" y="319.934" class="st3" width="5.803" height="23.754"/>
	</g>
	<path class="st10" d="M1076.547,572.792h-32.259V365.549c0-6.245,5.063-11.308,11.308-11.308h9.643
		c6.245,0,11.308,5.063,11.308,11.308V572.792z"/>
	<path class="st11" d="M1065.239,354.241h-4.822c3.504,0,6.344,2.84,6.344,6.344v212.207h9.785V365.549
		C1076.547,359.304,1071.484,354.241,1065.239,354.241z"/>
	<path class="st3" d="M1076.547,575.694h-32.259c-1.603,0-2.902-1.299-2.902-2.902V365.549c0-7.835,6.375-14.209,14.209-14.209
		h9.643c7.835,0,14.209,6.374,14.209,14.209v207.243C1079.449,574.395,1078.15,575.694,1076.547,575.694z M1047.19,569.891h26.456
		V365.549c0-4.635-3.771-8.406-8.406-8.406h-9.643c-4.635,0-8.406,3.771-8.406,8.406V569.891z"/>
	<path class="st10" d="M1080.618,428.237h-27.713v-55.9c0-4.737,3.84-8.578,8.578-8.578l0,0c10.568,0,19.135,8.567,19.135,19.135
		V428.237z"/>
	<path class="st3" d="M1080.618,431.138h-27.713c-1.603,0-2.901-1.299-2.901-2.902v-55.9c0-6.33,5.149-11.48,11.48-11.48
		c12.151,0,22.036,9.886,22.036,22.037v45.342C1083.519,429.839,1082.221,431.138,1080.618,431.138z M1055.807,425.335h21.91
		v-42.441c0-8.951-7.282-16.234-16.233-16.234c-3.13,0-5.677,2.546-5.677,5.677V425.335z"/>
</g>
<g>
	<g>
		<path class="st6" d="M996.888,347.393v18.544c0,3.504,2.84,6.344,6.344,6.344l0,0c3.504,0,6.344-2.84,6.344-6.344v-18.544
			c0-2.046-1.659-3.705-3.705-3.705h-5.279C998.547,343.688,996.888,345.347,996.888,347.393z"/>
		<path class="st3" d="M1003.232,375.182c-5.099,0-9.246-4.147-9.246-9.245v-18.544c0-3.643,2.964-6.606,6.607-6.606h5.278
			c3.643,0,6.607,2.963,6.607,6.606v18.544C1012.478,371.035,1008.331,375.182,1003.232,375.182z M1000.593,346.589
			c-0.443,0-0.804,0.36-0.804,0.803v18.544c0,1.898,1.544,3.442,3.443,3.442c1.898,0,3.443-1.544,3.443-3.442v-18.544
			c0-0.443-0.361-0.803-0.804-0.803H1000.593z"/>
		<rect x="1000.331" y="319.934" class="st3" width="5.803" height="23.754"/>
	</g>
	<path class="st12" d="M1019.361,572.792h-32.259V365.549c0-6.245,5.063-11.308,11.308-11.308h9.643
		c6.245,0,11.308,5.063,11.308,11.308V572.792z"/>
	<path class="st2" d="M1008.054,354.241h-4.822c3.504,0,6.344,2.84,6.344,6.344v212.207h9.785V365.549
		C1019.361,359.304,1014.299,354.241,1008.054,354.241z"/>
	<path class="st3" d="M1019.362,575.694h-32.259c-1.603,0-2.902-1.299-2.902-2.902V365.549c0-7.835,6.375-14.209,14.209-14.209
		h9.643c7.835,0,14.209,6.374,14.209,14.209v207.243C1022.263,574.395,1020.964,575.694,1019.362,575.694z M990.004,569.891h26.456
		V365.549c0-4.635-3.771-8.406-8.406-8.406h-9.643c-4.635,0-8.406,3.771-8.406,8.406V569.891z"/>
	<g>
		<path class="st13" d="M1023.433,550.142H995.72V372.337c0-4.737,3.84-8.578,8.578-8.578h0c10.568,0,19.135,8.567,19.135,19.135
			V550.142z"/>
		<path class="st3" d="M1023.432,553.044h-27.713c-1.603,0-2.902-1.299-2.902-2.902V372.337c0-6.33,5.15-11.48,11.48-11.48
			c12.151,0,22.036,9.886,22.036,22.037v167.248C1026.334,551.746,1025.035,553.044,1023.432,553.044z M998.621,547.241h21.91
			V382.895c0-8.951-7.282-16.234-16.233-16.234c-3.13,0-5.677,2.546-5.677,5.677V547.241z"/>
	</g>
</g>
<g>
	<rect x="657.771" y="684.526" class="st14" width="43.329" height="43.329"/>
	<path class="st3" d="M701.101,730.757h-43.329c-1.602,0-2.902-1.299-2.902-2.902v-43.33c0-1.603,1.299-2.902,2.902-2.902h43.329
		c1.603,0,2.902,1.299,2.902,2.902v43.33C704.002,729.458,702.703,730.757,701.101,730.757z M660.673,724.954h37.526v-37.526
		h-37.526V724.954z"/>
	<ellipse class="st12" cx="679.436" cy="706.191" rx="11.495" ry="6.378"/>
	<path class="st15" d="M679.436,715.471c-8.207,0-14.397-3.99-14.397-9.28c0-5.291,6.189-9.281,14.397-9.281
		s14.396,3.99,14.396,9.281C693.832,711.481,687.643,715.471,679.436,715.471z M679.436,702.714c-5.331,0-8.594,2.252-8.594,3.478
		c0,1.226,3.263,3.477,8.594,3.477s8.593-2.251,8.593-3.477C688.029,704.965,684.767,702.714,679.436,702.714z"/>
	<g>
		<polygon class="st12" points="588.911,448.704 531.386,440.802 527.594,468.402 586.197,468.46 		"/>
		
			<rect x="569.194" y="454.607" transform="matrix(0.1361 -0.9907 0.9907 0.1361 47.169 968.9515)" class="st16" width="19.942" height="5.645"/>
		<polygon class="st2" points="543.007,442.398 531.386,440.802 527.594,468.402 539.433,468.414 		"/>
		<path class="st15" d="M586.197,471.362c-0.001,0-0.002,0-0.003,0l-58.603-0.059c-0.838-0.001-1.634-0.364-2.185-0.996
			c-0.55-0.632-0.8-1.471-0.687-2.301l3.791-27.6c0.105-0.762,0.508-1.452,1.121-1.917c0.613-0.466,1.385-0.666,2.148-0.563
			l57.525,7.903c1.588,0.218,2.698,1.682,2.48,3.269l-2.714,19.756C588.875,470.292,587.647,471.362,586.197,471.362z
			 M530.922,465.504l52.746,0.052l1.974-14.372l-51.776-7.113L530.922,465.504z"/>
		<path class="st12" d="M597.736,384.468c1.093-7.954-1.914-15.921-7.99-21.17l-27.188-23.487
			c-4.911-4.243-10.947-6.97-17.376-7.854l-5.204-0.715l-12.377,90.095c13.971,1.919,15.513,9.507,13.954,20.862l47.357,6.506
			L597.736,384.468z M560.584,433.268c-4.092-0.562-6.953-4.335-6.391-8.426l7.081-51.542c1.031-7.502,9.968-10.875,15.698-5.925
			l5.297,4.576c3.158,2.728,4.704,6.825,4.136,10.959l-6.25,45.497c-0.562,4.092-4.335,6.953-8.426,6.391L560.584,433.268z"/>
		<path class="st13" d="M560.584,433.268c-4.092-0.562-6.953-4.335-6.391-8.426l7.081-51.542c0.395-2.879,1.957-5.146,4.053-6.572
			l-13.026-17.174c-1.946-2.566-6.022-1.498-6.46,1.692l-2.986,21.736c-0.501,3.648,0.467,7.345,2.692,10.279v0
			c2.225,2.934,3.194,6.631,2.692,10.279l-6.684,48.658l19.94,2.739l1.557-11.331L560.584,433.268z"/>
		<path class="st15" d="M588.911,451.606c-0.131,0-0.263-0.009-0.395-0.027l-47.356-6.506c-1.588-0.218-2.698-1.682-2.48-3.269
			c1.463-10.65,0.119-16-11.473-17.592c-1.588-0.218-2.698-1.682-2.48-3.269l12.376-90.095c0.105-0.763,0.508-1.452,1.121-1.917
			c0.613-0.465,1.386-0.668,2.148-0.563l5.204,0.715c7.002,0.962,13.53,3.912,18.878,8.533l27.187,23.487
			c6.847,5.915,10.199,14.797,8.968,23.761l-8.825,64.237c-0.105,0.763-0.508,1.452-1.121,1.917
			C590.157,451.401,589.54,451.606,588.911,451.606z M544.763,439.711l41.668,5.724l8.43-61.362
			c0.963-7.009-1.659-13.955-7.013-18.58l-27.187-23.487c-4.497-3.885-9.986-6.366-15.874-7.174l-2.33-0.32l-11.601,84.452
			C543.818,421.779,545.619,430.312,544.763,439.711z M572.767,437.772c-0.476,0-0.954-0.033-1.434-0.098l-11.144-1.531
			c-5.67-0.779-9.65-6.026-8.871-11.696l7.081-51.542c0.631-4.594,3.598-8.315,7.936-9.952c4.338-1.639,9.024-0.806,12.533,2.227
			l5.297,4.576c3.904,3.373,5.816,8.438,5.114,13.549l-6.25,45.497c-0.377,2.747-1.802,5.182-4.011,6.858
			C577.195,437.044,575.017,437.772,572.767,437.772z M570.763,367.943c-0.793,0-1.596,0.145-2.379,0.44
			c-2.316,0.874-3.899,2.86-4.236,5.312l-7.081,51.542c-0.343,2.5,1.411,4.814,3.911,5.157l0,0l11.144,1.531
			c1.212,0.167,2.415-0.149,3.388-0.888c0.974-0.739,1.602-1.813,1.769-3.023l6.25-45.497c0.434-3.157-0.747-6.285-3.159-8.369
			l-5.297-4.576C573.834,368.5,572.318,367.943,570.763,367.943z"/>
		
			<rect x="547.403" y="392.135" transform="matrix(0.1361 -0.9907 0.9907 0.1361 93.1428 899.6929)" class="st13" width="30.074" height="8.61"/>
		<path class="st15" d="M564.659,414.825c-0.131,0-0.264-0.009-0.395-0.027l-8.53-1.172c-1.588-0.218-2.698-1.682-2.48-3.269
			l4.093-29.795c0.105-0.763,0.508-1.452,1.121-1.917c0.613-0.465,1.386-0.667,2.148-0.563l8.53,1.172
			c1.588,0.218,2.698,1.682,2.48,3.269l-4.093,29.795c-0.105,0.763-0.508,1.452-1.121,1.917
			C565.905,414.62,565.288,414.825,564.659,414.825z M559.398,408.272l2.781,0.382l3.303-24.046l-2.781-0.382L559.398,408.272z"/>
		
			<rect x="482.542" y="369.664" transform="matrix(0.1361 -0.9907 0.9907 0.1361 84.1495 847.4916)" class="st17" width="90.941" height="11.663"/>
		<path class="st15" d="M527.605,424.239c-0.132,0-0.264-0.009-0.399-0.027l-11.555-1.587c-0.762-0.105-1.452-0.508-1.917-1.121
			c-0.465-0.613-0.668-1.386-0.563-2.148l12.377-90.095c0.218-1.588,1.681-2.697,3.269-2.48l11.554,1.587
			c1.588,0.218,2.698,1.682,2.48,3.269l-12.376,90.095C530.276,423.185,529.032,424.239,527.605,424.239z M519.316,417.27
			l5.805,0.798l11.587-84.345l-5.805-0.798L519.316,417.27z"/>
	</g>
	<path class="st15" d="M643.658,785.668c-21.328,0-38.679-17.352-38.679-38.679V475.622c0-8.431-6.859-15.29-15.29-15.29h-1.976
		v-5.803h1.976c11.631,0,21.093,9.463,21.093,21.093v271.368c0,18.128,14.748,32.876,32.876,32.876
		c18.128,0,32.876-14.748,32.876-32.876v-40.798h5.803v40.798C682.337,768.317,664.986,785.668,643.658,785.668z"/>
</g>
<g>
	<rect x="203.99" y="454.114" class="st18" width="254.729" height="351.527"/>
	<rect x="203.99" y="454.114" class="st19" width="254.729" height="63.852"/>
	<rect x="203.99" y="454.114" class="st16" width="254.729" height="10.189"/>
	<path class="st15" d="M458.719,808.542H203.99c-1.602,0-2.902-1.299-2.902-2.902V454.114c0-1.602,1.299-2.902,2.902-2.902h254.729
		c1.602,0,2.902,1.299,2.902,2.902v351.527C461.621,807.244,460.322,808.542,458.719,808.542z M206.892,802.739h248.926V457.016
		H206.892V802.739z"/>
	<g>
		<circle class="st20" cx="337.468" cy="647.369" r="77.438"/>
		<circle class="st21" cx="331.355" cy="637.18" r="77.438"/>
		<path class="st15" d="M331.355,717.519c-44.299,0-80.339-36.04-80.339-80.339s36.04-80.339,80.339-80.339
			s80.339,36.04,80.339,80.339S375.654,717.519,331.355,717.519z M331.355,562.643c-41.099,0-74.536,33.437-74.536,74.536
			s33.437,74.536,74.536,74.536s74.536-33.437,74.536-74.536S372.454,562.643,331.355,562.643z"/>
		<path class="st11" d="M354.898,637.18c0-14.565,5.788-27.771,15.176-37.47c-9.798-10.122-23.518-16.425-38.719-16.425
			c-29.765,0-53.895,24.129-53.895,53.895c0,29.765,24.129,53.895,53.895,53.895c15.2,0,28.921-6.302,38.719-16.425
			C360.685,664.95,354.898,651.745,354.898,637.18z"/>
		<path class="st22" d="M370.074,674.65c-9.388-9.699-15.176-22.905-15.176-37.47c0-2.783,0.215-5.515,0.622-8.183
			c-6.928-4.59-15.232-7.27-24.165-7.27c-24.197,0-43.813,19.616-43.813,43.813c0,1.073,0.052,2.133,0.128,3.186
			c9.791,13.535,25.704,22.349,43.686,22.349C346.555,691.074,360.276,684.772,370.074,674.65z"/>
		<path class="st15" d="M331.355,693.976c-31.318,0-56.796-25.479-56.796-56.796s25.479-56.796,56.796-56.796
			c15.509,0,30,6.147,40.804,17.308c1.089,1.126,1.089,2.911,0,4.037c-9.26,9.566-14.359,22.156-14.359,35.451
			c0,13.295,5.099,25.885,14.359,35.451c1.089,1.125,1.089,2.911,0,4.036C361.356,687.829,346.865,693.976,331.355,693.976z
			 M331.355,586.186c-28.118,0-50.993,22.875-50.993,50.993c0,28.118,22.876,50.993,50.993,50.993
			c13.009,0,25.222-4.819,34.681-13.626c-9.075-10.361-14.04-23.52-14.04-37.368s4.964-27.006,14.04-37.367
			C356.576,591.005,344.364,586.186,331.355,586.186z"/>
		<circle class="st10" cx="331.355" cy="601.623" r="7.367"/>
		<circle class="st10" cx="306.901" cy="629.093" r="7.367"/>
	</g>
	<rect x="203.99" y="773.478" class="st15" width="254.729" height="3.869"/>
	<rect x="203.99" y="516.032" class="st15" width="254.729" height="3.869"/>
	<g>
		<circle class="st18" cx="414.906" cy="486.04" r="16.812"/>
		<path class="st15" d="M414.906,505.754c-10.87,0-19.713-8.843-19.713-19.714s8.843-19.714,19.713-19.714
			c10.87,0,19.714,8.843,19.714,19.714S425.776,505.754,414.906,505.754z M414.906,472.13c-7.67,0-13.91,6.24-13.91,13.911
			s6.24,13.911,13.91,13.911s13.911-6.24,13.911-13.911S422.576,472.13,414.906,472.13z"/>
	</g>
	<g>
		<circle class="st18" cx="367.696" cy="497.588" r="8.151"/>
		<path class="st15" d="M367.696,508.641c-6.095,0-11.053-4.958-11.053-11.053s4.958-11.053,11.053-11.053
			c6.094,0,11.053,4.958,11.053,11.053S373.791,508.641,367.696,508.641z M367.696,492.339c-2.895,0-5.25,2.355-5.25,5.25
			s2.355,5.25,5.25,5.25c2.894,0,5.25-2.355,5.25-5.25S370.591,492.339,367.696,492.339z"/>
	</g>
	<rect x="364.795" y="469.228" class="st15" width="5.803" height="20.209"/>
	<rect x="328.453" y="469.228" class="st15" width="5.803" height="38.209"/>
	<g>
		<circle class="st18" cx="331.355" cy="485.531" r="8.151"/>
		<path class="st15" d="M331.355,496.584c-6.095,0-11.053-4.959-11.053-11.054s4.958-11.053,11.053-11.053
			c6.094,0,11.053,4.958,11.053,11.053S337.449,496.584,331.355,496.584z M331.355,480.281c-2.895,0-5.25,2.355-5.25,5.25
			s2.355,5.251,5.25,5.251c2.894,0,5.25-2.356,5.25-5.251S334.249,480.281,331.355,480.281z"/>
	</g>
	<rect x="226.067" y="474.323" class="st11" width="49.587" height="23.435"/>
	<rect x="226.067" y="474.323" class="st10" width="49.587" height="8.661"/>
	<path class="st15" d="M275.654,500.66h-49.587c-1.602,0-2.902-1.299-2.902-2.902v-23.435c0-1.603,1.299-2.902,2.902-2.902h49.587
		c1.602,0,2.902,1.299,2.902,2.902v23.435C278.556,499.361,277.256,500.66,275.654,500.66z M228.968,494.857h43.784v-17.632h-43.784
		V494.857z"/>
	<path class="st16" d="M223.349,620.475c-2.404,0-4.352-1.948-4.352-4.352v-77.948c0-2.404,1.949-4.352,4.352-4.352
		s4.352,1.948,4.352,4.352v77.948C227.702,618.526,225.753,620.475,223.349,620.475z"/>
	<path class="st16" d="M223.349,651.721c-2.404,0-4.352-1.948-4.352-4.352V637.18c0-2.404,1.949-4.352,4.352-4.352
		s4.352,1.949,4.352,4.352v10.189C227.702,649.773,225.753,651.721,223.349,651.721z"/>
</g>
<g>
	<g>
		<rect x="782.215" y="802.739" class="st15" width="34.736" height="5.803"/>
		<rect x="591.205" y="802.739" class="st15" width="34.736" height="5.803"/>
	</g>
	<g>
		<path class="st12" d="M502.605,469.478v24.825h390.533c6.855,0,12.412-5.557,12.412-12.412v0c0-6.855-5.557-12.412-12.412-12.412
			H502.605z"/>
		<g>
			<path class="st23" d="M710.433,473.978c0,3.303,2.678,5.981,5.981,5.981c3.303,0,5.981-2.678,5.981-5.981
				c0-1.797-0.796-3.404-2.05-4.5h-7.861C711.229,470.574,710.433,472.182,710.433,473.978z"/>
			<path class="st23" d="M611.751,473.978c0,3.303,2.678,5.981,5.981,5.981c3.303,0,5.981-2.678,5.981-5.981
				c0-1.797-0.796-3.404-2.05-4.5h-7.861C612.547,470.574,611.751,472.182,611.751,473.978z"/>
			<path class="st23" d="M661.092,473.978c0,3.303,2.678,5.981,5.981,5.981c3.303,0,5.981-2.678,5.981-5.981
				c0-1.797-0.796-3.404-2.05-4.5h-7.861C661.888,470.574,661.092,472.182,661.092,473.978z"/>
			<path class="st23" d="M685.762,473.978c0,3.303,2.678,5.981,5.981,5.981c3.303,0,5.981-2.678,5.981-5.981
				c0-1.797-0.796-3.404-2.05-4.5h-7.861C686.558,470.574,685.762,472.182,685.762,473.978z"/>
			<path class="st23" d="M636.421,473.978c0,3.303,2.678,5.981,5.981,5.981c3.303,0,5.981-2.678,5.981-5.981
				c0-1.797-0.796-3.404-2.05-4.5h-7.861C637.217,470.574,636.421,472.182,636.421,473.978z"/>
			<path class="st23" d="M587.08,473.978c0,3.303,2.678,5.981,5.981,5.981s5.981-2.678,5.981-5.981c0-1.797-0.796-3.404-2.05-4.5
				h-7.861C587.876,470.574,587.08,472.182,587.08,473.978z"/>
			<path class="st23" d="M537.739,473.978c0,3.303,2.678,5.981,5.981,5.981s5.981-2.678,5.981-5.981c0-1.797-0.796-3.404-2.05-4.5
				h-7.861C538.535,470.574,537.739,472.182,537.739,473.978z"/>
			<path class="st23" d="M562.41,473.978c0,3.303,2.678,5.981,5.981,5.981s5.981-2.678,5.981-5.981c0-1.797-0.796-3.404-2.05-4.5
				h-7.861C563.206,470.574,562.41,472.182,562.41,473.978z"/>
			<path class="st23" d="M513.069,473.978c0,3.303,2.678,5.981,5.981,5.981c3.303,0,5.981-2.678,5.981-5.981
				c0-1.797-0.796-3.404-2.05-4.5h-7.861C513.865,470.574,513.069,472.182,513.069,473.978z"/>
			<path class="st23" d="M833.785,473.978c0,3.303,2.678,5.981,5.981,5.981c3.303,0,5.981-2.678,5.981-5.981
				c0-1.797-0.796-3.404-2.05-4.5h-7.861C834.582,470.574,833.785,472.182,833.785,473.978z"/>
			<path class="st23" d="M858.456,473.978c0,3.303,2.678,5.981,5.981,5.981c3.303,0,5.981-2.678,5.981-5.981
				c0-1.797-0.796-3.404-2.05-4.5h-7.861C859.252,470.574,858.456,472.182,858.456,473.978z"/>
			<path class="st23" d="M883.126,473.978c0,3.303,2.678,5.981,5.981,5.981c3.303,0,5.981-2.678,5.981-5.981
				c0-1.797-0.796-3.404-2.05-4.5h-7.861C883.923,470.574,883.126,472.182,883.126,473.978z"/>
			<path class="st23" d="M784.444,473.978c0,3.303,2.678,5.981,5.981,5.981s5.981-2.678,5.981-5.981c0-1.797-0.796-3.404-2.05-4.5
				h-7.861C785.241,470.574,784.444,472.182,784.444,473.978z"/>
			<path class="st23" d="M759.774,473.978c0,3.303,2.678,5.981,5.981,5.981s5.981-2.678,5.981-5.981c0-1.797-0.796-3.404-2.05-4.5
				h-7.861C760.57,470.574,759.774,472.182,759.774,473.978z"/>
			<path class="st23" d="M809.115,473.978c0,3.303,2.678,5.981,5.981,5.981c3.303,0,5.981-2.678,5.981-5.981
				c0-1.797-0.796-3.404-2.05-4.5h-7.861C809.911,470.574,809.115,472.182,809.115,473.978z"/>
			<path class="st23" d="M735.103,473.978c0,3.303,2.678,5.981,5.981,5.981s5.981-2.678,5.981-5.981c0-1.797-0.796-3.404-2.05-4.5
				h-7.861C735.9,470.574,735.103,472.182,735.103,473.978z"/>
			<path class="st23" d="M905.119,485.092c-1.015-0.793-2.289-1.27-3.676-1.27c-3.303,0-5.981,2.678-5.981,5.981
				c0,1.496,0.553,2.86,1.461,3.909C900.924,492.431,904.03,489.175,905.119,485.092z"/>
			<path class="st23" d="M710.059,489.802c0-3.303-2.678-5.981-5.981-5.981c-3.303,0-5.981,2.678-5.981,5.981
				c0,1.797,0.796,3.404,2.05,4.5h7.861C709.263,493.207,710.059,491.599,710.059,489.802z"/>
			<path class="st23" d="M808.741,489.802c0-3.303-2.678-5.981-5.981-5.981c-3.303,0-5.981,2.678-5.981,5.981
				c0,1.797,0.796,3.404,2.05,4.5h7.861C807.945,493.207,808.741,491.599,808.741,489.802z"/>
			<path class="st23" d="M759.4,489.802c0-3.303-2.678-5.981-5.981-5.981s-5.981,2.678-5.981,5.981c0,1.797,0.796,3.404,2.05,4.5
				h7.861C758.604,493.207,759.4,491.599,759.4,489.802z"/>
			<path class="st23" d="M734.73,489.802c0-3.303-2.678-5.981-5.981-5.981c-3.303,0-5.981,2.678-5.981,5.981
				c0,1.797,0.796,3.404,2.05,4.5h7.861C733.933,493.207,734.73,491.599,734.73,489.802z"/>
			<path class="st23" d="M784.071,489.802c0-3.303-2.678-5.981-5.981-5.981s-5.981,2.678-5.981,5.981c0,1.797,0.796,3.404,2.05,4.5
				h7.861C783.274,493.207,784.071,491.599,784.071,489.802z"/>
			<path class="st23" d="M882.753,489.802c0-3.303-2.678-5.981-5.981-5.981c-3.303,0-5.981,2.678-5.981,5.981
				c0,1.797,0.796,3.404,2.05,4.5h7.861C881.956,493.207,882.753,491.599,882.753,489.802z"/>
			<path class="st23" d="M858.082,489.802c0-3.303-2.678-5.981-5.981-5.981c-3.303,0-5.981,2.678-5.981,5.981
				c0,1.797,0.796,3.404,2.05,4.5h7.861C857.286,493.207,858.082,491.599,858.082,489.802z"/>
			<path class="st23" d="M833.412,489.802c0-3.303-2.678-5.981-5.981-5.981c-3.303,0-5.981,2.678-5.981,5.981
				c0,1.797,0.796,3.404,2.05,4.5h7.861C832.615,493.207,833.412,491.599,833.412,489.802z"/>
			<path class="st23" d="M685.388,489.802c0-3.303-2.678-5.981-5.981-5.981c-3.303,0-5.981,2.678-5.981,5.981
				c0,1.797,0.796,3.404,2.05,4.5h7.861C684.592,493.207,685.388,491.599,685.388,489.802z"/>
			<path class="st23" d="M562.036,489.802c0-3.303-2.678-5.981-5.981-5.981s-5.981,2.678-5.981,5.981c0,1.797,0.796,3.404,2.05,4.5
				h7.861C561.24,493.207,562.036,491.599,562.036,489.802z"/>
			<path class="st23" d="M512.695,489.802c0-3.303-2.678-5.981-5.981-5.981c-1.593,0-3.037,0.627-4.109,1.642v8.677
				c0.058,0.055,0.118,0.109,0.178,0.162h7.861C511.899,493.207,512.695,491.599,512.695,489.802z"/>
			<path class="st23" d="M586.706,489.802c0-3.303-2.678-5.981-5.981-5.981s-5.981,2.678-5.981,5.981c0,1.797,0.796,3.404,2.05,4.5
				h7.861C585.91,493.207,586.706,491.599,586.706,489.802z"/>
			<path class="st23" d="M537.365,489.802c0-3.303-2.678-5.981-5.981-5.981c-3.303,0-5.981,2.678-5.981,5.981
				c0,1.797,0.796,3.404,2.05,4.5h7.861C536.569,493.207,537.365,491.599,537.365,489.802z"/>
			<path class="st23" d="M660.718,489.802c0-3.303-2.678-5.981-5.981-5.981c-3.303,0-5.981,2.678-5.981,5.981
				c0,1.797,0.796,3.404,2.05,4.5h7.861C659.922,493.207,660.718,491.599,660.718,489.802z"/>
			<path class="st23" d="M636.047,489.802c0-3.303-2.678-5.981-5.981-5.981c-3.303,0-5.981,2.678-5.981,5.981
				c0,1.797,0.796,3.404,2.05,4.5h7.861C635.251,493.207,636.047,491.599,636.047,489.802z"/>
			<path class="st23" d="M611.377,489.802c0-3.303-2.678-5.981-5.981-5.981s-5.981,2.678-5.981,5.981c0,1.797,0.796,3.404,2.05,4.5
				h7.861C610.581,493.207,611.377,491.599,611.377,489.802z"/>
		</g>
		<path class="st15" d="M893.139,497.205H502.606c-1.602,0-2.902-1.299-2.902-2.902v-24.826c0-1.603,1.299-2.902,2.902-2.902
			h390.533c8.444,0,15.314,6.87,15.314,15.314S901.583,497.205,893.139,497.205z M505.507,491.402h387.632
			c5.245,0,9.511-4.266,9.511-9.511s-4.266-9.511-9.511-9.511H505.507V491.402z"/>
	</g>
	<polygon class="st12" points="819.889,494.303 634.788,805.641 618.523,805.641 803.624,494.303 	"/>
	<polygon class="st2" points="698.738,670.72 706.871,684.399 700.217,695.59 691.345,683.155 	"/>
	<polygon class="st2" points="796.035,507.068 812.3,507.068 819.89,494.303 803.624,494.303 	"/>
	<path class="st15" d="M634.788,808.542h-16.265c-1.043,0-2.006-0.56-2.522-1.467c-0.516-0.907-0.505-2.02,0.028-2.918
		l185.1-311.338c0.523-0.879,1.472-1.419,2.494-1.419h16.265c1.044,0,2.006,0.56,2.522,1.467c0.516,0.907,0.505,2.02-0.027,2.918
		L637.282,807.124C636.759,808.003,635.812,808.542,634.788,808.542z M623.624,802.739h9.514l181.651-305.535h-9.514
		L623.624,802.739z"/>
	<polygon class="st12" points="593.852,494.303 778.953,805.641 795.219,805.641 610.118,494.303 	"/>
	<polygon class="st2" points="610.118,494.303 593.852,494.303 601.441,507.068 617.707,507.068 	"/>
	<path class="st15" d="M795.219,808.542h-16.266c-1.023,0-1.971-0.539-2.494-1.419l-185.1-311.338
		c-0.533-0.897-0.544-2.011-0.028-2.918c0.516-0.907,1.479-1.467,2.522-1.467h16.265c1.023,0,1.971,0.539,2.494,1.419
		l185.102,311.338c0.533,0.896,0.543,2.011,0.027,2.918C797.225,807.982,796.263,808.542,795.219,808.542z M780.603,802.739h9.516
		L608.467,497.205h-9.514L780.603,802.739z"/>
</g>
<g>
	<path class="st24" d="M883.107,450.239L883.107,450.239c0-2.14-1.735-3.875-3.875-3.875h-82.741
		c-6.383,0-11.557,5.174-11.557,11.557v0c0,6.383,5.174,11.557,11.557,11.557h82.741c2.14,0,3.875-1.735,3.875-3.875l0,0
		c0-2.14-1.735-3.875-3.875-3.875h-79.249c-2.102,0-3.806-1.704-3.806-3.806l0,0c0-2.102,1.704-3.806,3.806-3.806h79.249
		C881.372,454.114,883.107,452.379,883.107,450.239z"/>
	<path class="st24" d="M879.232,454.114h-79.249c-2.102,0-3.806,1.704-3.806,3.806c0,2.102,1.704,3.806,3.806,3.806h79.249
		c2.14,0,3.875,1.735,3.875,3.875v-15.364C883.107,452.379,881.372,454.114,879.232,454.114z"/>
	<path class="st15" d="M883.107,468.504c-1.603,0-2.901-1.299-2.901-2.902c0-0.536-0.437-0.974-0.974-0.974v-5.803
		c0.331,0,0.656,0.024,0.974,0.07v-1.949c-0.318,0.046-0.643,0.07-0.974,0.07v-5.803c0.536,0,0.974-0.437,0.974-0.974
		c0-1.602,1.299-2.902,2.901-2.902c1.603,0,2.902,1.299,2.902,2.902v15.363C886.009,467.205,884.71,468.504,883.107,468.504z"/>
	<path class="st15" d="M839.642,464.628h-39.659c-3.699,0-6.708-3.009-6.708-6.708c0-3.699,3.009-6.708,6.708-6.708h9.09v5.803
		h-9.09c-0.499,0-0.905,0.406-0.905,0.905c0,0.499,0.406,0.905,0.905,0.905h39.659V464.628z"/>
	<path class="st15" d="M879.232,472.379h-82.74c-7.973,0-14.459-6.486-14.459-14.459s6.486-14.459,14.459-14.459h82.74
		c3.737,0,6.777,3.04,6.777,6.777s-3.04,6.777-6.777,6.777h-58.4v-5.803h58.4c0.536,0,0.974-0.437,0.974-0.974
		c0-0.537-0.437-0.974-0.974-0.974h-82.74c-4.773,0-8.655,3.883-8.655,8.656c0,4.773,3.883,8.656,8.655,8.656h82.74
		c0.536,0,0.974-0.436,0.974-0.974c0-0.536-0.437-0.974-0.974-0.974h-26.122v-5.803h26.122c3.737,0,6.777,3.04,6.777,6.777
		S882.968,472.379,879.232,472.379z"/>
</g>
<g>
	<path class="st7" d="M883.107,427.124L883.107,427.124c0-2.14-1.735-3.875-3.875-3.875h-82.741
		c-6.383,0-11.557,5.174-11.557,11.557v0c0,6.383,5.174,11.557,11.557,11.557h82.741c2.14,0,3.875-1.735,3.875-3.875v0
		c0-2.14-1.735-3.875-3.875-3.875h-79.249c-2.102,0-3.806-1.704-3.806-3.806v0c0-2.102,1.704-3.806,3.806-3.806h79.249
		C881.372,431,883.107,429.264,883.107,427.124z"/>
	<path class="st7" d="M879.232,431h-79.249c-2.102,0-3.806,1.704-3.806,3.806c0,2.102,1.704,3.806,3.806,3.806h79.249
		c2.14,0,3.875,1.735,3.875,3.875v-15.364C883.107,429.264,881.372,431,879.232,431z"/>
	<path class="st15" d="M883.107,445.389c-1.603,0-2.901-1.299-2.901-2.902c0-0.537-0.437-0.974-0.974-0.974v-5.803
		c0.331,0,0.656,0.024,0.974,0.07v-1.949c-0.318,0.046-0.643,0.07-0.974,0.07v-5.803c0.536,0,0.974-0.437,0.974-0.974
		c0-1.602,1.299-2.902,2.901-2.902c1.603,0,2.902,1.299,2.902,2.902v15.364C886.009,444.09,884.71,445.389,883.107,445.389z"/>
	<path class="st15" d="M839.642,441.514h-39.659c-3.699,0-6.708-3.009-6.708-6.708s3.009-6.708,6.708-6.708h9.09v5.803h-9.09
		c-0.499,0-0.905,0.406-0.905,0.905c0,0.499,0.406,0.905,0.905,0.905h39.659V441.514z"/>
	<path class="st15" d="M879.232,449.265h-82.74c-7.973,0-14.459-6.486-14.459-14.459s6.486-14.459,14.459-14.459h82.74
		c3.737,0,6.777,3.04,6.777,6.777c0,3.737-3.04,6.777-6.777,6.777h-58.4v-5.803h58.4c0.536,0,0.974-0.437,0.974-0.974
		c0-0.537-0.437-0.974-0.974-0.974h-82.74c-4.773,0-8.655,3.883-8.655,8.656c0,4.773,3.883,8.656,8.655,8.656h82.74
		c0.536,0,0.974-0.437,0.974-0.974s-0.437-0.974-0.974-0.974h-26.122v-5.803h26.122c3.737,0,6.777,3.04,6.777,6.777
		C886.009,446.225,882.968,449.265,879.232,449.265z"/>
</g>
<g>
	<path class="st5" d="M883.107,404.241L883.107,404.241c0-2.14-1.735-3.875-3.875-3.875h-82.741
		c-6.383,0-11.557,5.174-11.557,11.557v0c0,6.383,5.174,11.557,11.557,11.557h82.741c2.14,0,3.875-1.735,3.875-3.875l0,0
		c0-2.14-1.735-3.875-3.875-3.875h-79.249c-2.102,0-3.806-1.704-3.806-3.806l0,0c0-2.102,1.704-3.806,3.806-3.806h79.249
		C881.372,408.117,883.107,406.382,883.107,404.241z"/>
	<path class="st5" d="M879.232,408.117h-79.249c-2.102,0-3.806,1.704-3.806,3.806c0,2.102,1.704,3.806,3.806,3.806h79.249
		c2.14,0,3.875,1.735,3.875,3.875v-15.364C883.107,406.382,881.372,408.117,879.232,408.117z"/>
	<path class="st15" d="M883.107,422.507c-1.603,0-2.901-1.299-2.901-2.902c0-0.537-0.437-0.974-0.974-0.974v-5.803
		c0.331,0,0.656,0.024,0.974,0.07v-1.949c-0.318,0.046-0.643,0.07-0.974,0.07v-5.803c0.536,0,0.974-0.437,0.974-0.974
		c0-1.602,1.299-2.902,2.901-2.902c1.603,0,2.902,1.299,2.902,2.902v15.364C886.009,421.207,884.71,422.507,883.107,422.507z"/>
	<path class="st15" d="M839.642,418.631h-39.659c-3.699,0-6.708-3.009-6.708-6.708s3.009-6.708,6.708-6.708h9.09v5.803h-9.09
		c-0.499,0-0.905,0.406-0.905,0.905c0,0.499,0.406,0.905,0.905,0.905h39.659V418.631z"/>
	<path class="st15" d="M879.232,426.382h-82.74c-7.973,0-14.459-6.486-14.459-14.459s6.486-14.459,14.459-14.459h82.74
		c3.737,0,6.777,3.04,6.777,6.777s-3.04,6.777-6.777,6.777h-58.4v-5.803h58.4c0.536,0,0.974-0.437,0.974-0.974
		c0-0.537-0.437-0.974-0.974-0.974h-82.74c-4.773,0-8.655,3.883-8.655,8.656c0,4.773,3.883,8.656,8.655,8.656h82.74
		c0.536,0,0.974-0.437,0.974-0.974s-0.437-0.974-0.974-0.974h-26.122v-5.803h26.122c3.737,0,6.777,3.04,6.777,6.777
		C886.009,423.342,882.968,426.382,879.232,426.382z"/>
</g>
<rect x="75" y="802.739" class="st15" width="1250" height="5.803"/>
<g>
	<g>
		<rect x="501.905" y="697.496" class="st7" width="32.259" height="15.475"/>
		<path class="st15" d="M534.164,715.872h-32.258c-1.602,0-2.902-1.299-2.902-2.902v-15.475c0-1.603,1.299-2.901,2.902-2.901h32.258
			c1.602,0,2.902,1.299,2.902,2.901v15.475C537.065,714.574,535.766,715.872,534.164,715.872z M504.807,710.069h26.455v-9.672
			h-26.455V710.069z"/>
	</g>
	<path class="st24" d="M545.308,720.889h-15.25v-7.918h-24.927v9.384c0,0-38.124,33.432-3.226,83.286c31.379,0,43.402,0,43.402,0
		V779.37l11.02-6.241c5.322-3.013,8.628-8.684,8.628-14.801v-17.576C564.956,719.423,545.308,720.889,545.308,720.889z
		 M556.158,758.328c0,2.953-1.596,5.691-4.165,7.146l-6.685,3.786v-36.718h2.639c4.528,0,8.211,3.683,8.211,8.211V758.328z"/>
	<path class="st15" d="M545.307,808.542h-43.402c-0.947,0-1.834-0.462-2.377-1.237c-18.736-26.766-16.775-49.017-11.832-62.971
		c4.429-12.501,11.854-20.591,14.533-23.229v-8.134c0-1.603,1.299-2.902,2.902-2.902h24.927c1.602,0,2.902,1.299,2.902,2.902v5.016
		h12.259c1.199-0.06,9.823-0.316,16.143,5.55c4.31,4.001,6.495,9.793,6.495,17.216v17.576c0,7.159-3.87,13.798-10.1,17.325
		l-9.549,5.407v24.58C548.209,807.244,546.91,808.542,545.307,808.542z M503.429,802.739h38.977v-23.37
		c0-1.046,0.563-2.01,1.472-2.525l11.021-6.24c4.414-2.499,7.156-7.203,7.156-12.276v-17.576c0-5.722-1.549-10.071-4.605-12.929
		c-4.774-4.466-11.865-4.045-11.937-4.041c-0.064,0.005-0.14,0.008-0.205,0.008h-15.249c-1.602,0-2.902-1.299-2.902-2.902v-5.016
		h-19.124v6.483c0,0.836-0.36,1.63-0.988,2.182c-0.087,0.077-9.151,8.191-13.963,21.975
		C486.807,764.488,490.289,783.398,503.429,802.739z M545.307,772.162c-0.505,0-1.01-0.131-1.461-0.395
		c-0.892-0.519-1.44-1.474-1.44-2.507v-36.719c0-1.603,1.299-2.902,2.902-2.902h2.639c6.128,0,11.113,4.985,11.113,11.113v17.576
		c0,3.996-2.16,7.702-5.637,9.67l-6.685,3.787C546.294,772.036,545.801,772.162,545.307,772.162z M548.209,735.449v28.833
		l2.354-1.334c1.661-0.941,2.693-2.711,2.693-4.621v-17.576C553.257,737.913,551.016,735.586,548.209,735.449z"/>
	<rect x="503.005" y="740.171" class="st16" width="32.259" height="24.634"/>
	<path class="st15" d="M535.264,766.739h-32.258c-1.068,0-1.934-0.866-1.934-1.934v-24.634c0-1.068,0.866-1.934,1.934-1.934h32.258
		c1.068,0,1.934,0.866,1.934,1.934v24.634C537.198,765.873,536.332,766.739,535.264,766.739z M504.94,762.87h28.39v-20.765h-28.39
		V762.87z"/>
	<g>
		<rect x="509.567" y="744.527" class="st3" width="19.135" height="5.803"/>
		<rect x="509.567" y="754.645" class="st3" width="19.135" height="5.803"/>
	</g>
</g>
<g>
	<g>
		<path class="st15" d="M165.188,677.362c-10.474,0-18.994-8.521-18.994-18.995s8.52-18.994,18.994-18.994
			s18.995,8.52,18.995,18.994S175.662,677.362,165.188,677.362z M165.188,645.176c-7.274,0-13.191,5.917-13.191,13.191
			s5.917,13.192,13.191,13.192c7.274,0,13.192-5.918,13.192-13.192S172.462,645.176,165.188,645.176z"/>
		<path class="st12" d="M89.399,683.664v6.238h151.578v-6.238l-59.696-18.603c-10.48-3.266-21.706-3.266-32.186,0L89.399,683.664z"
			/>
		<path class="st15" d="M240.978,692.803H89.4c-1.603,0-2.902-1.299-2.902-2.902v-6.238c0-1.27,0.826-2.392,2.038-2.77
			l59.696-18.603c11.094-3.457,22.82-3.457,33.913,0l59.696,18.603c1.213,0.378,2.038,1.5,2.038,2.77v6.238
			C243.88,691.504,242.581,692.803,240.978,692.803z M92.301,687h145.775v-1.201l-57.658-17.967c-9.964-3.106-20.498-3.105-30.46,0
			l-57.658,17.967V687z"/>
	</g>
	<polygon class="st12" points="116.813,805.641 213.564,805.641 232.872,689.901 97.505,689.901 	"/>
	<polygon class="st2" points="223.218,689.901 206.664,805.641 213.564,805.641 232.872,689.901 	"/>
	<polygon class="st2" points="231.319,699.211 232.872,689.901 97.505,689.901 99.058,699.211 	"/>
	<path class="st15" d="M213.564,808.542h-96.75c-1.419,0-2.629-1.025-2.862-2.424l-19.309-115.74
		c-0.141-0.842,0.096-1.702,0.648-2.353c0.552-0.652,1.361-1.027,2.214-1.027h135.367c0.853,0,1.662,0.375,2.214,1.027
		c0.552,0.651,0.789,1.511,0.648,2.353l-19.309,115.74C216.192,807.518,214.982,808.542,213.564,808.542z M119.271,802.739h91.835
		l18.341-109.936H100.93L119.271,802.739z"/>
	<g>
		<g>
			<path class="st2" d="M114.004,729.183c-0.742,0-1.485-0.283-2.051-0.85c-1.133-1.132-1.133-2.971,0-4.103l6.408-6.408
				c1.133-1.133,2.97-1.133,4.103,0c1.133,1.133,1.133,2.971,0,4.103l-6.408,6.408C115.489,728.9,114.747,729.183,114.004,729.183z"
				/>
			<path class="st2" d="M137.995,729.183c-0.742,0-1.485-0.283-2.051-0.85c-1.133-1.132-1.133-2.97,0-4.103l6.407-6.408
				c1.132-1.133,2.97-1.133,4.103,0c1.133,1.133,1.133,2.97,0,4.103l-6.407,6.408C139.481,728.9,138.737,729.183,137.995,729.183z"
				/>
			<path class="st2" d="M161.985,729.183c-0.742,0-1.485-0.283-2.051-0.85c-1.133-1.132-1.133-2.971,0-4.103l6.408-6.408
				c1.133-1.133,2.97-1.133,4.103,0c1.133,1.133,1.133,2.971,0,4.103l-6.408,6.408C163.469,728.9,162.727,729.183,161.985,729.183z"
				/>
			<path class="st2" d="M185.975,729.183c-0.742,0-1.485-0.283-2.051-0.85c-1.133-1.132-1.133-2.971,0-4.103l6.408-6.408
				c1.133-1.133,2.97-1.133,4.103,0c1.133,1.133,1.133,2.971,0,4.103l-6.408,6.408C187.46,728.9,186.718,729.183,185.975,729.183z"
				/>
			<path class="st2" d="M209.966,729.183c-0.742,0-1.485-0.283-2.051-0.85c-1.133-1.132-1.133-2.97,0-4.103l6.407-6.408
				c1.132-1.133,2.97-1.133,4.103,0c1.133,1.133,1.133,2.97,0,4.103l-6.407,6.408C211.452,728.9,210.708,729.183,209.966,729.183z"
				/>
		</g>
		<g>
			<path class="st2" d="M126,751.153c-0.742,0-1.485-0.283-2.051-0.85c-1.133-1.132-1.133-2.971,0-4.103l6.408-6.408
				c1.133-1.133,2.97-1.133,4.103,0c1.133,1.133,1.133,2.971,0,4.103l-6.408,6.408C127.484,750.87,126.742,751.153,126,751.153z"/>
			<path class="st2" d="M149.99,751.153c-0.742,0-1.485-0.283-2.051-0.85c-1.133-1.132-1.133-2.97,0-4.103l6.407-6.408
				c1.132-1.133,2.97-1.133,4.103,0c1.133,1.133,1.133,2.97,0,4.103l-6.407,6.408C151.476,750.87,150.733,751.153,149.99,751.153z"
				/>
			<path class="st2" d="M173.98,751.153c-0.742,0-1.485-0.283-2.051-0.85c-1.133-1.132-1.133-2.971,0-4.103l6.408-6.408
				c1.133-1.133,2.97-1.133,4.103,0c1.133,1.133,1.133,2.971,0,4.103l-6.408,6.408C175.465,750.87,174.722,751.153,173.98,751.153z"
				/>
			<path class="st2" d="M197.971,751.153c-0.742,0-1.485-0.283-2.051-0.85c-1.133-1.132-1.133-2.97,0-4.103l6.407-6.408
				c1.132-1.133,2.97-1.133,4.103,0c1.133,1.133,1.133,2.97,0,4.103l-6.407,6.408C199.456,750.87,198.713,751.153,197.971,751.153z"
				/>
		</g>
		<g>
			<path class="st2" d="M137.995,771.275c-0.742,0-1.485-0.283-2.051-0.85c-1.133-1.132-1.133-2.971,0-4.103l6.407-6.407
				c1.133-1.133,2.97-1.133,4.103,0c1.133,1.132,1.133,2.97,0,4.103l-6.407,6.407C139.48,770.991,138.737,771.275,137.995,771.275z"
				/>
			<path class="st2" d="M161.985,771.275c-0.742,0-1.486-0.283-2.051-0.85c-1.133-1.133-1.133-2.971,0-4.103l6.408-6.407
				c1.133-1.133,2.971-1.133,4.103,0c1.133,1.133,1.133,2.97,0,4.103l-6.408,6.407C163.469,770.991,162.727,771.275,161.985,771.275
				z"/>
			<path class="st2" d="M185.975,771.275c-0.742,0-1.486-0.283-2.051-0.85c-1.133-1.133-1.133-2.971,0-4.103l6.408-6.407
				c1.133-1.133,2.971-1.133,4.103,0c1.133,1.133,1.133,2.97,0,4.103l-6.408,6.407C187.46,770.991,186.718,771.275,185.975,771.275z
				"/>
		</g>
		<g>
			<path class="st2" d="M149.99,789.854c-0.742,0-1.485-0.283-2.051-0.85c-1.133-1.132-1.133-2.97,0-4.103l6.407-6.407
				c1.133-1.133,2.97-1.133,4.103,0c1.133,1.133,1.133,2.971,0,4.103l-6.407,6.407C151.475,789.571,150.733,789.854,149.99,789.854z
				"/>
			<path class="st2" d="M173.98,789.854c-0.742,0-1.486-0.283-2.051-0.85c-1.133-1.133-1.133-2.97,0-4.103l6.408-6.407
				c1.133-1.133,2.971-1.133,4.103,0c1.133,1.133,1.133,2.971,0,4.103l-6.408,6.407C175.465,789.571,174.722,789.854,173.98,789.854
				z"/>
		</g>
	</g>
</g>
<g>
	<path class="st24" d="M358.901,252.251L358.901,252.251c0-2.14-1.735-3.876-3.875-3.876h-82.741
		c-6.383,0-11.557,5.174-11.557,11.557l0,0c0,6.383,5.174,11.557,11.557,11.557h82.741c2.14,0,3.875-1.735,3.875-3.875l0,0
		c0-2.14-1.735-3.875-3.875-3.875h-79.249c-2.102,0-3.806-1.704-3.806-3.806l0,0c0-2.102,1.704-3.806,3.806-3.806h79.249
		C357.166,256.127,358.901,254.392,358.901,252.251z"/>
	<path class="st24" d="M355.025,256.127h-79.249c-2.102,0-3.806,1.704-3.806,3.806s1.704,3.806,3.806,3.806h79.249
		c2.14,0,3.875,1.735,3.875,3.875v-15.364C358.901,254.391,357.166,256.127,355.025,256.127z"/>
	<path class="st3" d="M358.901,270.517c-1.602,0-2.902-1.299-2.902-2.902c0-0.537-0.437-0.974-0.974-0.974v-5.803
		c0.331,0,0.656,0.024,0.974,0.07v-1.949c-0.318,0.046-0.643,0.07-0.974,0.07v-5.803c0.537,0,0.974-0.437,0.974-0.974
		c0-1.602,1.299-2.902,2.902-2.902s2.902,1.299,2.902,2.902v15.364C361.803,269.217,360.503,270.517,358.901,270.517z"/>
	<path class="st3" d="M315.435,266.641h-39.659c-3.699,0-6.708-3.009-6.708-6.708c0-3.699,3.009-6.708,6.708-6.708h9.09v5.803h-9.09
		c-0.499,0-0.905,0.406-0.905,0.905c0,0.499,0.406,0.905,0.905,0.905h39.659V266.641z"/>
	<path class="st3" d="M355.025,274.392h-82.74c-7.973,0-14.459-6.486-14.459-14.459c0-7.973,6.486-14.459,14.459-14.459h82.74
		c3.737,0,6.777,3.04,6.777,6.777s-3.04,6.777-6.777,6.777h-58.4v-5.803h58.4c0.537,0,0.974-0.437,0.974-0.974
		s-0.437-0.974-0.974-0.974h-82.74c-4.773,0-8.656,3.883-8.656,8.656c0,4.773,3.883,8.656,8.656,8.656h82.74
		c0.537,0,0.974-0.437,0.974-0.974c0-0.537-0.437-0.974-0.974-0.974h-26.123v-5.803h26.123c3.737,0,6.777,3.04,6.777,6.777
		C361.803,271.352,358.762,274.392,355.025,274.392z"/>
</g>
<g>
	<path class="st7" d="M358.901,229.136L358.901,229.136c0-2.14-1.735-3.875-3.875-3.875h-82.741
		c-6.383,0-11.557,5.174-11.557,11.557v0c0,6.383,5.174,11.557,11.557,11.557h82.741c2.14,0,3.875-1.735,3.875-3.875l0,0
		c0-2.14-1.735-3.875-3.875-3.875h-79.249c-2.102,0-3.806-1.704-3.806-3.806l0,0c0-2.102,1.704-3.806,3.806-3.806h79.249
		C357.166,233.012,358.901,231.277,358.901,229.136z"/>
	<path class="st7" d="M355.025,233.012h-79.249c-2.102,0-3.806,1.704-3.806,3.806c0,2.102,1.704,3.806,3.806,3.806h79.249
		c2.14,0,3.875,1.735,3.875,3.875v-15.364C358.901,231.277,357.166,233.012,355.025,233.012z"/>
	<path class="st3" d="M358.901,247.402c-1.602,0-2.902-1.299-2.902-2.902c0-0.537-0.437-0.974-0.974-0.974v-5.803
		c0.331,0,0.656,0.024,0.974,0.07v-1.949c-0.318,0.046-0.643,0.07-0.974,0.07v-5.803c0.537,0,0.974-0.437,0.974-0.974
		c0-1.602,1.299-2.902,2.902-2.902s2.902,1.299,2.902,2.902V244.5C361.803,246.102,360.503,247.402,358.901,247.402z"/>
	<path class="st3" d="M315.435,243.526h-39.659c-3.699,0-6.708-3.009-6.708-6.708c0-3.699,3.009-6.708,6.708-6.708h9.09v5.803h-9.09
		c-0.499,0-0.905,0.406-0.905,0.905s0.406,0.905,0.905,0.905h39.659V243.526z"/>
	<path class="st3" d="M355.025,251.277h-82.74c-7.973,0-14.459-6.486-14.459-14.459s6.486-14.459,14.459-14.459h82.74
		c3.737,0,6.777,3.04,6.777,6.777c0,3.737-3.04,6.777-6.777,6.777h-58.4v-5.803h58.4c0.537,0,0.974-0.437,0.974-0.974
		c0-0.537-0.437-0.974-0.974-0.974h-82.74c-4.773,0-8.656,3.883-8.656,8.656c0,4.773,3.883,8.656,8.656,8.656h82.74
		c0.537,0,0.974-0.437,0.974-0.974c0-0.537-0.437-0.974-0.974-0.974h-26.123v-5.803h26.123c3.737,0,6.777,3.04,6.777,6.777
		C361.803,248.237,358.762,251.277,355.025,251.277z"/>
</g>
<g>
	<path class="st5" d="M476.114,252.251L476.114,252.251c0-2.14-1.735-3.876-3.875-3.876h-82.741
		c-6.383,0-11.557,5.174-11.557,11.557l0,0c0,6.383,5.174,11.557,11.557,11.557h82.741c2.14,0,3.875-1.735,3.875-3.875l0,0
		c0-2.14-1.735-3.875-3.875-3.875h-79.249c-2.102,0-3.806-1.704-3.806-3.806l0,0c0-2.102,1.704-3.806,3.806-3.806h79.249
		C474.379,256.127,476.114,254.392,476.114,252.251z"/>
	<path class="st5" d="M472.239,256.127h-79.249c-2.102,0-3.806,1.704-3.806,3.806s1.704,3.806,3.806,3.806h79.249
		c2.14,0,3.875,1.735,3.875,3.875v-15.364C476.114,254.391,474.379,256.127,472.239,256.127z"/>
	<path class="st3" d="M476.114,270.517c-1.602,0-2.902-1.299-2.902-2.902c0-0.537-0.437-0.974-0.974-0.974v-5.803
		c0.331,0,0.656,0.024,0.974,0.07v-1.949c-0.318,0.046-0.643,0.07-0.974,0.07v-5.803c0.537,0,0.974-0.437,0.974-0.974
		c0-1.602,1.299-2.902,2.902-2.902s2.902,1.299,2.902,2.902v15.364C479.016,269.217,477.716,270.517,476.114,270.517z"/>
	<path class="st3" d="M432.648,266.641h-39.659c-3.699,0-6.708-3.009-6.708-6.708c0-3.699,3.009-6.708,6.708-6.708h9.09v5.803h-9.09
		c-0.499,0-0.905,0.406-0.905,0.905c0,0.499,0.406,0.905,0.905,0.905h39.659V266.641z"/>
	<path class="st3" d="M472.239,274.392h-82.741c-7.973,0-14.459-6.486-14.459-14.459c0-7.973,6.486-14.459,14.459-14.459h82.741
		c3.737,0,6.777,3.04,6.777,6.777s-3.04,6.777-6.777,6.777h-58.4v-5.803h58.4c0.537,0,0.974-0.437,0.974-0.974
		s-0.437-0.974-0.974-0.974h-82.741c-4.773,0-8.655,3.883-8.655,8.656c0,4.773,3.883,8.656,8.655,8.656h82.741
		c0.537,0,0.974-0.437,0.974-0.974c0-0.537-0.437-0.974-0.974-0.974h-26.123v-5.803h26.123c3.737,0,6.777,3.04,6.777,6.777
		C479.016,271.352,475.976,274.392,472.239,274.392z"/>
</g>
<g>
	<rect x="248.665" y="271.49" class="st12" width="291.435" height="17.596"/>
	<path class="st3" d="M540.1,291.987H248.665c-1.602,0-2.902-1.299-2.902-2.902V271.49c0-1.602,1.299-2.902,2.902-2.902H540.1
		c1.602,0,2.902,1.299,2.902,2.902v17.595C543.002,290.688,541.702,291.987,540.1,291.987z M251.566,286.184h285.632v-11.792
		H251.566V286.184z"/>
	<g>
		<g>
			<rect x="491.356" y="289.086" class="st2" width="14.121" height="21.555"/>
			<rect x="491.356" y="289.086" class="st17" width="14.121" height="10.777"/>
			<path class="st3" d="M505.476,313.542h-14.12c-1.602,0-2.902-1.299-2.902-2.902v-21.555c0-1.602,1.299-2.902,2.902-2.902h14.12
				c1.602,0,2.902,1.299,2.902,2.902v21.555C508.378,312.243,507.078,313.542,505.476,313.542z M494.257,307.739h8.317v-15.752
				h-8.317V307.739z"/>
		</g>
		<g>
			<rect x="283.288" y="289.086" class="st2" width="14.121" height="21.555"/>
			<rect x="283.288" y="289.086" class="st17" width="14.121" height="10.777"/>
			<path class="st3" d="M297.409,313.542h-14.12c-1.602,0-2.902-1.299-2.902-2.902v-21.555c0-1.602,1.299-2.902,2.902-2.902h14.12
				c1.602,0,2.902,1.299,2.902,2.902v21.555C300.311,312.243,299.011,313.542,297.409,313.542z M286.19,307.739h8.317v-15.752
				h-8.317V307.739z"/>
		</g>
	</g>
</g>
<g>
	<rect x="859.901" y="271.49" class="st12" width="291.435" height="17.596"/>
	<path class="st3" d="M1151.335,291.987H859.9c-1.603,0-2.901-1.299-2.901-2.902V271.49c0-1.602,1.299-2.902,2.901-2.902h291.435
		c1.603,0,2.902,1.299,2.902,2.902v17.595C1154.237,290.688,1152.938,291.987,1151.335,291.987z M862.802,286.184h285.632v-11.792
		H862.802V286.184z"/>
	<g>
		<g>
			<rect x="1102.592" y="289.086" class="st2" width="14.121" height="21.555"/>
			<rect x="1102.592" y="289.086" class="st17" width="14.121" height="10.777"/>
			<path class="st3" d="M1116.712,313.542h-14.12c-1.603,0-2.901-1.299-2.901-2.902v-21.555c0-1.602,1.299-2.902,2.901-2.902h14.12
				c1.603,0,2.901,1.299,2.901,2.902v21.555C1119.614,312.243,1118.315,313.542,1116.712,313.542z M1105.494,307.739h8.317v-15.752
				h-8.317V307.739z"/>
		</g>
		<g>
			<rect x="894.524" y="289.086" class="st2" width="14.121" height="21.555"/>
			<rect x="894.524" y="289.086" class="st17" width="14.121" height="10.777"/>
			<path class="st3" d="M908.645,313.542h-14.12c-1.603,0-2.902-1.299-2.902-2.902v-21.555c0-1.602,1.299-2.902,2.902-2.902h14.12
				c1.603,0,2.902,1.299,2.902,2.902v21.555C911.546,312.243,910.248,313.542,908.645,313.542z M897.426,307.739h8.317v-15.752
				h-8.317V307.739z"/>
		</g>
	</g>
</g>
<g>
	<rect x="1070.705" y="188.577" class="st8" width="14.484" height="23.764"/>
	<path class="st3" d="M1085.189,215.242h-14.484c-1.603,0-2.901-1.299-2.901-2.902v-23.764c0-1.602,1.299-2.902,2.901-2.902h14.484
		c1.603,0,2.901,1.299,2.901,2.902v23.764C1088.091,213.943,1086.792,215.242,1085.189,215.242z M1073.607,209.439h8.681v-17.961
		h-8.681V209.439z"/>
	<path class="st5" d="M1099.988,271.49h-44.081l8.451-59.292c0.457-3.209,3.205-5.593,6.447-5.593h14.285
		c3.241,0,5.989,2.384,6.447,5.593L1099.988,271.49z"/>
	<path class="st25" d="M1091.536,212.198c-0.457-3.209-3.205-5.593-6.447-5.593h-3.046c1.859,0,3.435,2.384,3.698,5.593
		l4.847,59.292h9.399L1091.536,212.198z"/>
	<path class="st3" d="M1099.988,274.392h-44.081c-0.841,0-1.641-0.365-2.191-1c-0.552-0.635-0.8-1.478-0.681-2.311l8.452-59.293
		c0.656-4.609,4.663-8.085,9.319-8.085h14.286c4.656,0,8.662,3.476,9.319,8.085l8.452,59.293c0.119,0.833-0.129,1.676-0.681,2.311
		C1101.629,274.027,1100.828,274.392,1099.988,274.392z M1059.251,268.589h37.392l-7.979-55.982c-0.252-1.768-1.789-3.1-3.574-3.1
		h-14.286c-1.785,0-3.322,1.333-3.574,3.1L1059.251,268.589z"/>
	<path class="st3" d="M1057.729,209.924l-4.103-4.104l2.78-2.779c1.818-1.819,2.82-4.238,2.82-6.81v-5.932h5.803v5.932
		c0,4.122-1.606,7.999-4.52,10.914L1057.729,209.924z"/>
	
		<rect x="1068.586" y="164.582" transform="matrix(0.163 -0.9866 0.9866 0.163 718.0529 1216.5222)" class="st7" width="14.901" height="40.928"/>
	<path class="st3" d="M1095.016,198.634c-0.158,0-0.316-0.013-0.477-0.039l-40.38-6.672c-1.581-0.261-2.65-1.755-2.39-3.336
		l2.428-14.701c0.126-0.759,0.548-1.438,1.173-1.886c0.625-0.449,1.403-0.628,2.163-0.504l40.381,6.672
		c0.759,0.126,1.438,0.547,1.885,1.173c0.449,0.626,0.63,1.404,0.504,2.163l-2.429,14.701
		C1097.64,197.626,1096.41,198.634,1095.016,198.634z M1057.969,186.67l34.654,5.726l1.483-8.976l-34.655-5.726L1057.969,186.67z"/>
	<polygon class="st12" points="1067.951,247.068 1087.943,247.068 1084.84,225.295 1071.055,225.295 	"/>
	<path class="st3" d="M1087.943,249.969h-19.992c-0.841,0-1.641-0.365-2.191-1c-0.552-0.635-0.8-1.478-0.681-2.311l3.104-21.773
		c0.204-1.43,1.428-2.492,2.872-2.492h13.785c1.444,0,2.668,1.062,2.872,2.492l3.104,21.773c0.119,0.833-0.129,1.676-0.681,2.311
		C1089.584,249.604,1088.784,249.969,1087.943,249.969z M1071.296,244.166h13.303l-2.276-15.97h-8.751L1071.296,244.166z"/>
</g>
<g>
	<path class="st2" d="M1026.468,271.49h-75.304l6.152-48.703c1.92-15.202,14.85-26.601,30.172-26.601h2.656
		c15.322,0,28.252,11.399,30.172,26.601L1026.468,271.49z"/>
	<g>
		<path class="st26" d="M1020.316,222.787c-1.92-15.202-14.85-26.601-30.172-26.601h-0.353c11.254,0,20.75,11.399,22.161,26.601
			l4.518,48.703h9.998L1020.316,222.787z"/>
		<path class="st12" d="M987.841,196.186h-0.353c-15.322,0-28.252,11.399-30.172,26.601l-6.152,48.703h9.998l4.518-48.703
			C967.091,207.585,976.587,196.186,987.841,196.186z"/>
	</g>
	<path class="st3" d="M1026.468,274.392h-75.303c-0.833,0-1.625-0.358-2.176-0.983s-0.807-1.456-0.703-2.282l6.152-48.703
		c2.099-16.612,16.307-29.139,33.051-29.139h2.655c16.744,0,30.953,12.527,33.051,29.139l6.152,48.703
		c0.104,0.826-0.152,1.658-0.703,2.282S1027.301,274.392,1026.468,274.392z M954.456,268.589h68.722l-5.74-45.438
		c-1.732-13.718-13.467-24.063-27.294-24.063h-2.655c-13.827,0-25.561,10.345-27.294,24.063L954.456,268.589z"/>
	<circle class="st12" cx="988.816" cy="237.009" r="24.176"/>
	<path class="st3" d="M988.817,264.087c-14.931,0-27.078-12.147-27.078-27.078s12.147-27.078,27.078-27.078
		s27.077,12.147,27.077,27.078S1003.748,264.087,988.817,264.087z M988.817,215.734c-11.731,0-21.275,9.544-21.275,21.275
		s9.544,21.275,21.275,21.275s21.274-9.544,21.274-21.275S1000.548,215.734,988.817,215.734z"/>
	<path class="st3" d="M988.817,239.911h-10.216v-5.803h7.314V221.7h5.803v15.309C991.719,238.611,990.42,239.911,988.817,239.911z"
		/>
</g>
</svg>
