<svg xmlns:xlink="http://www.w3.org/1999/xlink" xmlns="http://www.w3.org/2000/svg" width="160" height="160" viewBox="0 0 160 160">
    <path fill="#3b4a67" fillRule="evenodd" d="M95.383 51.023c1.045-.02 2.194 1.137 2.2 2.213.006 1.162-.988 2.234-2.099 2.264-1.227.033-2.375-1.076-2.366-2.288.007-.991 1.226-2.17 2.265-2.189m-.153 6.234c2.393.02 4.136-1.674 4.134-4.02-.002-2.169-1.83-3.978-4.007-3.964-2.131.014-3.987 1.882-3.986 4.01.002 2.167 1.74 3.956 3.859 3.974m3.126 7.322c-1.991-.962-1.938-1.061-1.935 1.085.005 3.501.004 7.002-.002 10.503 0 .417.046.875-.107 1.238-.12.284-.518.625-.79.623-.28-.002-.656-.336-.81-.621-.146-.271-.071-.668-.071-1.01-.002-3.767.002-7.534.003-11.302V63.45c-1.808.986-3.384 1.72-4.794 2.697-.377.26-.275 1.254-.336 1.917-.066.725.226 1.761-.865 1.778-1.084.016-.79-1.02-.924-1.742-.438-2.368.583-3.722 2.753-4.556 1.442-.555 2.745-1.459 4.165-2.082.482-.211 1.233-.244 1.685-.013 1.925.981 3.81 2.049 5.646 3.187.433.27.794.908.88 1.428.142.851.12 1.757-.009 2.613-.064.427-.516.794-.793 1.188-.3-.36-.603-.72-.9-1.082-.021-.025-.022-.076-.015-.112.477-2.323-.998-3.23-2.781-4.092m9.273 23.927c.075 2.74.075 5.483.08 8.225.001 1.789-.035 3.577-.05 5.366-.007.675-.042 1.436-.925 1.405-.853-.031-.877-.775-.873-1.46.023-3.613.035-7.226.04-10.84 0-.287-.078-.574-.12-.861l-.372-.152c-1.05 1.226-2.284 2.339-3.11 3.7-1.704 2.806-2.888 5.829-2.862 9.21.017 2.129-.145 4.261-.053 6.384.212 4.84 2.076 8.974 5.582 12.341.175.168.409.273.798.527.029-.582.065-.978.065-1.374.006-3.39.002-6.781.01-10.171.002-.642-.089-1.433.876-1.41.872.022.942.736.942 1.414 0 4.495.01 8.99-.032 13.485-.004.426-.252 1.064-.569 1.211-.302.142-.94-.116-1.265-.393-3.66-3.126-6.533-6.807-7.656-11.594-.336-1.431-.452-2.928-.531-4.403-.095-1.747-.092-3.504-.04-5.255.136-4.668 1.297-9 4.482-12.572 1.154-1.294 2.436-2.478 3.719-3.648.283-.26.93-.464 1.198-.314.344.192.655.763.666 1.179m-16.547 5.44c2.047 3.48 2.619 7.205 2.485 11.135-.05 1.467-.012 2.937-.027 4.406-.06 5.973-2.697 10.714-7.01 14.653-.362.331-.666.743-1.067 1.012-.34.229-.866.51-1.158.393-.3-.121-.57-.692-.585-1.077-.064-1.635-.03-3.274-.03-4.912.001-2.932-.01-5.864.017-8.797.005-.604-.138-1.426.888-1.374.921.046.901.758.9 1.424-.005 3.389-.014 6.778-.014 10.167 0 .402.046.804.07 1.206l.316.164c.898-1.042 1.889-2.02 2.678-3.138 2.345-3.328 3.513-7.022 3.282-11.135-.124-2.197.068-4.429-.237-6.595-.56-3.97-1.942-7.639-4.923-10.514-.191-.184-.384-.368-.59-.535-.083-.067-.205-.084-.641-.252 0 1.34-.005 2.553 0 3.766.014 2.84.066 5.68.007 8.517-.007.363-.575.715-.884 1.073-.312-.352-.887-.696-.897-1.055-.069-2.585-.024-5.174-.015-7.761.008-1.979-.012-3.958.044-5.935.015-.49.165-1.278.455-1.385.41-.152 1.105.066 1.506.36 2.26 1.657 3.997 3.754 5.43 6.19m54.484-76.9c-1.916 4.613-3.747 9.263-5.619 13.895-2.553 6.318-5.135 12.626-7.653 18.959-.316.795-.737 1.027-1.523.995-1.178-.047-2.363-.064-3.539.005-.973.057-1.252-.337-1.242-1.26.036-3.465.014-6.93.015-10.395.002-9.824.003-19.648.01-29.471 0-.394.06-.789.114-1.417l12.553 4.831c2.052.79 4.103 1.58 6.157 2.363.72.274 1.116.559.727 1.494M124.281 59.38h.003v36.574c0 4.647-.032 9.293.012 13.938.01 1.015-.333 1.355-1.314 1.308-1.254-.06-2.513-.039-3.77-.018-.85.013-1.185-.277-1.18-1.208.042-8.83.006-17.662.049-26.492.042-8.429-1.193-16.652-3.673-24.707-2.465-8.006-6.04-15.465-10.952-22.242-2.18-3.006-4.614-5.83-6.988-8.692-.909-1.096-1.3-1.06-2.288.023-3.871 4.255-7.326 8.826-10.264 13.776-4.215 7.1-7.29 14.685-9.084 22.734-.871 3.912-1.524 7.917-1.781 11.911-.365 5.653-.293 11.335-.369 17.006-.06 4.445-.064 8.89-.082 13.335-.005 1.14-.008 2.284.066 3.42.062.948-.37 1.143-1.222 1.14-8.19-.02-16.38-.009-24.569-.005-3.162.002-6.323.011-9.485.01-1.64 0-1.662-.014-1.662-1.662 0-18.478.008-36.956.01-55.434.002-14.973.006-29.945-.02-44.918-.002-.98.164-1.609 1.217-1.957 4.641-1.536 9.266-3.122 13.878-4.746.886-.311 1.204-.178 1.368.77 1.76 10.197 8.03 16.52 17.393 20.175 4.648 1.815 9.505 2.238 14.361 1.603 7.796-1.02 14.381-4.51 19.276-10.785 2.41-3.089 3.996-6.602 4.509-10.542.205-1.577.29-1.638 1.74-1.142 4.517 1.546 9.02 3.135 13.543 4.666.958.324 1.31.794 1.308 1.87-.044 16.764-.03 33.528-.03 50.291m-7.97 42.727c.012 7.387-.003 14.773.016 22.16.002.845-.127 1.513-1.152 1.3-.322-.067-.569-.513-.838-.797-.039-.04-.01-.148-.009-.224.02-9.256.143-18.513.022-27.767-.067-5.164-.328-10.344-.873-15.477-1.173-11.04-4.675-21.394-10.137-31.031-2.032-3.587-4.584-6.882-6.942-10.279-.702-1.01-1.237-.97-2.056.06-3.601 4.533-6.665 9.402-9.221 14.6-2.994 6.088-5.253 12.449-6.601 19.076-.882 4.34-1.41 8.776-1.736 13.196-.362 4.924-.406 9.876-.43 14.816-.034 7.48.076 14.96.097 22.442.002.555.316 1.362-.777 1.432-.975.062-1.266-.362-1.266-1.27.002-4.95-.034-9.902-.046-14.853-.005-1.584.017-3.168.039-4.753.044-3.218.136-6.436.134-9.654-.002-3.193-.13-6.386-.142-9.58-.02-5.41.234-10.815 1.19-16.145.924-5.15 2.3-10.19 4.193-15.086 2.41-6.23 5.585-12.04 9.465-17.458 1.523-2.128 3.243-4.116 4.88-6.162.354-.442.733-.864 1.233-1.45 1.248 1.456 2.38 2.718 3.446 4.034 5.188 6.418 9.298 13.473 12.239 21.183 1.88 4.93 3.23 10.007 4.151 15.222 1.476 8.352 1.134 16.753 1.034 25.157-.029 2.435.083 4.872.087 7.308m-3.75 27.504v1.002c-.433.043-.798.112-1.164.112-10.508.018-21.016.031-31.525.041-1.633.002-1.632-.007-1.634-1.657-.01-8.49-.025-16.98-.027-25.47 0-4.292-.036-8.585.052-12.875.106-5.14.72-10.224 1.72-15.275 1.04-5.266 2.596-10.359 4.618-15.32 2.561-6.285 5.9-12.128 10.001-17.534.205-.27.444-.513.82-.945.808 1.08 1.585 2.073 2.314 3.1 4.061 5.726 7.272 11.91 9.661 18.496 1.812 4.993 3.124 10.126 3.967 15.391.795 4.973 1.176 9.96 1.219 14.982.016 1.898-.158 3.796-.153 5.694.027 10.086.084 20.171.13 30.258m-13.675 9.548c-.774 1.633-2.507 2.498-4.12 2.17-1.945-.396-3.29-1.87-3.355-3.762-.047-1.368-.059-2.74.013-4.106.016-.316.436-.61.67-.916.27.299.752.581.776.898.095 1.248.044 2.507.05 3.762.003.592.06 1.338.797 1.208.389-.068.894-.81.933-1.281.121-1.465.044-2.946.044-4.606 1.452 0 2.704-.024 3.953.02.24.008.676.287.674.435-.042 2.066.506 4.193-.435 6.178M80.12 16.288c8.715-.016 16.905-1.865 23.96-7.484-.293 5.738-13.008 14.214-21.39 14.621-7.673.373-14.633-1.352-20.598-6.303-2.648-2.198-4.92-4.769-6.152-8.119 7.18 5.462 15.419 7.302 24.18 7.286m49.271 122.298c.469-1.411 1.369-2.454 2.979-2.611.793-.077 1.59-.111 2.384-.178.694-.058.973.284.97.94-.006.99-.002 1.982-.002 2.972h.019v2.856c.002.629-.202.981-.936.968-1.595-.028-3.2.125-4.473-1.18-1.064-1.092-1.408-2.358-.941-3.767M32.668 50.906c-1.173-.092-2.362-.07-3.538-.005-.79.043-1.192-.309-1.46-.978-1.81-4.508-3.62-9.015-5.44-13.52-2.21-5.477-4.43-10.95-6.646-16.426-.37-.912-.674-1.856-1.12-2.727-.471-.922-.182-1.38.706-1.716 2.835-1.07 5.658-2.174 8.487-3.26 3.15-1.21 6.303-2.416 9.454-3.62.174-.067.356-.115.746-.239.055.597.13 1.034.13 1.472.01 13.214.002 26.429.03 39.642.002 1.016-.25 1.464-1.35 1.377m114.378-36.39c-.901-.279-1.768-.675-2.652-1.014-6.407-2.45-12.791-4.965-19.232-7.325-5.588-2.047-11.241-3.92-16.87-5.862-1.684-.582-1.83-.475-2.033 1.336-.025.224-.09.446-.15.664-.77 2.824-2.627 4.845-4.932 6.48-5.56 3.942-11.964 5.306-18.586 5.703-4.903.295-9.768-.178-14.55-1.527-4.077-1.151-7.877-2.77-10.997-5.67-1.68-1.56-3.037-3.387-3.278-5.827-.15-1.511-.526-1.684-2.033-1.166-5.338 1.834-10.711 3.57-16.006 5.523-7.542 2.782-15.03 5.714-22.533 8.599-1.287.495-1.43.889-.916 2.172.69 1.725 1.402 3.441 2.101 5.163 2.737 6.737 5.475 13.473 8.206 20.213 1.312 3.237 2.616 6.477 3.906 9.722.254.637.617.962 1.353.943 1.484-.039 2.97.004 4.455.01 1.704.008 1.71.007 1.703 1.71-.055 14.317-.131 28.635-.16 42.954-.01 4.64.101 9.281.157 13.922.019 1.532.153 1.656 1.74 1.656 11.807 0 23.614.002 35.422.006 1.482 0 1.482.005 1.482 1.52v9.829c0 2.925 0 2.943 2.93 3.072.626.028.912.225.906.861-.01.876.015 1.752.022 2.629.015 1.592.125 1.719 1.67 1.721 3.427.008 6.855.025 10.283-.014.904-.01 1.216.305 1.177 1.198-.057 1.292-.026 2.59-.007 3.885.031 2.214 1.575 4.497 3.688 5.136.934.283 1.063.75 1.054 1.555-.027 2.552-.05 5.106.003 7.657.095 4.598 3.609 8.016 8.199 8.034 1.866.007 3.734-.054 5.598.011 4.492.158 8.476-3.744 8.294-8.287-.08-1.978-.021-3.962-.019-5.943.004-3.094 2.286-5.434 5.354-5.475 1.522-.021 3.047.012 4.569-.03.7-.018 1.04.125 1.258.914.514 1.858 1.695 3.327 3.617 3.748 1.572.345 3.239.251 4.862.373.986.075 1.419-.36 1.339-1.336-.07-.867.375-1.132 1.184-1.084.76.046 1.523.002 2.285-.006.578-.007 1.205-.15 1.054-.839-.08-.363-.66-.801-1.07-.868-.815-.132-1.67-.057-2.506-.019-.7.032-.978-.282-.945-.949.011-.228.023-.46-.004-.685-.118-.968.22-1.419 1.269-1.314.752.075 1.544.095 2.273-.064.399-.087.705-.597 1.053-.918-.349-.259-.672-.686-1.05-.742-.783-.117-1.597-.073-2.394-.028-.824.046-1.214-.249-1.15-1.11.069-.933-.453-1.3-1.33-1.29-.8.01-1.6.004-2.4 0-2.752-.013-4.85 1-5.997 3.665-.157.365-.754.731-1.169.759-1.402.09-2.816.056-4.225.022-4.436-.11-7.615 2.955-7.62 7.375-.003 1.98.006 3.962-.005 5.942-.02 3.648-2.776 6.4-6.434 6.42-1.98.011-3.962.003-5.942-.012-2.77-.021-5.7-2.288-5.96-5.028-.295-3.094-.21-6.228-.192-9.344.002-.338.599-.817 1.017-.983 1.635-.647 3.07-1.618 3.447-3.35.389-1.793.42-3.678.45-5.525.02-1.067.273-1.503 1.417-1.479 2.97.064 5.941.012 8.912.016 3.416.003 2.901.02 2.917-3 .012-2.167-.004-2.167 2.18-2.187 1.365-.012 1.53-.16 1.534-1.508.014-3.886.036-7.772.006-11.658-.007-.935.314-1.304 1.257-1.282 1.827.04 3.656-.002 5.484.012.825.007 1.255-.252 1.234-1.19-.034-1.558.08-3.118.081-4.678.01-8.798.005-17.597.005-26.395H126V54.12c0-1.418.047-1.47 1.48-1.48 1.561-.012 3.127.05 4.682-.057.443-.03 1.074-.438 1.244-.834 1.461-3.414 2.844-6.862 4.236-10.306 2.016-4.99 4.017-9.988 6.033-14.979 1.376-3.406 2.759-6.81 4.15-10.209.36-.876.196-1.436-.78-1.739"/>
</svg>