<?xml version="1.0" standalone="no"?>
<!DOCTYPE svg PUBLIC "-//W3C//DTD SVG 20010904//EN"
 "http://www.w3.org/TR/2001/REC-SVG-20010904/DTD/svg10.dtd">
<svg version="1.0" xmlns="http://www.w3.org/2000/svg"
 width="246.000000pt" height="233.000000pt" viewBox="0 0 246.000000 233.000000"
 preserveAspectRatio="xMidYMid meet">
<metadata>
Created by potrace 1.16, written by Peter Selinger 2001-2019
</metadata>
<g transform="translate(0.000000,233.000000) scale(0.100000,-0.100000)"
fill="#3b4a67" stroke="none">
<path d="M110 2311 c-5 -11 -10 -82 -10 -160 l0 -141 -33 0 c-67 0 -69 -5 -65
-205 3 -158 5 -184 23 -215 19 -34 20 -58 25 -777 l5 -743 33 -32 32 -33 1104
0 c890 0 1108 3 1127 13 56 30 54 -3 59 797 l5 740 22 45 c21 41 23 60 23 217
0 193 0 193 -74 193 l-35 0 -3 158 -3 157 -1112 3 c-1092 2 -1112 2 -1123 -17z
m2160 -186 l0 -125 -1040 0 -1040 0 0 125 0 125 1040 0 1040 0 0 -125z m-1882
-347 c-3 -163 -11 -182 -86 -219 -69 -34 -134 -15 -186 55 -18 24 -21 45 -24
167 l-4 139 152 0 151 0 -3 -142z m402 17 c0 -144 -10 -179 -63 -219 -49 -37
-94 -43 -149 -18 -76 33 -92 71 -96 229 l-4 133 156 0 156 0 0 -125z m390 -11
c0 -160 -11 -188 -86 -224 -71 -35 -136 -16 -188 54 -18 24 -21 45 -24 167
l-4 139 151 0 151 0 0 -136z m398 -3 c-3 -122 -6 -143 -24 -167 -52 -70 -117
-89 -188 -54 -75 36 -86 64 -86 224 l0 136 151 0 151 0 -4 -139z m400 6 c-4
-158 -20 -196 -96 -229 -55 -25 -100 -19 -149 18 -53 40 -63 75 -63 219 l0
125 156 0 156 0 -4 -133z m390 -6 c-3 -122 -6 -143 -24 -167 -52 -70 -117 -89
-186 -55 -75 37 -83 56 -86 219 l-3 142 151 0 152 0 -4 -139z m-1909 -249 c5
-10 33 -31 61 -46 93 -51 222 -33 290 39 l23 24 35 -31 c51 -44 98 -61 167
-61 68 0 128 25 170 70 l25 28 25 -28 c87 -93 259 -94 345 -2 l23 24 35 -31
c50 -43 97 -60 167 -60 68 -1 130 25 172 70 l23 25 33 -30 c62 -59 139 -79
230 -60 l37 8 0 -426 0 -425 -1090 0 -1090 0 0 425 0 426 38 -8 c89 -19 179 5
231 61 29 31 37 32 50 8z m1859 -1214 l-3 -223 -1085 0 -1085 0 -3 223 -2 222
1090 0 1090 0 -2 -222z"/>
</g>
</svg>
