<?xml version="1.0" standalone="no"?>
<!DOCTYPE svg PUBLIC "-//W3C//DTD SVG 20010904//EN"
 "http://www.w3.org/TR/2001/REC-SVG-20010904/DTD/svg10.dtd">
<svg version="1.0" xmlns="http://www.w3.org/2000/svg"
 width="266.000000pt" height="180.000000pt" viewBox="0 0 266.000000 180.000000"
 preserveAspectRatio="xMidYMid meet">
<metadata>
Created by potrace 1.16, written by Peter Selinger 2001-2019
</metadata>
<g transform="translate(0.000000,180.000000) scale(0.100000,-0.100000)"
fill="#3b4a67" stroke="none">
<path d="M278 1785 c-104 -29 -198 -110 -246 -213 -24 -50 -27 -70 -27 -157 0
-93 2 -105 32 -166 31 -62 84 -122 142 -160 l24 -15 -35 -22 c-52 -32 -106
-96 -137 -161 -23 -49 -26 -69 -26 -156 0 -93 2 -105 33 -167 21 -44 51 -84
88 -117 l56 -52 -27 -27 c-86 -85 -85 -223 3 -308 68 -66 29 -64 1121 -64 633
0 1009 4 1051 11 191 30 321 183 321 379 1 127 -58 242 -157 310 l-45 32 46
30 c58 38 121 126 142 197 20 71 20 176 -2 241 -17 51 -97 170 -115 170 -5 0
-10 5 -10 10 0 6 6 10 13 10 22 0 93 67 112 105 42 90 9 212 -74 270 l-43 30
-1096 2 c-878 1 -1106 -1 -1144 -12z m2225 -94 c84 -55 81 -158 -6 -211 -31
-19 -59 -20 -1089 -20 l-1058 0 0 -45 0 -45 985 0 c959 0 986 -1 1038 -20 110
-41 190 -156 190 -275 0 -119 -80 -234 -190 -275 -52 -19 -79 -20 -1013 -20
l-960 0 0 -45 0 -44 964 -3 963 -3 69 -35 c112 -57 167 -147 166 -271 0 -107
-72 -214 -176 -261 l-51 -23 -1023 -3 -1023 -2 -39 21 c-67 38 -88 113 -50
174 42 68 -13 65 1024 65 l936 0 0 45 0 45 -927 2 -928 3 -49 25 c-27 14 -68
46 -92 73 -137 152 -75 393 120 466 56 21 62 21 966 21 l910 0 0 45 0 45 -910
0 c-904 0 -910 0 -966 21 -150 57 -229 219 -179 370 23 69 110 159 175 182 40
14 165 16 1120 16 1030 1 1076 0 1103 -18z"/>
</g>
</svg>
