<?xml version="1.0" standalone="no"?>
<!DOCTYPE svg PUBLIC "-//W3C//DTD SVG 20010904//EN"
 "http://www.w3.org/TR/2001/REC-SVG-20010904/DTD/svg10.dtd">
<svg version="1.0" xmlns="http://www.w3.org/2000/svg"
 width="234.000000pt" height="286.000000pt" viewBox="0 0 234.000000 286.000000"
 preserveAspectRatio="xMidYMid meet">
<metadata>
Created by potrace 1.16, written by Peter Selinger 2001-2019
</metadata>
<g transform="translate(0.000000,286.000000) scale(0.100000,-0.100000)"
fill="#3b4a67" stroke="none">
<path d="M129 2851 c-48 -10 -93 -43 -113 -85 -15 -31 -16 -150 -14 -1350 3
-1310 3 -1315 24 -1342 11 -15 33 -37 48 -48 27 -21 35 -21 1078 -24 1048 -2
1051 -2 1094 19 26 12 53 36 66 57 l23 37 3 1265 c2 696 0 1288 -3 1317 -7 62
-37 109 -85 137 -35 21 -45 21 -1060 22 -564 1 -1041 -1 -1061 -5z m2093 -109
c22 -21 23 -31 26 -202 l3 -180 -1080 0 -1081 0 0 174 c0 96 3 182 6 191 18
45 12 44 1086 42 l1017 -2 23 -23z m28 -1467 l0 -995 -1085 0 -1085 0 0 995 0
995 1085 0 1085 0 0 -995z m0 -1101 c0 -20 -19 -56 -39 -71 -12 -10 -252 -12
-1045 -13 l-1030 0 -23 22 c-13 13 -23 33 -23 50 l0 28 1080 0 c973 0 1080 -2
1080 -16z"/>
<path d="M875 2691 c-53 -32 -71 -73 -67 -155 1 -18 16 -42 41 -67 l39 -39
273 0 c307 0 319 2 352 73 34 71 11 146 -55 187 -31 19 -51 20 -293 20 -236 0
-263 -2 -290 -19z m550 -91 c24 -26 13 -64 -23 -79 -20 -9 -96 -11 -251 -9
-219 3 -223 3 -241 26 -18 22 -18 43 3 70 7 9 70 12 252 12 228 0 243 -1 260
-20z"/>
<path d="M251 2682 c-37 -20 -71 -73 -71 -110 0 -69 64 -132 133 -132 136 0
178 183 57 245 -39 20 -78 19 -119 -3z"/>
<path d="M542 2679 c-110 -71 -62 -239 68 -239 131 0 178 170 67 239 -44 27
-93 26 -135 0z"/>
<path d="M1667 2685 c-66 -34 -92 -106 -61 -171 59 -123 246 -84 246 52 0 52
-20 87 -65 114 -38 24 -82 25 -120 5z"/>
<path d="M1963 2684 c-127 -63 -76 -244 68 -244 35 0 48 6 80 39 33 33 39 45
39 82 0 105 -96 168 -187 123z"/>
<path d="M1038 2120 c-262 -45 -496 -222 -609 -463 -92 -197 -96 -453 -11
-654 97 -231 303 -409 548 -474 110 -29 288 -29 399 0 234 62 424 216 529 428
168 340 77 758 -216 990 -184 147 -419 210 -640 173z m302 -96 c138 -31 291
-127 386 -242 65 -79 128 -203 150 -297 20 -81 22 -246 5 -320 -51 -215 -200
-404 -394 -498 -124 -61 -220 -81 -356 -74 -189 9 -343 78 -477 211 -135 135
-202 288 -211 481 -7 136 15 237 79 365 58 116 187 247 303 307 172 89 328
109 515 67z"/>
<path d="M1080 1900 c-237 -36 -432 -215 -486 -446 -22 -93 -15 -246 15 -328
61 -171 196 -306 367 -367 82 -30 235 -37 328 -15 210 50 387 226 437 436 20
86 16 223 -9 305 -85 279 -367 458 -652 415z m233 -107 c98 -29 234 -133 276
-212 15 -27 11 -32 -32 -46 -17 -5 -42 -25 -54 -44 -21 -31 -23 -45 -23 -168
0 -175 18 -215 103 -232 l29 -6 -46 -63 c-91 -124 -216 -191 -372 -199 -146
-9 -274 40 -376 143 -290 293 -132 770 282 848 40 7 156 -4 213 -21z m344
-380 c9 -59 9 -145 -1 -196 -7 -37 -8 -38 -44 -35 l-37 3 -3 125 c-3 135 3
150 54 150 19 0 24 -7 31 -47z"/>
</g>
</svg>
