<svg xmlns:xlink="http://www.w3.org/1999/xlink" xmlns="http://www.w3.org/2000/svg" width="24" height="24" viewBox="0 0 24 24"><script xmlns=""/>
    <g fill="none" fill-rule="evenodd">
        <path fill="#3b4a8f" stroke-width="1px" d="M15.716 0l1.342 2.015L24 3.738l-1.128 5.625-3.712-.925v2.626h-.954V7.22l3.926.978.781-3.894-5.817-1.282-3.905 3.125-.695-1.388c.004 5.888.004 10.353 0 13.395-.228.152-.725.49-1 .786.009-4.324.01-9.087.001-14.29l-.748 1.497-3.893-3.114-5.77 1.271.782 3.894 3.926-.978v15.84l2.382.002c.932-1.071 2.71-3.318 5.174-4.367l.34-.135v-.25c0-.733.57-1.346 1.286-1.416l.136-.006h1.778c.732 0 1.346.57 1.415 1.286l.007.136v.15c.32.071.634.145.933.222.67.172.869.242 1.206.344.01-.732.01-1.48-.145-2.044-.102-.374-.255-.649-.489-.839-.208-.169-.498-.292-.966-.317l-.184-.005H14.58c-.877 0-1.6-.723-1.6-1.6 0-.828.645-1.52 1.456-1.593l.144-.007h5.333c1.384 0 2.482.585 3.15 1.561.619.906.897 2.098.934 3.456l.004.316v5.511a.534.534 0 0 1-.447.527l-.086.007-4.785-.001.001.014H4.84V8.438l-3.712.925L0 3.738l6.869-1.705L8.224 0h7.492zm7.217 22.575h-12.88l-.168.18-.16.176h13.208v-.356zm-3.022-8.888H14.58a.52.52 0 0 0-.534.533c0 .274.185.487.445.527l.089.006h4.088c.755 0 1.373.196 1.822.561.45.366.708.868.85 1.384.283 1.03.172 2.18.172 3.033a.532.532 0 0 1-.596.526l-.098-.02s-.82-.26-1.838-.523c-1.02-.262-2.259-.516-2.978-.516-1.822 0-3.414.999-4.689 2.13l-.199.18h11.82v-3.555c0-1.355-.262-2.453-.75-3.166-.488-.714-1.167-1.1-2.272-1.1zm-3.02 4.266h-1.778a.342.342 0 0 0-.35.306 6.41 6.41 0 0 1 1.239-.128c.375 0 .8.047 1.238.117a.343.343 0 0 0-.35-.295zM8.694 1.095l-.924 1.388 2.637 2.11 1.144-2.07-2.857-1.428zm6.562.019l-2.859 1.43 1.134 2.049 2.637-2.11-.912-1.369zM13.251.999h-2.512l1.256.628L13.251 1z"/>
        <path fill="#3b4a8f" d="M22.933 21.4v1.531H9.724C9.827 22.494 10.5 22 11 21.5l11.933-.1zM7 7.5v3.087l1.5.693 1.5-.693V7.5z"/>
    </g>
</svg>