
<svg version="1.0" xmlns="http://www.w3.org/2000/svg"
 width="4200.000000pt" height="1221.000000pt" viewBox="0 0 4200.000000 1221.000000"
 preserveAspectRatio="xMidYMid meet">
<g transform="translate(0.000000,1221.000000) scale(0.100000,-0.100000)"
fill="#3b4a8f" stroke="none">
<path d="M2850 10320 c-1559 -1039 -2836 -1895 -2838 -1902 -2 -12 2261 -6524
2271 -6534 2 -2 865 -11 1918 -19 1699 -13 2020 -18 2859 -45 1106 -35 1050
-34 1050 -17 0 11 67 15 347 20 190 4 464 7 608 7 l261 0 1038 3173 c571 1744
1041 3177 1043 3183 4 11 -5687 4017 -5711 4021 -6 1 -1287 -848 -2846 -1887z
m2795 1584 c7 -135 7 -137 -16 -159 -13 -13 -1005 -816 -2204 -1786 -1199
-969 -2213 -1789 -2253 -1822 l-73 -59 -257 87 c-141 48 -338 119 -437 157
-99 39 -188 72 -198 75 -10 3 -17 9 -15 14 3 8 5427 3626 5439 3628 4 1 10
-60 14 -135z m2835 -1781 c1488 -1044 2715 -1906 2728 -1915 23 -15 15 -19
-220 -96 -257 -86 -503 -162 -520 -162 -5 0 -8 6 -5 14 4 9 -137 127 -424 356
-236 188 -429 346 -429 351 0 5 29 46 65 91 78 99 102 154 89 205 -13 52 -45
70 -174 98 -185 39 -246 47 -408 54 l-153 6 -1639 1305 -1639 1305 0 154 c-1
121 2 151 12 144 6 -6 1229 -865 2717 -1910z m-2857 1296 c-55 -52 -3770
-3514 -3789 -3531 -18 -15 -30 -13 -194 32 -255 71 -401 115 -403 122 -1 3
990 808 2203 1790 l2205 1784 3 -85 c3 -81 2 -86 -25 -112z m1702 -1076 l1564
-1246 -77 -31 c-86 -35 -154 -79 -223 -143 l-46 -43 -1392 1285 c-1383 1278
-1391 1286 -1391 1324 0 21 -3 53 -6 70 -4 17 -3 31 0 31 4 0 711 -561 1571
-1247z m-410 -108 c583 -538 1069 -986 1079 -996 16 -15 10 -14 -41 6 -125 51
-341 85 -540 85 l-72 0 -791 865 -790 865 0 122 0 122 48 -46 c26 -25 524
-485 1107 -1023z m-1357 770 c-57 -63 -753 -834 -1548 -1713 l-1445 -1598
-105 23 c-212 47 -495 115 -502 122 -4 3 824 782 1840 1730 l1847 1723 8 -87
8 -86 -103 -114z m111 -930 c6 -478 13 -930 16 -1003 l4 -132 -142 -71 c-78
-40 -214 -112 -302 -162 -325 -183 -418 -212 -765 -237 -178 -13 -305 -32
-439 -66 -268 -70 -549 -212 -771 -391 -97 -78 -150 -136 -230 -252 -36 -52
-74 -105 -85 -118 l-20 -23 -110 21 c-60 11 -115 24 -121 27 -6 4 612 696
1470 1644 814 900 1481 1636 1482 1635 1 -1 7 -393 13 -872z m830 15 c536
-587 686 -756 673 -761 -9 -4 -75 -12 -147 -18 -335 -27 -778 -139 -1126 -283
l-106 -44 -6 340 c-4 188 -9 584 -12 881 -3 297 -8 574 -11 615 l-5 75 25 -25
c14 -14 335 -365 715 -780z m1971 -1301 c0 -7 -94 -156 -106 -168 -8 -8 -47
35 -61 67 -7 18 -20 84 -28 146 -7 63 -21 130 -29 151 -14 32 -2 24 104 -76
66 -61 120 -115 120 -120z m-987 56 c152 -32 258 -130 296 -273 23 -84 2 -97
-174 -107 -206 -12 -378 -57 -570 -150 -312 -151 -522 -358 -670 -660 -62
-127 -77 -175 -90 -282 l-7 -53 -138 0 -138 0 19 73 c21 79 25 181 9 222 -6
15 -54 84 -107 153 -106 138 -112 152 -113 288 0 76 1 81 28 101 44 32 547
344 667 413 413 238 737 328 988 275z m2460 -588 c288 -230 403 -327 398 -336
-7 -11 -464 -140 -553 -156 -32 -5 -44 5 -283 225 -137 127 -250 236 -250 241
0 12 267 348 276 348 4 1 189 -144 412 -322z m-9578 -35 c99 -38 282 -105 407
-147 165 -56 225 -81 221 -91 -2 -7 185 -617 418 -1355 l422 -1343 -36 -150
c-105 -434 -149 -910 -103 -1111 51 -222 180 -385 394 -498 74 -39 226 -93
312 -111 24 -5 37 -44 245 -706 121 -386 221 -708 223 -716 3 -12 -34 -14
-251 -14 -233 0 -255 1 -262 18 -9 24 -2120 6085 -2161 6205 -20 58 -28 97
-21 94 7 -3 93 -37 192 -75z m9039 -286 c119 -110 216 -202 216 -205 0 -3 -80
-23 -177 -44 -98 -21 -185 -41 -194 -43 -12 -3 -18 4 -23 29 -3 19 -33 87 -66
153 -63 126 -70 160 -45 220 18 45 55 96 65 92 4 -2 105 -93 224 -202z m849
-2929 l-1007 -3077 -86 1 c-47 1 -96 4 -110 8 l-26 6 416 1736 415 1735 151
150 c206 202 255 280 253 404 -1 121 -67 198 -173 203 -25 1 -46 6 -46 11 0
11 389 1639 393 1641 1 1 94 29 207 63 113 34 297 92 410 130 113 38 206 69
207 68 2 -1 -451 -1387 -1004 -3079z m-8900 2884 c111 -33 258 -75 326 -93
l124 -33 201 -721 202 -722 -53 -120 c-67 -154 -170 -432 -218 -587 -20 -66
-40 -123 -44 -127 -8 -10 -783 2451 -775 2464 3 5 12 7 20 4 8 -3 105 -32 217
-65z m8955 -118 c-3 -10 -92 -382 -198 -828 -163 -682 -197 -812 -214 -824
-26 -18 -99 -92 -201 -206 -85 -95 -175 -160 -284 -206 -36 -15 -66 -27 -67
-26 -1 1 86 442 194 980 l197 978 250 64 c138 36 264 69 280 74 44 14 48 13
43 -6z m-8118 -103 c113 -27 234 -54 269 -62 47 -9 66 -18 72 -33 5 -11 31
-112 59 -224 l49 -204 -93 -162 c-51 -90 -133 -242 -182 -338 l-89 -174 -172
616 c-95 339 -173 622 -173 630 0 9 8 11 28 6 15 -4 119 -29 232 -55z m5240
-4 c0 -27 -52 -181 -81 -237 l-28 -56 -74 -6 c-41 -4 -133 -10 -203 -13 l-128
-7 31 39 c91 114 239 216 391 270 79 28 92 29 92 10z m1992 -1038 c-107 -541
-196 -984 -196 -985 -1 -1 -78 -24 -171 -52 -94 -27 -214 -68 -267 -90 -54
-22 -98 -37 -98 -33 1 4 60 380 133 837 l133 829 29 7 c152 32 251 152 262
316 l6 80 161 35 c88 19 170 36 182 37 19 1 11 -49 -174 -981z m-6560 883 c-3
-18 -134 -221 -141 -221 -6 0 -72 252 -71 271 0 3 48 -4 108 -16 68 -14 106
-26 104 -34z m2304 -86 c28 -14 63 -39 80 -56 l29 -31 -45 5 c-25 3 -112 9
-193 13 -143 6 -147 7 -131 25 9 10 39 30 67 44 67 33 127 33 193 0z m3471
-107 c17 -13 54 -50 81 -83 30 -38 65 -68 91 -80 37 -16 41 -22 36 -44 -3 -14
-64 -395 -135 -846 -72 -451 -132 -830 -135 -842 -3 -14 -30 -35 -77 -61 -99
-54 -271 -168 -393 -260 -173 -132 -363 -302 -698 -626 -265 -256 -332 -316
-371 -331 -44 -17 -51 -17 -75 -4 -14 8 -32 27 -39 42 -16 33 -65 699 -60 812
3 64 10 92 34 138 39 77 1631 2174 1663 2192 35 19 42 19 78 -7z m-3454 -77
l177 -9 50 -45 c80 -72 205 -148 281 -171 22 -6 27 -123 35 -841 l6 -550 -148
-145 c-186 -181 -309 -290 -642 -563 -290 -239 -314 -253 -381 -222 -87 39
-201 174 -503 595 -260 363 -370 548 -403 675 -18 71 -19 103 -2 131 7 12 268
280 580 595 l568 575 102 -8 c56 -4 182 -11 280 -17z m2052 -8 c-109 -172
-236 -310 -332 -360 -97 -52 -97 -53 -89 80 4 61 14 141 21 177 26 120 6 106
183 117 87 5 174 10 196 11 l38 2 -17 -27z m-975 -27 c0 -8 -16 -126 -35 -263
-50 -357 -65 -502 -65 -639 0 -150 -13 -222 -53 -298 -31 -58 -142 -180 -224
-244 l-41 -32 -6 72 c-3 40 -8 330 -12 645 l-6 572 39 19 c59 31 100 84 117
155 l6 27 140 0 c113 0 140 -3 140 -14z m3364 -2293 c-51 -214 -231 -967 -401
-1675 l-308 -1288 -157 0 c-87 0 -158 3 -158 7 0 6 561 2825 575 2890 3 13 67
69 167 146 124 95 296 236 374 306 0 1 -41 -173 -92 -386z m-6369 -282 c85
-349 153 -636 151 -638 -14 -15 -338 -93 -385 -93 l-27 0 -132 472 -132 473
51 92 c76 136 302 376 316 335 2 -4 72 -292 158 -641z m12 562 c41 -31 505
-646 584 -774 68 -110 73 -149 28 -208 -52 -67 -174 -132 -345 -185 -19 -6
-27 23 -163 581 -79 324 -146 594 -149 601 -7 19 6 15 45 -15z m5503 -1834
c-154 -772 -280 -1405 -280 -1406 0 -2 -81 -3 -180 -3 l-181 0 6 33 c3 17 91
566 195 1219 104 654 191 1192 194 1197 4 5 100 75 214 154 114 80 229 161
256 181 28 19 51 34 53 33 1 -2 -123 -635 -277 -1408z m-3104 1370 c15 -17 16
-36 11 -166 -9 -227 -46 -376 -109 -428 -39 -33 -88 -45 -189 -45 -138 0 -233
37 -318 124 -35 36 -42 49 -37 69 10 40 267 262 464 401 114 80 140 86 178 45z
m-2890 -447 l111 -397 -81 -6 c-163 -13 -248 21 -298 120 -24 47 -28 67 -28
137 0 89 17 184 50 279 25 72 123 275 130 268 3 -2 55 -183 116 -401z m5619 6
c-3 -13 -86 -534 -185 -1158 -99 -624 -182 -1144 -185 -1156 l-5 -21 -662 4
c-365 2 -844 6 -1064 9 l-402 6 -6 227 c-3 124 -9 447 -12 718 l-6 492 62 40
c106 69 170 75 232 23 49 -41 59 -81 68 -252 5 -85 13 -168 19 -184 31 -78 97
-125 177 -126 106 0 223 60 449 230 128 96 196 152 532 439 92 79 247 203 343
276 183 138 629 454 643 455 4 0 5 -10 2 -22z m-4053 -547 c63 -30 129 -91
251 -229 113 -129 185 -187 302 -243 129 -63 217 -82 380 -83 171 -1 255 17
391 83 l93 46 5 -50 c3 -27 8 -330 12 -672 l6 -623 -88 0 c-100 0 -1687 50
-1690 53 -4 4 -374 1520 -371 1522 1 1 45 19 97 40 52 21 140 61 195 88 158
79 218 98 300 95 48 -2 85 -11 117 -27z m-802 -278 c6 -27 88 -361 181 -743
93 -382 172 -701 175 -709 4 -12 -24 -13 -182 -8 -103 3 -188 8 -190 10 -2 1
-89 311 -194 687 -105 377 -193 692 -196 701 -3 12 15 19 93 33 54 10 141 31
193 46 52 15 98 28 101 29 4 0 12 -20 19 -46z m-319 -773 c109 -388 197 -705
196 -706 -1 0 -99 1 -218 4 l-216 4 -127 402 c-69 220 -168 535 -220 699 l-93
297 131 -5 c72 -3 169 -2 216 3 47 5 96 9 110 8 23 -1 30 -22 221 -706z"/>
<path d="M40475 9103 c-55 -2 -593 -16 -1195 -33 -602 -16 -1111 -33 -1130
-36 -52 -9 -102 -38 -143 -83 -32 -36 -37 -47 -37 -91 0 -97 59 -167 179 -210
106 -39 133 -54 175 -101 48 -53 63 -94 71 -194 13 -159 76 -1520 76 -1635 0
-69 6 -359 15 -645 8 -286 16 -651 17 -810 l2 -290 -33 -67 c-44 -89 -99 -133
-219 -172 -69 -23 -127 -81 -149 -151 -24 -75 -14 -115 42 -164 87 -77 2 -73
1288 -62 1221 11 1184 12 1384 -34 47 -11 132 -15 335 -15 242 0 276 2 312 19
48 22 69 44 90 94 15 36 262 877 386 1310 67 239 75 314 39 410 -46 122 -133
156 -250 97 -51 -26 -60 -38 -153 -225 -47 -93 -108 -202 -136 -242 -103 -146
-302 -332 -494 -462 -301 -202 -659 -314 -1012 -314 -175 0 -264 19 -378 81
-102 55 -107 67 -107 274 0 93 -14 471 -31 841 -16 369 -29 732 -27 804 3 128
4 134 29 159 24 23 37 27 134 34 305 25 644 -69 754 -208 16 -21 67 -113 114
-207 125 -251 164 -295 257 -295 55 0 107 32 141 86 30 48 30 127 0 249 -12
50 -74 369 -137 710 -70 380 -121 631 -132 649 -24 41 -60 65 -114 75 -126 23
-203 -40 -223 -184 -17 -113 -66 -155 -232 -197 -79 -20 -112 -22 -320 -22
-247 1 -266 4 -293 54 -6 11 -15 104 -20 207 -11 224 -7 239 74 277 212 99
379 116 639 66 345 -67 764 -280 956 -486 79 -85 122 -155 161 -261 47 -126
129 -184 239 -169 144 20 180 123 126 361 -52 232 -236 961 -261 1039 -31 91
-79 148 -141 165 -35 10 -391 12 -668 4z"/>
<path d="M36404 9048 c-95 -50 -117 -52 -374 -24 -308 33 -849 13 -1167 -44
-301 -54 -631 -191 -843 -351 -149 -113 -373 -374 -499 -582 -158 -262 -241
-504 -298 -867 -25 -162 -25 -530 0 -685 31 -184 86 -435 114 -520 194 -586
678 -1117 1288 -1416 251 -122 469 -184 740 -209 213 -19 962 -32 1465 -25
609 8 817 18 865 41 54 25 88 76 93 138 7 87 -42 158 -152 221 -54 31 -90 65
-112 107 -25 48 -33 163 -44 608 -5 239 -17 647 -26 905 -9 259 -14 529 -12
600 3 120 6 135 34 195 33 70 70 113 140 161 87 60 111 160 61 262 -21 43 -39
63 -71 82 -51 30 -56 30 -415 20 -164 -5 -272 -5 -269 1 57 122 73 195 65 295
-3 38 -47 237 -96 442 -143 586 -149 609 -172 633 -25 27 -118 54 -185 54 -40
0 -67 -9 -130 -42z m-777 -599 c267 -30 578 -150 752 -291 88 -71 152 -153
263 -337 l97 -160 -42 -6 c-23 -3 -150 -7 -283 -8 -219 -3 -244 -5 -280 -23
-57 -30 -98 -101 -98 -170 0 -72 37 -124 122 -173 133 -76 187 -117 224 -172
65 -94 65 -96 79 -904 16 -972 16 -930 -4 -996 -36 -121 -128 -212 -252 -252
-100 -31 -349 -31 -512 1 -344 68 -605 217 -922 527 -266 260 -365 413 -459
705 -62 193 -102 486 -102 742 0 257 28 433 109 678 81 243 94 265 255 426
229 228 436 349 681 398 141 27 230 31 372 15z"/>
<path d="M15012 8919 c-56 -28 -94 -85 -100 -149 -6 -69 0 -86 61 -166 62 -83
82 -141 74 -219 -6 -62 -211 -685 -469 -1430 -405 -1171 -648 -1885 -663
-1955 -23 -101 -68 -194 -121 -247 -40 -40 -170 -113 -200 -113 -19 0 -73 -49
-89 -81 -8 -15 -15 -51 -15 -79 0 -89 44 -161 124 -202 39 -20 58 -20 635 -22
681 -1 652 -4 734 83 115 123 80 217 -122 336 -133 79 -168 144 -157 290 7 95
22 151 126 475 43 135 102 322 130 415 62 207 81 248 127 276 31 19 44 21 126
16 115 -6 220 -39 384 -118 284 -137 608 -400 746 -607 110 -164 194 -390 185
-496 -7 -81 -34 -123 -156 -241 -63 -60 -122 -127 -133 -147 -23 -44 -25 -118
-4 -157 23 -45 90 -97 153 -117 53 -18 98 -19 692 -19 l635 0 72 33 c39 17 82
32 95 32 13 0 52 -14 87 -30 35 -17 93 -34 130 -39 89 -13 1223 -22 1302 -11
101 14 167 84 177 190 10 106 -43 167 -195 226 -180 70 -198 97 -214 315 -6
79 -11 426 -10 774 0 347 -4 689 -10 760 -27 370 -24 464 15 490 20 13 41 13
177 0 513 -52 619 -96 715 -299 23 -50 64 -152 90 -226 53 -148 78 -190 129
-214 99 -47 193 5 231 130 21 70 18 118 -21 334 -20 107 -76 431 -125 720 -50
289 -93 537 -96 553 -4 21 -2 27 11 27 41 0 208 -110 322 -214 89 -81 147
-164 214 -303 43 -89 68 -129 96 -152 138 -114 288 -15 286 189 0 42 -9 110
-21 155 -30 116 -102 432 -167 730 -81 374 -95 412 -169 446 -53 24 -106 24
-246 -3 -106 -20 -143 -21 -485 -20 -388 2 -1067 15 -1763 33 -226 6 -427 8
-445 4 -90 -19 -151 -98 -151 -197 -1 -87 34 -130 154 -191 159 -81 221 -139
270 -250 32 -73 39 -217 49 -1107 13 -1117 19 -1456 33 -1843 12 -368 9 -405
-39 -502 -52 -102 -207 -213 -313 -223 -38 -3 -53 1 -92 28 -62 41 -156 145
-191 208 -46 84 -235 623 -532 1517 -156 468 -367 1090 -470 1384 -102 294
-194 566 -202 605 -20 92 -7 165 42 233 89 124 95 136 95 180 0 59 -21 96 -75
133 -86 59 -81 58 -521 69 -1001 25 -894 25 -942 0z m4771 -718 c140 -31 256
-69 294 -98 l33 -26 -27 -14 c-90 -46 -127 -105 -147 -230 -24 -146 -55 -174
-229 -206 -87 -15 -157 -20 -312 -21 -284 -1 -285 0 -284 228 0 72 4 166 8
209 12 114 39 137 216 181 52 13 353 -3 448 -23z m-4167 -558 c53 -89 274
-762 298 -909 l7 -41 -53 4 c-66 6 -505 119 -535 139 -33 21 -36 50 -18 150
31 163 158 561 217 677 34 68 32 69 84 -20z"/>
<path d="M32035 8899 c-396 -11 -461 -18 -523 -55 -63 -39 -95 -100 -88 -167
11 -100 73 -153 227 -193 103 -27 163 -55 183 -87 27 -41 35 -118 46 -439 8
-242 8 -337 -1 -402 l-12 -86 -46 26 c-25 15 -71 45 -101 67 -66 49 -876 741
-972 831 -79 73 -102 118 -98 196 9 173 2 194 -76 234 -38 20 -52 21 -409 19
-473 -3 -1058 -20 -1161 -34 -43 -6 -92 -18 -109 -28 -46 -26 -75 -85 -75
-153 0 -49 4 -62 30 -91 32 -37 112 -83 202 -117 71 -26 101 -61 129 -148 20
-63 22 -97 30 -597 19 -1195 30 -1864 39 -2286 6 -297 6 -467 -1 -509 -19
-122 -67 -176 -215 -247 -98 -46 -153 -54 -202 -29 -28 14 -116 113 -158 176
-40 60 -215 549 -500 1393 -122 362 -513 1480 -558 1597 -28 73 -145 457 -152
498 -10 62 10 118 70 199 101 137 95 250 -16 313 l-43 24 -645 -3 c-736 -3
-705 1 -754 -84 -52 -87 -44 -153 25 -233 83 -96 94 -147 59 -287 -12 -45
-122 -388 -245 -762 -700 -2127 -848 -2577 -872 -2640 -15 -38 -39 -83 -55
-98 l-28 -29 -33 19 c-60 35 -121 145 -266 478 -77 176 -185 431 -241 565
-185 443 -302 651 -534 949 -53 68 -99 135 -102 148 -11 42 12 70 128 156 292
216 453 454 539 794 39 155 46 253 25 372 -30 173 -112 331 -232 447 -72 70
-163 121 -282 158 -184 58 -182 58 -1082 51 -454 -3 -1000 -2 -1215 2 -214 5
-407 6 -429 2 -80 -14 -136 -82 -136 -166 0 -90 30 -128 145 -186 131 -65 208
-143 236 -239 23 -80 39 -470 49 -1166 5 -400 15 -1035 21 -1412 10 -621 10
-691 -5 -753 -32 -136 -86 -198 -234 -269 -118 -57 -152 -94 -159 -176 -6 -59
33 -140 90 -185 37 -30 41 -31 185 -39 81 -5 397 -7 702 -5 602 4 596 3 666
60 44 37 64 81 64 142 0 25 -6 60 -14 79 -18 44 -79 92 -141 112 -111 36 -198
112 -230 202 -25 69 -34 315 -37 935 l-3 536 30 30 c22 22 84 50 234 106 241
90 237 90 305 -14 105 -160 714 -1214 743 -1286 45 -114 74 -227 80 -321 5
-72 3 -86 -17 -122 -12 -22 -48 -63 -80 -91 -70 -61 -96 -117 -86 -184 10 -67
55 -130 112 -158 59 -29 43 -29 1369 -16 l860 9 53 25 c86 40 124 111 108 198
-10 52 -68 111 -150 152 -94 47 -122 68 -156 115 -40 55 -55 132 -41 213 6 35
77 263 156 507 80 243 152 469 161 502 42 161 59 174 201 150 391 -64 691
-232 1001 -560 208 -219 294 -393 296 -600 1 -85 -1 -95 -34 -160 -31 -61 -46
-77 -124 -135 -49 -37 -100 -84 -113 -105 -53 -85 -6 -217 96 -271 l44 -23
401 1 c603 1 930 12 987 33 45 16 52 16 155 -3 96 -18 145 -21 409 -20 165 0
406 4 535 7 233 7 235 7 282 34 107 64 130 197 46 275 -12 12 -82 51 -155 88
-147 73 -183 106 -209 190 -21 68 -31 391 -43 1395 -6 448 -15 973 -22 1165
-8 285 -8 363 3 419 l13 68 80 -60 c44 -33 179 -148 300 -257 368 -330 1092
-952 1351 -1160 78 -63 158 -133 179 -157 48 -55 92 -148 104 -218 16 -95 35
-1127 22 -1190 -21 -101 -59 -140 -192 -195 -128 -53 -179 -106 -179 -187 0
-54 34 -111 93 -153 l42 -30 568 -3 c374 -2 581 1 607 8 54 15 99 55 126 115
54 114 16 177 -158 259 -71 34 -107 58 -137 92 -73 84 -72 70 -82 724 -4 322
-16 830 -24 1130 -22 760 -35 1704 -24 1742 13 48 54 84 162 145 54 30 115 69
134 86 101 89 93 231 -15 295 l-47 27 -225 1 c-124 1 -364 -2 -535 -7z m-8938
-725 c178 -26 362 -86 420 -137 47 -41 63 -82 63 -159 0 -128 -40 -218 -153
-346 -107 -122 -180 -174 -485 -345 -451 -253 -481 -265 -510 -204 -7 15 -18
93 -23 175 -12 188 -12 853 1 887 13 33 58 60 154 91 169 53 347 66 533 38z
m3606 -506 c82 -141 316 -875 333 -1045 l7 -63 -54 19 c-30 10 -80 31 -111 45
-77 34 -213 72 -323 90 -144 23 -175 42 -175 104 0 49 22 126 142 502 92 291
130 390 149 390 4 0 18 -19 32 -42z"/>

</g>
</svg>
