<?xml version="1.0" encoding="UTF-8" standalone="no"?>
<svg
   xmlns:dc="http://purl.org/dc/elements/1.1/"
   xmlns:cc="http://creativecommons.org/ns#"
   xmlns:rdf="http://www.w3.org/1999/02/22-rdf-syntax-ns#"
   xmlns:svg="http://www.w3.org/2000/svg"
   xmlns="http://www.w3.org/2000/svg"
   xmlns:sodipodi="http://sodipodi.sourceforge.net/DTD/sodipodi-0.dtd"
   xmlns:inkscape="http://www.inkscape.org/namespaces/inkscape"
   version="1.1"
   id="svg2"
   xml:space="preserve"
   width="1000"
   height="666.66669"
   viewBox="0 0 1000 666.66669"
   sodipodi:docname="2779557.eps"><metadata
     id="metadata8"><rdf:RDF><cc:Work
         rdf:about=""><dc:format>image/svg+xml</dc:format><dc:type
           rdf:resource="http://purl.org/dc/dcmitype/StillImage" /></cc:Work></rdf:RDF></metadata><defs
     id="defs6"><clipPath
       clipPathUnits="userSpaceOnUse"
       id="clipPath510"><path
         d="m 1500.89,2951.43 c 0,0 18.97,-29.97 98.85,-7.92 l 122.37,-66.96 c 16.24,-10.18 8.99,-35.27 -10.18,-35.21 l -199.66,0.61 c -27.76,0.09 -46.39,28.53 -35.37,54.02 z"
         id="path508" /></clipPath><clipPath
       clipPathUnits="userSpaceOnUse"
       id="clipPath526"><path
         d="m 1350.16,2899.96 -43.97,81.76 c -69.31,-16.22 -76.48,49.06 -76.48,49.06 0,0 -66.27,-34.71 -73.33,-51.11 v 0 c -6.13,-10.95 -2.26,-33.58 16.79,-41.99 l 94,-78.9 c 16.93,-11.25 36.65,-17.57 56.97,-18.26 l 57.3,-1.94 c 9.19,-0.31 16.98,6.73 17.59,15.91 v 0 c 0.39,5.84 -2.24,11.48 -6.97,14.93 z"
         id="path524" /></clipPath></defs><sodipodi:namedview
     pagecolor="#ffffff"
     bordercolor="#666666"
     borderopacity="1"
     objecttolerance="10"
     gridtolerance="10"
     guidetolerance="10"
     inkscape:pageopacity="0"
     inkscape:pageshadow="2"
     inkscape:window-width="640"
     inkscape:window-height="480"
     id="namedview4" /><g
     id="g10"
     inkscape:groupmode="layer"
     inkscape:label="ink_ext_XXXXXX"
     transform="matrix(1.3333333,0,0,-1.3333333,0,666.66667)"><g
       id="g12"
       transform="scale(0.1)"><path
         d="M 7500,0 H 0 V 5000 H 7500 V 0"
         style="fill:#3b4a8f;fill-opacity:1;fill-rule:nonzero;stroke:none"
         id="path14" /><path
         d="M 7500,0 H 0 V 5000 H 7500 V 0"
         style="fill:#3b4a8f;fill-opacity:1;fill-rule:nonzero;stroke:none"
         id="path16" /><path
         d="m 5634.13,635.461 -19.73,188.73 -87.53,-13.941 34.79,-193.961 73.86,16.66 -1.39,2.512"
         style="fill:#a24949;fill-opacity:1;fill-rule:nonzero;stroke:none"
         id="path18" /><path
         d="m 5546.98,650.34 c 0,0 64.93,-20.891 91.24,22.211 l 158.99,-66.559 -264.8,-19.383 14.57,63.731"
         style="fill:#201718;fill-opacity:1;fill-rule:nonzero;stroke:none"
         id="path20" /><path
         d="m 5798.81,583.738 -264.8,-19.359 -1.6,22.23 264.8,19.383 1.6,-22.254"
         style="fill:#ffffff;fill-opacity:1;fill-rule:nonzero;stroke:none"
         id="path22" /><path
         d="m 5639.36,638.031 c 0.67,0.328 1.24,0.828 1.66,1.481 8.86,13.718 18.28,20.898 18.36,20.968 1.86,1.399 2.19,3.95 0.74,5.719 -1.45,1.762 -4.16,2 -5.99,0.672 -0.44,-0.332 -10.66,-8.07 -20.39,-23.141 -1.24,-1.921 -0.62,-4.421 1.4,-5.589 1.32,-0.782 2.94,-0.77 4.22,-0.11"
         style="fill:#ffffff;fill-opacity:1;fill-rule:nonzero;stroke:none"
         id="path24" /><path
         d="m 5660.96,629.281 c 0.66,0.328 1.24,0.828 1.66,1.481 8.85,13.718 18.27,20.898 18.36,20.968 1.86,1.399 2.18,3.95 0.73,5.719 -1.45,1.762 -4.17,2.02 -5.99,0.672 -0.44,-0.332 -10.66,-8.07 -20.39,-23.141 -1.24,-1.921 -0.61,-4.421 1.4,-5.589 1.33,-0.782 2.94,-0.77 4.23,-0.11"
         style="fill:#ffffff;fill-opacity:1;fill-rule:nonzero;stroke:none"
         id="path26" /><path
         d="m 5682.55,620.531 c 0.66,0.328 1.24,0.84 1.66,1.481 8.86,13.718 18.27,20.898 18.37,20.968 1.85,1.399 2.19,3.95 0.72,5.719 -1.45,1.762 -4.17,2.031 -5.99,0.672 -0.44,-0.332 -10.66,-8.07 -20.39,-23.133 -1.24,-1.918 -0.61,-4.429 1.4,-5.597 1.33,-0.77 2.94,-0.762 4.23,-0.11"
         style="fill:#ffffff;fill-opacity:1;fill-rule:nonzero;stroke:none"
         id="path28" /><path
         d="m 5440.48,1587.28 35.05,-92.48 146.72,-370.33 33.8,-387.49 c 0,0 -161.27,-16.621 -166.9,-15.308 -5.63,1.32 -41.53,362.078 -41.53,362.078 l -163.61,338.96 17.96,186.53 138.51,-21.96"
         style="fill:#342834;fill-opacity:1;fill-rule:nonzero;stroke:none"
         id="path30" /><path
         d="m 5045.32,671.641 87.49,169.531 -87,20.488 -76.43,-181.012 75.26,-16.386 0.68,7.379"
         style="fill:#a24949;fill-opacity:1;fill-rule:nonzero;stroke:none"
         id="path32" /><path
         d="m 4973.52,719.789 c 0,0 48.47,-47.98 91.43,-21.418 l 111.73,-131.242 -244.96,102.402 41.8,50.258"
         style="fill:#201718;fill-opacity:1;fill-rule:nonzero;stroke:none"
         id="path34" /><path
         d="m 5168.05,546.57 -244.95,102.399 8.62,20.562 244.96,-102.402 -8.63,-20.559"
         style="fill:#ffffff;fill-opacity:1;fill-rule:nonzero;stroke:none"
         id="path36" /><path
         d="m 5050.36,667.051 c 0.73,0 1.48,0.191 2.15,0.57 14.1,8.25 25.74,10.391 25.86,10.41 2.28,0.41 3.74,2.551 3.23,4.77 -0.49,2.23 -2.8,3.668 -5.04,3.301 -0.53,-0.082 -13.15,-2.383 -28.64,-11.411 -1.97,-1.16 -2.55,-3.679 -1.29,-5.632 0.84,-1.289 2.29,-2.008 3.73,-2.008"
         style="fill:#ffffff;fill-opacity:1;fill-rule:nonzero;stroke:none"
         id="path38" /><path
         d="m 5065.67,649.48 c 0.74,0 1.48,0.192 2.14,0.579 14.11,8.242 25.75,10.382 25.86,10.41 2.3,0.402 3.74,2.543 3.24,4.761 -0.49,2.231 -2.81,3.711 -5.05,3.309 -0.52,-0.09 -13.15,-2.379 -28.63,-11.418 -1.98,-1.16 -2.56,-3.672 -1.29,-5.633 0.84,-1.277 2.28,-1.996 3.73,-2.008"
         style="fill:#ffffff;fill-opacity:1;fill-rule:nonzero;stroke:none"
         id="path40" /><path
         d="m 5080.98,631.922 c 0.73,0 1.47,0.187 2.14,0.578 14.11,8.23 25.75,10.379 25.86,10.398 2.29,0.411 3.74,2.543 3.24,4.782 -0.49,2.211 -2.81,3.691 -5.04,3.3 -0.54,-0.101 -13.16,-2.39 -28.65,-11.421 -1.97,-1.149 -2.54,-3.668 -1.28,-5.618 0.84,-1.289 2.28,-2.011 3.73,-2.019"
         style="fill:#ffffff;fill-opacity:1;fill-rule:nonzero;stroke:none"
         id="path42" /><path
         d="m 5362.85,1442.52 -70.05,-350.03 -184.88,-350.959 -147.06,48.789 132.83,335.28 34.28,236.55 c 0,0 8.2,187.79 76.09,263.01 l 148.52,-59.96 10.27,-122.68"
         style="fill:#342834;fill-opacity:1;fill-rule:nonzero;stroke:none"
         id="path44" /><path
         d="m 5337.36,1309.96 55.96,55.5"
         style="fill:none;stroke:#1d1927;stroke-width:8.55889;stroke-linecap:butt;stroke-linejoin:miter;stroke-miterlimit:10;stroke-dasharray:none;stroke-opacity:1"
         id="path46" /><path
         d="m 5503.92,1915.04 67.57,-173.1 -89.26,-75.99 -35.31,222.87 57,26.22"
         style="fill:#a24949;fill-opacity:1;fill-rule:nonzero;stroke:none"
         id="path48" /><path
         d="m 5418.99,2033.09 c 0,0 60.76,-17.88 126.47,-137.5 l -110.19,-57.29 -16.28,194.79"
         style="fill:#f4ac29;fill-opacity:1;fill-rule:nonzero;stroke:none"
         id="path50" /><path
         d="m 5246.55,2069.85 -137.5,-63.08 19.95,-334.58 -0.58,-218.89 378.7,28.38 -49.88,474.24 -38.25,77.17 -97.42,36.76 h -75.02"
         style="fill:#f4ac29;fill-opacity:1;fill-rule:nonzero;stroke:none"
         id="path52" /><path
         d="m 5164.34,1826.28 -77.01,-176.13 c -10.91,-27.46 -42.35,-40.49 -69.49,-28.8 v 0 c -24.6,10.58 -37.27,37.99 -29.41,63.58 l 57.54,184.96 118.37,-43.61"
         style="fill:#a24949;fill-opacity:1;fill-rule:nonzero;stroke:none"
         id="path54" /><path
         d="m 5156.64,1808.79 45.16,96.6 c 14.97,37.4 -1.55,80.01 -37.82,97.55 v 0 c -38.8,18.77 -81.85,1.38 -99.64,-37.88 l -44.07,-109.56 136.37,-46.71"
         style="fill:#f4ac29;fill-opacity:1;fill-rule:nonzero;stroke:none"
         id="path56" /><path
         d="M 5924.51,787.852 4976.06,2280.8"
         style="fill:none;stroke:#201718;stroke-width:20.1202;stroke-linecap:butt;stroke-linejoin:miter;stroke-miterlimit:10;stroke-dasharray:none;stroke-opacity:1"
         id="path58" /><path
         d="m 5886.85,776.699 c 2.06,-5.117 24.35,-39.929 24.35,-39.929 h 83.16 l -21.5,39.929 h -86.01"
         style="fill:#201718;fill-opacity:1;fill-rule:nonzero;stroke:none"
         id="path60" /><path
         d="m 5982.25,776.699 h -112.99 c -13.29,0 -24.07,10.77 -24.07,24.063 v 0 c 0,13.289 10.78,24.058 24.07,24.058 h 112.99 c 13.28,0 24.06,-10.769 24.06,-24.058 v 0 c 0,-13.293 -10.78,-24.063 -24.06,-24.063"
         style="fill:#f4ac29;fill-opacity:1;fill-rule:nonzero;stroke:none"
         id="path62" /><path
         d="m 5911.2,736.77 c 0,0 -83.45,-9.54 7.16,-109.891 l 2.08,-1.91 c 47.55,-43.598 109.72,-67.789 174.23,-67.789 h 280.99 c 8.4,0 15.22,6.8 15.22,15.199 v 0 c 0,7.941 -6.11,14.551 -14.03,15.172 l -146.26,11.437 c 0,0 6.96,55.762 -125.45,62.731 0,0 0.07,72.043 -110.78,75.051 h -83.16"
         style="fill:#f4ac29;fill-opacity:1;fill-rule:nonzero;stroke:none"
         id="path64" /><path
         d="m 5492.01,1746.04 -89.44,-125.97 54.67,-44.16 107,109.95 c 18.28,18.79 17.73,48.88 -1.22,66.98 v 0 c -20.79,19.86 -54.36,16.64 -71.01,-6.8"
         style="fill:#a24949;fill-opacity:1;fill-rule:nonzero;stroke:none"
         id="path66" /><path
         d="m 5445.82,1532.76 c 29.57,17 39.77,54.75 22.76,84.32 -16.99,29.57 -54.74,39.76 -84.31,22.76 -29.57,-17 -39.76,-54.74 -22.77,-84.31 17.01,-29.57 54.75,-39.77 84.32,-22.77"
         style="fill:#a24949;fill-opacity:1;fill-rule:nonzero;stroke:none"
         id="path68" /><path
         d="m 5355.89,1603.89 c 0,0 -20.61,19.19 6.17,37.45 26.77,18.25 71.45,27.03 106.52,-24.26 l -112.69,-13.19"
         style="fill:#a24949;fill-opacity:1;fill-rule:nonzero;stroke:none"
         id="path70" /><path
         d="m 5279.55,1698.39 c -34.01,2.47 -59.59,32.05 -57.13,66.06 2.47,34.02 32.04,59.59 66.07,57.13 34.01,-2.47 59.59,-32.04 57.12,-66.06 -2.47,-34.02 -32.04,-59.59 -66.06,-57.13"
         style="fill:#a24949;fill-opacity:1;fill-rule:nonzero;stroke:none"
         id="path72" /><path
         d="m 5329.67,1801.52 c 0,0 10.22,26.24 -21.83,31.06 -32.04,4.81 -76.09,-6.69 -85.42,-68.13 l 107.25,37.07"
         style="fill:#a24949;fill-opacity:1;fill-rule:nonzero;stroke:none"
         id="path74" /><path
         d="m 4993.99,1639.69 v 0 c 11.7,-29.06 47.45,-39.61 73.04,-21.55 l 219.38,110.89 -18.16,67.77 -252.16,-96.2 c -21.81,-11.7 -31.33,-37.94 -22.1,-60.91"
         style="fill:#a24949;fill-opacity:1;fill-rule:nonzero;stroke:none"
         id="path76" /><path
         d="m 5373.23,2216.07 c -3.45,-19.32 8.94,-37.76 27.64,-41.18 18.71,-3.42 36.67,9.48 40.12,28.8 3.43,19.34 -8.94,37.78 -27.65,41.19 -18.71,3.42 -36.66,-9.48 -40.11,-28.81"
         style="fill:#41231c;fill-opacity:1;fill-rule:nonzero;stroke:none"
         id="path78" /><path
         d="m 5348.64,2137.14 -9.3,-84.42 c -3.22,-29.65 -22.62,-43.52 -50.85,-40.11 v 0 c -24.11,2.9 -49.32,17.53 -45.38,43.54 l 10.65,132.5 94.88,-51.51"
         style="fill:#a24949;fill-opacity:1;fill-rule:nonzero;stroke:none"
         id="path80" /><path
         d="m 5320.75,2104.41 v 0 c 48.2,-5.42 92.31,29.43 98.19,69.93 l 11.87,84.78 c 7.38,50.75 -25.54,98.13 -74.41,107.05 v 0 c -50.03,9.14 -106.82,-23.74 -116.03,-75.43 l -8.45,-66.18 c -7.66,-59.57 31.6,-109.69 88.83,-120.15"
         style="fill:#a24949;fill-opacity:1;fill-rule:nonzero;stroke:none"
         id="path82" /><path
         d="m 5420.88,2188.11 c 0,0 -2.19,-29.67 -26.02,-35.68 0,0 -25.38,21.7 -67.4,8.37 -42.01,-13.34 -72.6,70.83 -72.6,70.83 l -22.41,-39.8 c 0,0 -6.75,-99.19 108.52,-98.94 20.32,0.05 74.51,11 77.97,81.45"
         style="fill:#201718;fill-opacity:1;fill-rule:nonzero;stroke:none"
         id="path84" /><path
         d="m 5428.51,2300.81 c 0,0 -62.27,-12.12 -148.83,9.97 l -0.53,-33.1 c 0,0 -20.56,-22.2 -24.29,-46.05 l -25.24,17.52 -6.1,38.58 c -2.91,18.32 0.53,37.45 11.2,52.61 18.94,26.94 56.91,43.85 110.61,36.38 53.71,-7.47 78.55,-47.33 83.18,-75.91 v 0"
         style="fill:#201718;fill-opacity:1;fill-rule:nonzero;stroke:none"
         id="path86" /><path
         d="m 5371.57,2189.24 -0.14,-17.12 -11.97,0.87"
         style="fill:none;stroke:#201718;stroke-width:4.96592;stroke-linecap:round;stroke-linejoin:round;stroke-miterlimit:10;stroke-dasharray:none;stroke-opacity:1"
         id="path88" /><path
         d="m 5331.49,2262.2 c 0,0 19.94,-0.49 19.22,-8.82 0,0 -0.63,-5.62 -17.99,-4.84 -17.34,0.77 -21.69,2.56 -22.68,8.01 -1,5.45 12.19,6.6 21.45,5.65"
         style="fill:#201718;fill-opacity:1;fill-rule:nonzero;stroke:none"
         id="path90" /><path
         d="m 5406.91,2254.6 c 0,0 -16.11,3.52 -18.3,-4.13 0,0 -1.34,-5.2 12.8,-7.95 14.14,-2.75 18.99,-1.39 20.8,2.72 2.06,4.66 -7.56,8.38 -15.3,9.36"
         style="fill:#201718;fill-opacity:1;fill-rule:nonzero;stroke:none"
         id="path92" /><path
         d="m 5390.16,2206.11 c -0.67,-4.7 2.49,-9.05 7.05,-9.7 4.56,-0.67 8.79,2.62 9.46,7.33 0.66,4.71 -2.49,9.06 -7.05,9.72 -4.56,0.65 -8.8,-2.64 -9.46,-7.35"
         style="fill:#201718;fill-opacity:1;fill-rule:nonzero;stroke:none"
         id="path94" /><path
         d="m 5317.8,2216.56 c -0.67,-4.71 2.48,-9.06 7.04,-9.71 4.56,-0.66 8.8,2.62 9.47,7.33 0.67,4.72 -2.48,9.06 -7.04,9.72 -4.57,0.65 -8.8,-2.63 -9.47,-7.34"
         style="fill:#201718;fill-opacity:1;fill-rule:nonzero;stroke:none"
         id="path96" /><path
         d="m 5361.31,2201.15 c -2.47,-19.91 -20.62,-34.04 -40.53,-31.57 -19.9,2.47 -34.04,20.62 -31.57,40.52 2.47,19.91 20.61,34.05 40.53,31.58 19.9,-2.48 34.04,-20.62 31.57,-40.53 z"
         style="fill:none;stroke:#ffffff;stroke-width:2.99472;stroke-linecap:butt;stroke-linejoin:miter;stroke-miterlimit:10;stroke-dasharray:none;stroke-opacity:1"
         id="path98" /><path
         d="m 5447.19,2190.8 c -2.47,-19.91 -19.98,-34.12 -39.1,-31.75 -19.12,2.38 -32.61,20.44 -30.14,40.34 2.47,19.92 19.97,34.14 39.09,31.76 19.12,-2.37 32.62,-20.44 30.15,-40.35 z"
         style="fill:none;stroke:#ffffff;stroke-width:2.93473;stroke-linecap:butt;stroke-linejoin:miter;stroke-miterlimit:10;stroke-dasharray:none;stroke-opacity:1"
         id="path100" /><path
         d="m 5361.21,2198.89 16.82,-1.77"
         style="fill:none;stroke:#ffffff;stroke-width:2.93473;stroke-linecap:butt;stroke-linejoin:miter;stroke-miterlimit:10;stroke-dasharray:none;stroke-opacity:1"
         id="path102" /><path
         d="m 5289.72,2214.18 -40.01,24.15"
         style="fill:none;stroke:#ffffff;stroke-width:2.93473;stroke-linecap:butt;stroke-linejoin:miter;stroke-miterlimit:10;stroke-dasharray:none;stroke-opacity:1"
         id="path104" /><path
         d="m 5187.8,2231.13 c -3.41,-19.14 8.85,-37.4 27.38,-40.78 18.52,-3.39 36.3,9.39 39.71,28.53 3.41,19.14 -8.85,37.4 -27.37,40.78 -18.53,3.39 -36.31,-9.39 -39.72,-28.53"
         style="fill:#a24949;fill-opacity:1;fill-rule:nonzero;stroke:none"
         id="path106" /><path
         d="m 5231.23,2212.56 c 0,0 4.48,25.13 -19.48,25.42"
         style="fill:none;stroke:#201718;stroke-width:4.96592;stroke-linecap:round;stroke-linejoin:round;stroke-miterlimit:10;stroke-dasharray:none;stroke-opacity:1"
         id="path108" /><path
         d="m 5247.35,2069.25 -45.25,-19.8 c 0,0 -0.71,-71.2 107.89,-60.45 0,0 61.52,8.67 59.63,62.72 l -61.53,25.41 -60.74,-7.88"
         style="fill:#a24949;fill-opacity:1;fill-rule:nonzero;stroke:none"
         id="path110" /><path
         d="m 4369.28,849.801 42.21,-291.102 h 298.88 l 32.08,291.102 h -373.17"
         style="fill:#45b1d0;fill-opacity:1;fill-rule:nonzero;stroke:none"
         id="path112" /><path
         d="m 4775.34,907.23 h -438.95 v -57.429 h 438.95 v 57.429"
         style="fill:#87d8e9;fill-opacity:1;fill-rule:nonzero;stroke:none"
         id="path114" /><path
         d="m 4775.34,855.082 v -5.281 h -18.48 c 18.58,-26.942 25.53,-49.449 20.39,-67.012 -3.54,-12.109 -12.91,-21.66 -27.84,-28.398 -10.6,-4.782 -22.69,-7.852 -35.91,-9.121 -87.68,-8.391 -157.31,3.222 -207.06,34.5 -63.45,39.89 -72.13,98.968 -72.22,99.562 l -19.38,-1.613 c 0.36,-2.66 9.41,-65.828 79.21,-109.848 42.88,-27.039 98.72,-40.652 166.54,-40.652 17.6,0 36.03,0.922 55.25,2.761 15.81,1.508 30.35,5.231 43.22,11.04 19.56,8.82 32.41,22.07 37.17,38.3 6.07,20.739 -1.03,46.172 -20.89,75.762"
         style="fill:#342834;fill-opacity:1;fill-rule:nonzero;stroke:none"
         id="path116" /><path
         d="m 6511.06,1994.18 c -0.09,47.7 -40.38,78.3 -89.98,78.19 -49.6,-0.1 -89.74,-30.9 -89.64,-78.59 0.07,-31.23 17.38,-58.55 43.24,-73.66 l 93.48,0.2 c 25.79,15.23 42.97,42.63 42.9,73.86"
         style="fill:#f8fcf3;fill-opacity:1;fill-rule:nonzero;stroke:none"
         id="path118" /><path
         d="m 6666.77,1875.77 -900.42,-1.98 -0.11,45.79 900.43,1.98 0.1,-45.79"
         style="fill:#8e98c8;fill-opacity:1;fill-rule:nonzero;stroke:none"
         id="path120" /><path
         d="m 5895.19,1921.13 -40.51,-0.08 c -4.91,-0.02 -8.91,3.95 -8.92,8.86 l -0.6,275.73 c -0.01,4.91 3.96,8.9 8.87,8.91 l 40.51,0.09 c 4.91,0.01 8.91,-3.97 8.92,-8.88 l 0.6,-275.72 c 0.01,-4.91 -3.96,-8.9 -8.87,-8.91"
         style="fill:#f8fcf3;fill-opacity:1;fill-rule:nonzero;stroke:none"
         id="path122" /><path
         d="m 5966.8,1921.29 -40.52,-0.09 c -4.9,-0.01 -8.9,3.96 -8.91,8.87 l -0.6,275.72 c -0.01,4.91 3.95,8.91 8.86,8.92 l 40.52,0.09 c 4.91,0 8.91,-3.97 8.92,-8.87 l 0.6,-275.73 c 0.01,-4.92 -3.96,-8.9 -8.87,-8.91"
         style="fill:#f8fcf3;fill-opacity:1;fill-rule:nonzero;stroke:none"
         id="path124" /><path
         d="m 6036.43,1921.44 -40.52,-0.09 c -4.91,-0.01 -8.91,3.96 -8.92,8.87 l -0.6,275.73 c -0.01,4.91 3.96,8.9 8.87,8.91 l 40.52,0.09 c 4.9,0.01 8.9,-3.96 8.91,-8.88 l 0.6,-275.72 c 0.01,-4.91 -3.95,-8.89 -8.86,-8.91"
         style="fill:#f8fcf3;fill-opacity:1;fill-rule:nonzero;stroke:none"
         id="path126" /><path
         d="m 6228.89,1952.81 -36.19,-22.65 c -3.93,-2.46 -8.97,-1.02 -11.25,3.23 l -128.22,238.5 c -2.27,4.24 -0.94,9.69 2.99,12.15 l 36.18,22.66 c 3.93,2.47 8.98,1.02 11.25,-3.22 l 128.22,-238.51 c 2.28,-4.25 0.94,-9.69 -2.98,-12.16"
         style="fill:#efb043;fill-opacity:1;fill-rule:nonzero;stroke:none"
         id="path128" /><path
         d="m 6309.69,1953 -36.17,-22.67 c -3.94,-2.46 -8.98,-1.01 -11.26,3.23 l -128.22,238.51 c -2.28,4.25 -0.94,9.69 2.99,12.15 l 36.17,22.67 c 3.94,2.46 8.98,1.01 11.26,-3.24 l 128.22,-238.5 c 2.28,-4.25 0.94,-9.69 -2.99,-12.15"
         style="fill:#efb043;fill-opacity:1;fill-rule:nonzero;stroke:none"
         id="path130" /><path
         d="m 4623.53,2044.66 c 0.17,-83.08 -67.03,-150.58 -150.1,-150.75 -83.09,-0.19 -150.59,67.01 -150.76,150.09 -0.19,83.08 67.01,150.58 150.09,150.77 83.08,0.17 150.58,-67.03 150.77,-150.11"
         style="fill:#edebea;fill-opacity:1;fill-rule:nonzero;stroke:none"
         id="path132" /><path
         d="m 4472.79,2180.73 c -74.14,-0.16 -134.32,-60.61 -134.16,-134.75 0.17,-74.14 60.62,-134.33 134.76,-134.16 74.14,0.16 134.31,60.61 134.16,134.75 -0.17,74.14 -60.62,134.33 -134.76,134.16"
         style="fill:#ffffff;fill-opacity:1;fill-rule:nonzero;stroke:none"
         id="path134" /><path
         d="m 4472.81,2171.34 c -68.96,-0.15 -124.94,-56.38 -124.78,-125.34 0.14,-68.97 56.37,-124.95 125.33,-124.79 68.96,0.15 124.95,56.38 124.79,125.33 -0.15,68.97 -56.37,124.95 -125.34,124.8 z m 0.67,-299.72 c -96.31,-0.21 -174.83,77.96 -175.04,174.27 -0.22,96.3 77.96,174.82 174.26,175.04 96.3,0.2 174.83,-77.97 175.04,-174.27 0.21,-96.31 -77.96,-174.82 -174.26,-175.04"
         style="fill:#8e98c8;fill-opacity:1;fill-rule:nonzero;stroke:none"
         id="path136" /><path
         d="m 4473.75,2016.79 c -2.95,-0.01 -5.8,1.6 -7.25,4.4 l -35.77,69.46 c -2.06,3.99 -0.49,8.89 3.51,10.95 3.98,2.05 8.88,0.49 10.95,-3.5 l 35.77,-69.46 c 2.06,-3.99 0.49,-8.89 -3.51,-10.95 -1.18,-0.61 -2.45,-0.9 -3.7,-0.9"
         style="fill:#201718;fill-opacity:1;fill-rule:nonzero;stroke:none"
         id="path138" /><path
         d="m 4444.47,2026.25 c -1.94,-0.01 -3.66,1.39 -4,3.36 -0.39,2.22 1.09,4.32 3.3,4.71 l 132.76,23.18 c 2.2,0.38 4.32,-1.08 4.71,-3.3 0.38,-2.21 -1.1,-4.32 -3.31,-4.71 l -132.75,-23.18 c -0.24,-0.04 -0.47,-0.06 -0.71,-0.06"
         style="fill:#201718;fill-opacity:1;fill-rule:nonzero;stroke:none"
         id="path140" /><path
         d="M 3929.96,553.648 H 6769.83"
         style="fill:none;stroke:#342834;stroke-width:10.2515;stroke-linecap:butt;stroke-linejoin:miter;stroke-miterlimit:10;stroke-dasharray:none;stroke-opacity:1"
         id="path142" /><path
         d="M 1590.31,1469.4 H 755.328 v 927.8 h 834.982 v -927.8"
         style="fill:#8e98c8;fill-opacity:1;fill-rule:nonzero;stroke:none"
         id="path144" /><path
         d="m 1125.19,2397.2 v -355.6 h 245.87 l 219.25,-185.08 v 540.68 h -465.12"
         style="fill:#3b4a8f;fill-opacity:1;fill-rule:nonzero;stroke:none"
         id="path146" /><path
         d="m 771.355,1485.44 h 802.925 v 895.72 H 771.355 Z m 834.985,-32.06 H 739.297 v 959.84 h 867.043 v -959.84"
         style="fill:#ffffff;fill-opacity:1;fill-rule:nonzero;stroke:none"
         id="path148" /><path
         d="M 1590.31,1835.4 H 755.328 v 25.54 h 834.982 v -25.54"
         style="fill:#ffffff;fill-opacity:1;fill-rule:nonzero;stroke:none"
         id="path150" /><path
         d="m 824.797,1897.72 h 10.9609 V 2397.2 H 824.797 Z"
         style="fill:#ffffff;fill-opacity:1;fill-rule:nonzero;stroke:none"
         id="path152" /><path
         d="M 1581.46,2353.44 H 755.328 v 10.95 h 826.132 v -10.95"
         style="fill:#ffffff;fill-opacity:1;fill-rule:nonzero;stroke:none"
         id="path154" /><path
         d="M 1581.46,2318 H 755.328 v 10.95 H 1581.46 V 2318"
         style="fill:#ffffff;fill-opacity:1;fill-rule:nonzero;stroke:none"
         id="path156" /><path
         d="M 1581.46,2278.45 H 755.328 v 10.95 h 826.132 v -10.95"
         style="fill:#ffffff;fill-opacity:1;fill-rule:nonzero;stroke:none"
         id="path158" /><path
         d="M 1581.46,2238.22 H 755.328 v 10.95 h 826.132 v -10.95"
         style="fill:#ffffff;fill-opacity:1;fill-rule:nonzero;stroke:none"
         id="path160" /><path
         d="M 1581.46,2200.85 H 755.328 v 10.96 h 826.132 v -10.96"
         style="fill:#ffffff;fill-opacity:1;fill-rule:nonzero;stroke:none"
         id="path162" /><path
         d="M 1581.46,2160.15 H 755.328 v 10.95 h 826.132 v -10.95"
         style="fill:#ffffff;fill-opacity:1;fill-rule:nonzero;stroke:none"
         id="path164" /><path
         d="M 1581.46,2117.31 H 755.328 v 10.95 h 826.132 v -10.95"
         style="fill:#ffffff;fill-opacity:1;fill-rule:nonzero;stroke:none"
         id="path166" /><path
         d="m 2189.09,821.23 17.7,-170.992 -77.53,3.344 -26.44,173.117 86.27,-5.469"
         style="fill:#f89ca3;fill-opacity:1;fill-rule:nonzero;stroke:none"
         id="path168" /><path
         d="m 2212.55,668.93 141.31,-64.43 c 9.25,-4.648 14.11,-15.031 11.76,-25.109 v 0 h -249.24 l 9.26,90.578 86.91,-1.039"
         style="fill:#201f38;fill-opacity:1;fill-rule:nonzero;stroke:none"
         id="path170" /><path
         d="m 2111.98,552.582 h 256.81 v 26.809 h -256.81 v -26.809"
         style="fill:#ffffff;fill-opacity:1;fill-rule:nonzero;stroke:none"
         id="path172" /><path
         d="m 2103.55,1595.42 120,-888.838 h -131.86 l -170.16,864.878 v 44.84 l 182.02,-20.88"
         style="fill:#2e3b5f;fill-opacity:1;fill-rule:nonzero;stroke:none"
         id="path174" /><path
         d="m 1959.27,647.02 c -3.42,-1.219 -100.16,-8.29 -100.16,-8.29 0,0 -14.61,-26.64 -0.6,-68.128 13.46,-39.903 75.88,-10.43 76.53,-24.032 0,0 33.23,2.481 33.62,40.192 0.37,35.457 -9.39,60.258 -9.39,60.258"
         style="fill:#ffffff;fill-opacity:1;fill-rule:nonzero;stroke:none"
         id="path176" /><path
         d="m 1946.17,669.02 -63.14,-1.379 c 0,0 -39.65,-27 -26.1,-68.653 13.56,-41.636 76.51,-28.386 76.51,-28.386 0,0 31.93,4.117 32.32,41.808 0.36,35.469 -19.59,56.61 -19.59,56.61"
         style="fill:#201f38;fill-opacity:1;fill-rule:nonzero;stroke:none"
         id="path178" /><path
         d="m 1946.17,669.02 17.71,150.46 -91.98,2.899 11.13,-154.738 63.14,1.379"
         style="fill:#f89ca3;fill-opacity:1;fill-rule:nonzero;stroke:none"
         id="path180" /><path
         d="m 1815.73,1652.12 c 0,0 -59.61,-39.29 -24.66,-355.96 34.96,-316.68 60.7,-589.578 60.7,-589.578 h 125.83 l 6.03,912.388 -167.9,33.15"
         style="fill:#2e3b5f;fill-opacity:1;fill-rule:nonzero;stroke:none"
         id="path182" /><path
         d="m 1983.63,1255.84 0.44,189.6"
         style="fill:none;stroke:#231a22;stroke-width:7.5;stroke-linecap:butt;stroke-linejoin:miter;stroke-miterlimit:10;stroke-dasharray:none;stroke-opacity:1"
         id="path184" /><path
         d="m 2207.2,1877.58 63.97,-189.56 c 10.22,-28.4 7.51,-59.63 -21.16,-69.04 v 0 c -25.98,-8.53 -54.21,3.88 -65.5,28.78 l -95.59,183.9 118.28,45.92"
         style="fill:#f89ca3;fill-opacity:1;fill-rule:nonzero;stroke:none"
         id="path186" /><path
         d="m 2235.77,1856.27 -37.04,104.46 c -15.36,47.71 -55.27,60.19 -94.89,49.08 v 0 c -42.38,-11.87 -63.57,-54.29 -50.64,-96.36 l 34.55,-116.05 148.02,58.87"
         style="fill:#73cbe7;fill-opacity:1;fill-rule:nonzero;stroke:none"
         id="path188" /><path
         d="m 2193.5,1697.11 v 0 c -20.45,-24.6 -12.6,-61.84 16.04,-76.07 l 210.81,-128.37 27.98,47.37 -189.38,166.75 c -21.1,13.93 -49.3,9.76 -65.45,-9.68"
         style="fill:#f89ca3;fill-opacity:1;fill-rule:nonzero;stroke:none"
         id="path190" /><path
         d="m 2409.03,1552.09 c 0,0 131.04,20.69 147.41,-53.51 l -137.23,-0.69 -10.18,54.2"
         style="fill:#f89ca3;fill-opacity:1;fill-rule:nonzero;stroke:none"
         id="path192" /><path
         d="m 2004.02,2084.97 -127.98,-0.22 -98.61,-452.58 c 0,0 117.14,-61.37 332.83,-36.75 l 60.44,406.03 -80.19,60.52 -86.49,23"
         style="fill:#73cbe7;fill-opacity:1;fill-rule:nonzero;stroke:none"
         id="path194" /><path
         d="m 2142.6,1818.75 17.89,104.14"
         style="fill:none;stroke:#55b9d5;stroke-width:7.5;stroke-linecap:butt;stroke-linejoin:miter;stroke-miterlimit:10;stroke-dasharray:none;stroke-opacity:1"
         id="path196" /><path
         d="m 1894.57,1894.8 -91.81,-173.49 c -13.21,-27.13 -46.21,-38.01 -72.97,-24.04 v 0 c -24.23,12.65 -35.05,41.53 -25.1,66.99 l 72.66,183.97 117.22,-53.43"
         style="fill:#f89ca3;fill-opacity:1;fill-rule:nonzero;stroke:none"
         id="path198" /><path
         d="m 1885.41,1877.58 53.33,94.94 c 18.1,36.94 4.52,81.59 -31.07,102.21 v 0 c -38.09,22.06 -83.26,7.63 -104.37,-30.99 l -58.98,-105.74 141.09,-60.42"
         style="fill:#73cbe7;fill-opacity:1;fill-rule:nonzero;stroke:none"
         id="path200" /><path
         d="m 1885.41,1877.58 43.34,81.8"
         style="fill:none;stroke:#55b9d5;stroke-width:7.5;stroke-linecap:butt;stroke-linejoin:miter;stroke-miterlimit:10;stroke-dasharray:none;stroke-opacity:1"
         id="path202" /><path
         d="m 1705.39,1762.5 v 0 c -13.11,-29.18 4.43,-62.95 35.84,-69 l 231.23,-67.19 22.21,47.09 -228.82,115.96 c -24.05,7.77 -50.1,-3.8 -60.46,-26.86"
         style="fill:#f89ca3;fill-opacity:1;fill-rule:nonzero;stroke:none"
         id="path204" /><path
         d="m 2008.64,1552.09 10.36,38.73 h 61.83 l 40.12,-38.73 z m 147.61,35.96 c -17.73,19.67 -42.99,30.92 -69.49,30.92 h -96.42 c -2.94,-1.49 -68.45,-52.45 -61.59,-92.36 h 282.87 l -55.37,61.44"
         style="fill:#ffffff;fill-opacity:1;fill-rule:nonzero;stroke:none"
         id="path206" /><path
         d="m 1928.75,1526.61 23.34,-28.03 h 278.17 l -18.64,28.03 h -282.87"
         style="fill:#ffffff;fill-opacity:1;fill-rule:nonzero;stroke:none"
         id="path208" /><path
         d="M 2211.62,1526.61 H 1928.75"
         style="fill:none;stroke:#d8d6d3;stroke-width:6.27325;stroke-linecap:butt;stroke-linejoin:miter;stroke-miterlimit:10;stroke-dasharray:none;stroke-opacity:1"
         id="path210" /><path
         d="m 1994.67,1673.4 c 0,0 108.81,-19.36 102.31,-95.72 0,0 -0.38,-13.35 -24.53,-13.15 -33.31,0.27 -47.32,0 -53.45,26.29 0,0 -60.46,20.15 -62.21,45.56 l 37.88,37.02"
         style="fill:#f89ca3;fill-opacity:1;fill-rule:nonzero;stroke:none"
         id="path212" /><path
         d="m 2168.16,2365.65 c 0,0 -166.95,89.56 -141.27,-107.55 l 42.52,57.93 98.75,49.62"
         style="fill:#f03d41;fill-opacity:1;fill-rule:nonzero;stroke:none"
         id="path214" /><path
         d="m 2227.08,2279.92 c 0,0 55.05,-30.32 -37.1,-82.41 l 17,89.81 20.1,-7.4"
         style="fill:#f03d41;fill-opacity:1;fill-rule:nonzero;stroke:none"
         id="path216" /><path
         d="m 2162.98,2197.3 c -6.53,-15.43 0.26,-33.12 15.17,-39.51 14.92,-6.39 32.3,0.93 38.83,16.35 6.53,15.42 -0.27,33.11 -15.18,39.5 -14.91,6.39 -32.29,-0.92 -38.82,-16.34"
         style="fill:#f35e6c;fill-opacity:1;fill-rule:nonzero;stroke:none"
         id="path218" /><path
         d="m 2116.4,2136.55 -25.89,-74.58 c -9.04,-26.21 -29.49,-34.76 -54.37,-25.85 v 0 c -21.24,7.62 -41.06,26.09 -32.12,48.85 l 37.03,117.87 75.35,-66.29"
         style="fill:#f7908e;fill-opacity:1;fill-rule:nonzero;stroke:none"
         id="path220" /><path
         d="m 2094.21,2072.07 c 0,0 -79.61,49.79 -55.8,125.55 7.09,22.58 80.79,-53.48 80.79,-53.48 l -24.99,-72.07"
         style="fill:#f35e6c;fill-opacity:1;fill-rule:nonzero;stroke:none"
         id="path222" /><path
         d="m 2084.36,2112.66 v 0 c 45.74,-18.58 85.75,12.7 92.04,31.68 l 39.67,85.77 c 17.18,44.47 -2.87,94.21 -45.31,112.4 v 0 c -43.45,18.62 -101.71,0.56 -120.74,-44.38 l -21.33,-58.24 c -19.26,-52.4 5.97,-105.92 55.67,-127.23"
         style="fill:#f7908e;fill-opacity:1;fill-rule:nonzero;stroke:none"
         id="path224" /><path
         d="m 2148.39,2179.59 -4.08,-17.86 -10.67,3.24"
         style="fill:none;stroke:#1a1c21;stroke-width:5.12894;stroke-linecap:round;stroke-linejoin:round;stroke-miterlimit:10;stroke-dasharray:none;stroke-opacity:1"
         id="path226" /><path
         d="m 2119.2,2239.92 c 0,0 17.96,-4.56 15.6,-11.96 0,0 -1.73,-4.96 -17.3,-0.67 -15.57,4.28 -19.13,6.8 -18.9,11.95 0.22,5.15 12.4,3.47 20.6,0.68"
         style="fill:#1a1c21;fill-opacity:1;fill-rule:nonzero;stroke:none"
         id="path228" /><path
         d="m 2189.35,2215.28 c 0,0 -13.88,6.53 -17.44,0.04 0,0 -2.3,-4.42 9.95,-9.84 12.24,-5.42 16.92,-5.19 19.41,-1.83 2.83,3.8 -5.12,9.15 -11.92,11.63"
         style="fill:#1a1c21;fill-opacity:1;fill-rule:nonzero;stroke:none"
         id="path230" /><path
         d="m 2166.86,2183.86 c -1.58,-4.13 0.38,-8.72 4.38,-10.27 3.99,-1.53 8.51,0.57 10.09,4.7 1.58,4.13 -0.39,8.72 -4.38,10.26 -4,1.54 -8.52,-0.56 -10.09,-4.69"
         style="fill:#1a1c21;fill-opacity:1;fill-rule:nonzero;stroke:none"
         id="path232" /><path
         d="m 2103.44,2208.27 c -1.58,-4.13 0.38,-8.72 4.38,-10.25 4,-1.55 8.51,0.56 10.1,4.69 1.57,4.13 -0.39,8.73 -4.39,10.26 -3.99,1.53 -8.51,-0.57 -10.09,-4.7"
         style="fill:#1a1c21;fill-opacity:1;fill-rule:nonzero;stroke:none"
         id="path234" /><path
         d="m 2098.59,2163.3 c 0,0 5.14,-11.97 22.88,-12.98"
         style="fill:none;stroke:#1a1c21;stroke-width:5.08354;stroke-linecap:round;stroke-linejoin:round;stroke-miterlimit:10;stroke-dasharray:none;stroke-opacity:1"
         id="path236" /><path
         d="m 2042.5,2243.7 c 0,0 24.45,-15.12 34.08,30.11 9.64,45.23 19.6,37.69 19.6,37.69 0,0 58.25,-67.56 125.9,-56.64 67.66,10.93 55.58,93.07 13.6,103.27 -41.12,9.99 -61.59,-5.51 -61.59,-5.51 l -51.87,11.65 h -55.6 l -24.12,-42.25 -15.61,-63.92 15.61,-14.4"
         style="fill:#f03d41;fill-opacity:1;fill-rule:nonzero;stroke:none"
         id="path238" /><path
         d="m 1988.64,2248.35 c -7.04,-16.64 0.29,-35.72 16.38,-42.62 16.09,-6.89 34.84,1.01 41.89,17.65 7.05,16.64 -0.28,35.72 -16.37,42.62 -16.1,6.89 -34.85,-1.01 -41.9,-17.65"
         style="fill:#f7908e;fill-opacity:1;fill-rule:nonzero;stroke:none"
         id="path240" /><path
         d="m 2024.17,2222.54 c 0,0 9.24,21.85 -12.41,27.06"
         style="fill:none;stroke:#1a1c21;stroke-width:5.12894;stroke-linecap:round;stroke-linejoin:round;stroke-miterlimit:10;stroke-dasharray:none;stroke-opacity:1"
         id="path242" /><path
         d="m 2208.41,2352.26 c 0,-18.62 -15.09,-33.71 -33.7,-33.71 -18.61,0 -33.7,15.09 -33.7,33.71 0,18.61 15.09,33.7 33.7,33.7 18.61,0 33.7,-15.09 33.7,-33.7"
         style="fill:#f03d41;fill-opacity:1;fill-rule:nonzero;stroke:none"
         id="path244" /><path
         d="m 2004.02,2084.97 -47.99,1.47 c 0,0 -11.46,-53.53 77.93,-72.85 0,0 82.44,-18.14 76.72,34.51 l -41.77,29.53 -64.89,7.34"
         style="fill:#f7908e;fill-opacity:1;fill-rule:nonzero;stroke:none"
         id="path246" /><path
         d="M 1633.34,1445.02 2477.07,549.23"
         style="fill:none;stroke:#342834;stroke-width:10.2515;stroke-linecap:butt;stroke-linejoin:miter;stroke-miterlimit:10;stroke-dasharray:none;stroke-opacity:1"
         id="path248" /><path
         d="M 2440.78,1445.02 1594.91,549.711"
         style="fill:none;stroke:#342834;stroke-width:10.2515;stroke-linecap:butt;stroke-linejoin:miter;stroke-miterlimit:10;stroke-dasharray:none;stroke-opacity:1"
         id="path250" /><path
         d="m 2853.38,1450.86 v 23.19 h -29.03 v -3.98 c -44.1,10.95 -123.83,8.1 -123.83,8.1 -169.13,-7.95 -1258.25,0 -1258.25,0 l -80.56,-43.51 h -42.81 v -23.13 h 109.38 1304.07 c 0,0 130.8,0.92 121.03,39.33"
         style="fill:#c2766c;fill-opacity:1;fill-rule:nonzero;stroke:none"
         id="path252" /><path
         d="m 1318.9,1434.66 h 1413.45 c 0,0 140.82,0.98 119.38,43.78 -13.9,27.77 -151.21,22.86 -151.21,22.86 -169.13,-7.96 -1258.25,0 -1258.25,0 l -123.37,-66.64"
         style="fill:#ecb2a6;fill-opacity:1;fill-rule:nonzero;stroke:none"
         id="path254" /><path
         d="m 1907.81,1497.89 11.08,-125.22 441.65,-7.83 -14.78,-79.46 144.13,-13.26 62.83,225.77 h -644.91"
         style="fill:#efb043;fill-opacity:1;fill-rule:nonzero;stroke:none"
         id="path256" /><path
         d="m 1475.4,705.992 c 0,0 -16.17,171.508 -131.82,126.199 -115.66,-45.312 -201.8,26.7 -270.02,-30.043 -68.21,-56.738 -90.626,-151.929 -90.626,-151.929 l 473.806,-74.457 18.66,130.23"
         style="fill:#efb043;fill-opacity:1;fill-rule:nonzero;stroke:none"
         id="path258" /><path
         d="m 961.816,618.809 c 0,0 16.168,171.511 131.824,126.203 115.65,-45.313 201.79,26.699 270.01,-30.043 68.22,-56.727 90.63,-151.93 90.63,-151.93 l -476.1,3.223 -16.364,52.547"
         style="fill:#73cbe7;fill-opacity:1;fill-rule:nonzero;stroke:none"
         id="path260" /><path
         d="M 889.512,981.988 972.926,563.039 H 1454.28 L 1537.7,995.73"
         style="fill:none;stroke:#ffffff;stroke-width:15.3847;stroke-linecap:butt;stroke-linejoin:miter;stroke-miterlimit:10;stroke-dasharray:none;stroke-opacity:1"
         id="path262" /><path
         d="m 1144.96,981.988 c -3.48,-1.886 15.64,-418.949 15.64,-418.949"
         style="fill:none;stroke:#ffffff;stroke-width:15.3847;stroke-linecap:butt;stroke-linejoin:miter;stroke-miterlimit:10;stroke-dasharray:none;stroke-opacity:1"
         id="path264" /><path
         d="m 1018.64,981.988 c -3.47,-1.886 31.02,-418.949 31.02,-418.949"
         style="fill:none;stroke:#ffffff;stroke-width:15.3847;stroke-linecap:butt;stroke-linejoin:miter;stroke-miterlimit:10;stroke-dasharray:none;stroke-opacity:1"
         id="path266" /><path
         d="m 1410.06,981.988 c 3.48,-1.886 -46.41,-418.949 -46.41,-418.949"
         style="fill:none;stroke:#ffffff;stroke-width:15.3847;stroke-linecap:butt;stroke-linejoin:miter;stroke-miterlimit:10;stroke-dasharray:none;stroke-opacity:1"
         id="path268" /><path
         d="m 1285.72,974.879 -22.59,-411.84"
         style="fill:none;stroke:#ffffff;stroke-width:15.3847;stroke-linecap:butt;stroke-linejoin:miter;stroke-miterlimit:10;stroke-dasharray:none;stroke-opacity:1"
         id="path270" /><path
         d="M 1580.55,953.059 H 847.434 v 57.871 h 733.116 v -57.871"
         style="fill:#ffffff;fill-opacity:1;fill-rule:nonzero;stroke:none"
         id="path272" /><path
         d="M 1475.4,672.57 H 951.113"
         style="fill:none;stroke:#ffffff;stroke-width:15.3847;stroke-linecap:butt;stroke-linejoin:miter;stroke-miterlimit:10;stroke-dasharray:none;stroke-opacity:1"
         id="path274" /><path
         d="M 1493.98,768.961 H 931.926"
         style="fill:none;stroke:#ffffff;stroke-width:15.3847;stroke-linecap:butt;stroke-linejoin:miter;stroke-miterlimit:10;stroke-dasharray:none;stroke-opacity:1"
         id="path276" /><path
         d="M 1512.56,865.352 H 912.734"
         style="fill:none;stroke:#ffffff;stroke-width:15.3847;stroke-linecap:butt;stroke-linejoin:miter;stroke-miterlimit:10;stroke-dasharray:none;stroke-opacity:1"
         id="path278" /><path
         d="M 731.461,549.711 H 3249.58"
         style="fill:none;stroke:#342834;stroke-width:10.2515;stroke-linecap:butt;stroke-linejoin:miter;stroke-miterlimit:10;stroke-dasharray:none;stroke-opacity:1"
         id="path280" /><path
         d="m 4177.03,2845.21 h -42.37 l -8.76,162.46 h 60.55 l -9.42,-162.46"
         style="fill:#342834;fill-opacity:1;fill-rule:nonzero;stroke:none"
         id="path282" /><path
         d="m 5570.57,2845.21 h -42.37 l -8.77,162.46 h 60.56 l -9.42,-162.46"
         style="fill:#342834;fill-opacity:1;fill-rule:nonzero;stroke:none"
         id="path284" /><path
         d="m 5718.14,3650.22 -61.66,5.65 -146.31,-60.1 v -256.42 h 207.97 v 310.87"
         style="fill:#45b1d0;fill-opacity:1;fill-rule:nonzero;stroke:none"
         id="path286" /><path
         d="m 3988.47,3650.22 61.66,5.65 146.32,-60.1 v -256.42 h -207.98 v 310.87"
         style="fill:#45b1d0;fill-opacity:1;fill-rule:nonzero;stroke:none"
         id="path288" /><path
         d="M 5432.73,3832.21 H 4273.88 c -44.97,0 -81.44,-36.46 -81.44,-81.44 v -506.32 c 0,-44.98 36.47,-81.44 81.44,-81.44 h 331.07 408.83 418.95 c 44.98,0 81.44,36.46 81.44,81.44 v 506.32 c 0,44.98 -36.46,81.44 -81.44,81.44"
         style="fill:#73cbe7;fill-opacity:1;fill-rule:nonzero;stroke:none"
         id="path290" /><path
         d="m 5764.55,2928.13 h -193.84 v 611.67 c 0,67.05 54.36,121.4 121.4,121.4 v 0 c 67.04,0 121.39,-54.35 121.39,-121.4 v -562.72 c 0,-27.04 -21.92,-48.95 -48.95,-48.95"
         style="fill:#73cbe7;fill-opacity:1;fill-rule:nonzero;stroke:none"
         id="path292" /><path
         d="m 3942.07,2928.13 h 193.83 v 611.67 c 0,67.05 -54.35,121.4 -121.4,121.4 v 0 c -67.04,0 -121.39,-54.35 -121.39,-121.4 v -562.72 c 0,-27.04 21.92,-48.95 48.96,-48.95"
         style="fill:#73cbe7;fill-opacity:1;fill-rule:nonzero;stroke:none"
         id="path294" /><path
         d="M 5013.78,3076.83 H 4135.9 v -148.7 h 1434.81 v 148.7 h -556.93"
         style="fill:#73cbe7;fill-opacity:1;fill-rule:nonzero;stroke:none"
         id="path296" /><path
         d="M 5013.78,3339.35 H 4135.9 v -262.52 h 1434.81 v 262.52 h -556.93"
         style="fill:#87d8e9;fill-opacity:1;fill-rule:nonzero;stroke:none"
         id="path298" /><path
         d="M 5510.17,3397.08 H 4196.45 l -60.55,-57.73 h 1434.81 l -60.54,57.73"
         style="fill:#45b1d0;fill-opacity:1;fill-rule:nonzero;stroke:none"
         id="path300" /><path
         d="M 5570.71,3093.56 H 4135.9 v -16.73 h 1434.81 v 16.73"
         style="fill:#45b1d0;fill-opacity:1;fill-rule:nonzero;stroke:none"
         id="path302" /><path
         d="m 5006.67,3404.84 -241.66,-18.65 c -27.03,-2.08 -50.65,18.14 -52.73,45.18 l -14.62,189.39 c -2.08,27.04 18.14,50.65 45.17,52.73 l 241.66,18.66 c 27.04,2.08 50.66,-18.14 52.74,-45.18 l 14.62,-189.39 c 2.09,-27.04 -18.14,-50.65 -45.18,-52.74"
         style="fill:#f8fcf3;fill-opacity:1;fill-rule:nonzero;stroke:none"
         id="path304" /><path
         d="m 5323.11,3367.24 h -242.38 c -27.12,0 -49.1,21.98 -49.1,49.1 v 189.96 c 0,27.11 21.98,49.1 49.1,49.1 h 242.38 c 27.12,0 49.11,-21.99 49.11,-49.1 v -189.96 c 0,-27.12 -21.99,-49.1 -49.11,-49.1"
         style="fill:#efb043;fill-opacity:1;fill-rule:nonzero;stroke:none"
         id="path306" /><path
         d="m 4762.29,4114.43 v 461.94 h -817.94 v -461.94 z m 41.97,501.27 0.65,-539.47 -898.25,-1.13 -0.65,539.47 898.25,1.13"
         style="fill:#8e98c8;fill-opacity:1;fill-rule:nonzero;stroke:none"
         id="path308" /><path
         d="m 4772.5,4585.67 v -480.54 h -838.35 v 480.54 h 838.35"
         style="fill:#f4efe8;fill-opacity:1;fill-rule:nonzero;stroke:none"
         id="path310" /><path
         d="m 4692.59,4512.33 v -334.3 h -684.97 v 334.3 h 684.97"
         style="fill:#3b4a8f;fill-opacity:1;fill-rule:nonzero;stroke:none"
         id="path312" /><path
         d="m 4262.44,4343.89 c 0,-47.59 -38.57,-86.16 -86.15,-86.16 -47.58,0 -86.15,38.57 -86.15,86.16 0,47.57 38.57,86.15 86.15,86.15 47.58,0 86.15,-38.58 86.15,-86.15"
         style="fill:#ffffff;fill-opacity:1;fill-rule:nonzero;stroke:none"
         id="path314" /><path
         d="m 4462.39,4343.89 c 0,-47.59 -38.57,-86.16 -86.15,-86.16 -47.59,0 -86.15,38.57 -86.15,86.16 0,47.57 38.56,86.15 86.15,86.15 47.58,0 86.15,-38.58 86.15,-86.15"
         style="fill:#efb043;fill-opacity:1;fill-rule:nonzero;stroke:none"
         id="path316" /><path
         d="m 4601.38,4342.77 c 0,-15.47 -12.55,-28.02 -28.03,-28.02 -15.48,0 -28.02,12.55 -28.02,28.02 0,15.48 12.54,28.03 28.02,28.03 15.48,0 28.03,-12.55 28.03,-28.03"
         style="fill:#efb043;fill-opacity:1;fill-rule:nonzero;stroke:none"
         id="path318" /><path
         d="m 4573.35,4256.6 c -43.39,0 -78.57,-35.17 -78.57,-78.57 h 157.13 c 0,43.4 -35.16,78.57 -78.56,78.57"
         style="fill:#ffffff;fill-opacity:1;fill-rule:nonzero;stroke:none"
         id="path320" /><path
         d="m 4176.29,4452.97 c 33.25,0 60.2,26.95 60.2,60.2 h -120.41 c 0,-33.25 26.96,-60.2 60.21,-60.2"
         style="fill:#efb043;fill-opacity:1;fill-rule:nonzero;stroke:none"
         id="path322" /><path
         d="m 5467.96,3062.9 -22.45,-142.88 78.07,2.4 27.98,134.24 -83.6,6.24"
         style="fill:#f89ca3;fill-opacity:1;fill-rule:nonzero;stroke:none"
         id="path324" /><path
         d="m 5447.95,2939.34 -130.41,-49.53 c -8.54,-4.21 -13.04,-13.84 -10.86,-23.27 v 0 l 229.97,-2.92 -8.51,75.67 -80.19,0.05"
         style="fill:#201f38;fill-opacity:1;fill-rule:nonzero;stroke:none"
         id="path326" /><path
         d="m 5540.69,2838.57 -236.95,3.02 0.01,24.99 236.96,-3.01 -0.02,-25"
         style="fill:#ffffff;fill-opacity:1;fill-rule:nonzero;stroke:none"
         id="path328" /><path
         d="m 5676.54,3886.49 -4.69,-12.9 c -46.69,-73.27 -90.19,-165.2 -119.86,-246.61 l -90.93,-249.44 -32.52,-353.37 156.07,-10.67 39.61,320.5 184.48,341.61 -9.69,199.42 -122.47,11.46"
         style="fill:#2e3b5f;fill-opacity:1;fill-rule:nonzero;stroke:none"
         id="path330" /><path
         d="m 5964.27,3128.38 82.24,-129.06 66.43,41.49 -73.29,124.31 -75.38,-36.74"
         style="fill:#f89ca3;fill-opacity:1;fill-rule:nonzero;stroke:none"
         id="path332" /><path
         d="m 6037.89,3014.77 -92.22,-117.08 c -5.62,-8.39 -4.83,-19.59 1.92,-27.09 v 0 l 210.37,119.07 -51.84,59.9 -68.23,-34.8"
         style="fill:#201f38;fill-opacity:1;fill-rule:nonzero;stroke:none"
         id="path334" /><path
         d="m 6174.32,2968.85 -216.77,-122.69 -12.65,22.92 216.77,122.69 12.65,-22.92"
         style="fill:#ffffff;fill-opacity:1;fill-rule:nonzero;stroke:none"
         id="path336" /><path
         d="m 5722.93,3696.79 63.96,-344.56 168.34,-273.59 139.77,75.83 -138.92,224.27 5.44,232.12 c 0,0 -13.11,212.42 -84.75,292.84 l -135.04,-20.81 -18.8,-186.1"
         style="fill:#2e3b5f;fill-opacity:1;fill-rule:nonzero;stroke:none"
         id="path338" /><path
         d="m 5747.8,3562.84 -18.17,115.63 -48.47,42.79"
         style="fill:none;stroke:#242b45;stroke-width:7.561;stroke-linecap:butt;stroke-linejoin:miter;stroke-miterlimit:10;stroke-dasharray:none;stroke-opacity:1"
         id="path340" /><path
         d="m 5594.63,4121.76 -29.77,-184.54 c -3.25,-20.13 10.04,-39.23 30.16,-43.34 v 0 c 19.34,-3.96 38.56,7.31 44.4,26.04 l 60.55,194.03 -105.34,7.81"
         style="fill:#f89ca3;fill-opacity:1;fill-rule:nonzero;stroke:none"
         id="path342" /><path
         d="m 5571.61,3952.23 -139.25,-200.12 46.58,-16.53 153.17,170.75 c 17.79,20.94 7.97,53.13 -18.54,60.75 v 0 c -15.75,4.52 -32.64,-1.46 -41.96,-14.85"
         style="fill:#f89ca3;fill-opacity:1;fill-rule:nonzero;stroke:none"
         id="path344" /><path
         d="m 5432.36,3752.11 c 0,0 -74.87,-26.51 -64.29,-82.48 l 88.59,31.82 22.28,34.13 -46.58,16.53"
         style="fill:#f89ca3;fill-opacity:1;fill-rule:nonzero;stroke:none"
         id="path346" /><path
         d="m 5620.7,4225.62 -111.2,-208.16 c 61.71,-67.99 124.55,-92.88 124.55,-92.88 l 35.04,56.55 -48.39,244.49"
         style="fill:#ffffff;fill-opacity:1;fill-rule:nonzero;stroke:none"
         id="path348" /><path
         d="m 5794.71,4270.69 c 0,0 80.25,9.13 118.24,-35.73 25.21,-29.77 7.66,-405.12 7.66,-405.12 0,0 -169.63,-61.09 -279.48,-8.62 l -30.59,368.38 c 0.19,27.56 16.37,53 41.98,63.65 7.08,2.95 41.46,14.34 82.79,15.3 41.64,0.96 59.4,2.14 59.4,2.14"
         style="fill:#ffffff;fill-opacity:1;fill-rule:nonzero;stroke:none"
         id="path350" /><path
         d="m 5632.45,3942.6 -13.66,154.06"
         style="fill:none;stroke:#cfcdcb;stroke-width:7.20323;stroke-linecap:butt;stroke-linejoin:miter;stroke-miterlimit:10;stroke-dasharray:none;stroke-opacity:1"
         id="path352" /><path
         d="m 6214.97,2918.96 c 0,0 -342.13,-29.89 -432.63,79.11 -90.49,109 -13.8,210.02 86.05,277.35 69.3,46.73 122.38,97.71 158.55,133.55 45.53,45.12 79.35,101.01 93.4,163.06 27.98,123.63 -27.57,210.39 -100.6,257.59 -103.74,67.03 -234.87,-1.31 -234.87,-1.31 l -915.09,-390.56"
         style="fill:none;stroke:#292b33;stroke-width:35.2846;stroke-linecap:butt;stroke-linejoin:miter;stroke-miterlimit:10;stroke-dasharray:none;stroke-opacity:1"
         id="path354" /><path
         d="m 4686.95,3376.28 c 3.21,4.38 196.17,87.12 196.17,87.12 l 30.42,-26.58 -183.34,-80.26 -43.25,19.72"
         style="fill:#292b33;fill-opacity:1;fill-rule:nonzero;stroke:none"
         id="path356" /><path
         d="m 4559.88,3411.25 272.52,-180.92 8.12,21.54 c 8.67,23 -9.71,54.58 -30.49,68.13 l -165.53,107.97 c -18.08,11.8 -41.61,11.72 -59.62,-0.18 l -25,-16.54"
         style="fill:#292b33;fill-opacity:1;fill-rule:nonzero;stroke:none"
         id="path358" /><path
         d="m 4576.79,3422.48 262.7,-175.2 8.12,21.53 c 8.67,23.01 0.1,48.86 -20.68,62.41 l -165.52,107.97 c -18.09,11.8 -41.62,11.72 -59.62,-0.19 l -25,-16.52"
         style="fill:#efb043;fill-opacity:1;fill-rule:nonzero;stroke:none"
         id="path360" /><path
         d="m 6201.81,2884.5 94.58,7.92 -5.69,65.74 -94.58,-7.92 5.69,-65.74"
         style="fill:#201f26;fill-opacity:1;fill-rule:nonzero;stroke:none"
         id="path362" /><path
         d="m 6618.42,2865.58 -288.38,-24.15 c -55.12,-4.61 -99.53,43.72 -89.35,97.21 l 28.56,149.82 c 9.75,51.21 53.03,89.73 105.8,94.14 l 306.48,25.67 c 64.83,5.43 121.86,-41.89 127.38,-105.68 l 18.98,-219.47 -209.47,-17.54"
         style="fill:#efb043;fill-opacity:1;fill-rule:nonzero;stroke:none"
         id="path364" /><path
         d="m 6261.59,3048.31 400.97,33.57"
         style="fill:none;stroke:#f4931d;stroke-width:20.1627;stroke-linecap:butt;stroke-linejoin:miter;stroke-miterlimit:10;stroke-dasharray:none;stroke-opacity:1"
         id="path366" /><path
         d="m 6552.92,2955.12 c -8.19,94.66 63.16,177.93 159.37,185.98 96.22,8.06 180.84,-62.15 189.03,-156.81 3.02,-34.87 -4.83,-68.16 -20.67,-96.76 l -290.75,-24.34 c -20.52,25.55 -33.96,57.05 -36.98,91.93"
         style="fill:#f6ba59;fill-opacity:1;fill-rule:nonzero;stroke:none"
         id="path368" /><path
         d="m 6596.22,2958.74 c 6.15,-71.13 69.75,-123.89 142.04,-117.84 72.3,6.06 125.91,68.63 119.76,139.76 -6.16,71.14 -69.75,123.9 -142.04,117.84 -72.3,-6.05 -125.91,-68.62 -119.76,-139.76"
         style="fill:#393b4a;fill-opacity:1;fill-rule:nonzero;stroke:none"
         id="path370" /><path
         d="m 6672.66,2965.14 c 2.55,-29.59 29.01,-51.55 59.1,-49.03 30.08,2.52 52.38,28.56 49.82,58.15 -2.56,29.6 -29.01,51.55 -59.1,49.03 -30.08,-2.52 -52.38,-28.55 -49.82,-58.15"
         style="fill:#201f26;fill-opacity:1;fill-rule:nonzero;stroke:none"
         id="path372" /><path
         d="m 5830.63,3859.92 -40.81,-0.78 c -17.81,-0.35 -31.3,-0.24 -43.96,-12.74 -13.22,-13.06 -23.47,-32.2 -9.7,-55.72 26.82,-45.8 47.19,10.1 47.19,10.1 0,0 34.73,-9.67 68.05,18.63 l -20.77,40.51"
         style="fill:#f89ca3;fill-opacity:1;fill-rule:nonzero;stroke:none"
         id="path374" /><path
         d="m 5830.63,3859.92 189.82,121.46 c 24.24,13.87 55.11,3.1 64.94,-22.65 v 0 c 9.05,-23.73 -3.68,-50.28 -28.06,-58.52 l -205.93,-80.8 -20.77,40.51"
         style="fill:#f89ca3;fill-opacity:1;fill-rule:nonzero;stroke:none"
         id="path376" /><path
         d="m 6079.67,3968.7 -133.04,173.33 -60.6,-91.75 120.15,-123.19 73.49,41.61"
         style="fill:#f89ca3;fill-opacity:1;fill-rule:nonzero;stroke:none"
         id="path378" /><path
         d="m 5894.01,4251.29 c 78.24,-52.23 194.3,-193.17 194.3,-193.17 -19.22,-54.49 -145.12,-126.36 -145.12,-126.36 l -90.44,99.35 41.26,220.18"
         style="fill:#ffffff;fill-opacity:1;fill-rule:nonzero;stroke:none"
         id="path380" /><path
         d="M 5927.68,3952.94 5810.7,4079.93"
         style="fill:none;stroke:#cfcdcb;stroke-width:7.20323;stroke-linecap:butt;stroke-linejoin:miter;stroke-miterlimit:10;stroke-dasharray:none;stroke-opacity:1"
         id="path382" /><path
         d="m 5885.05,4476.21 c -2.87,-67.51 -60.82,-119.95 -129.43,-117.12 -68.61,2.82 -121.9,59.83 -119.04,127.34 2.87,67.51 60.82,119.95 129.43,117.12 68.61,-2.82 121.9,-59.84 119.04,-127.34"
         style="fill:#41231c;fill-opacity:1;fill-rule:nonzero;stroke:none"
         id="path384" /><path
         d="m 5895.84,4586.55 c -1.58,-37.29 -33.59,-66.26 -71.49,-64.69 -37.91,1.55 -67.34,33.05 -65.76,70.34 1.59,37.29 33.6,66.25 71.5,64.69 37.9,-1.55 67.33,-33.05 65.75,-70.34"
         style="fill:#41231c;fill-opacity:1;fill-rule:nonzero;stroke:none"
         id="path386" /><path
         d="m 5703.81,4563.48 c 0,0 -136.01,-2.77 -65.7,-125.4 l 66.24,4.42 -0.54,120.98"
         style="fill:#41231c;fill-opacity:1;fill-rule:nonzero;stroke:none"
         id="path388" /><path
         d="m 5696.1,4421.36 c 2.4,-18.3 -10.74,-35.04 -29.34,-37.4 -18.6,-2.35 -35.62,10.57 -38.01,28.87 -2.39,18.3 10.74,35.05 29.35,37.4 18.59,2.36 35.61,-10.57 38,-28.87"
         style="fill:#f46f83;fill-opacity:1;fill-rule:nonzero;stroke:none"
         id="path390" /><path
         d="m 5715.51,4328.75 7.54,-61.16 c 3.1,-25.39 20.66,-37.08 46.03,-33.86 v 0 c 21.66,2.74 44.56,-1.83 44.48,19.66 l -22.25,120.09 -75.8,-44.73"
         style="fill:#f89ca3;fill-opacity:1;fill-rule:nonzero;stroke:none"
         id="path392" /><path
         d="m 5721.04,4283.43 63.73,52.19 -70.34,0.53 z"
         style="fill:#f46f83;fill-opacity:1;fill-rule:nonzero;stroke:none"
         id="path394" /><path
         d="m 5738.64,4318.32 v 0 c -43.54,-2.63 -81.53,29.04 -84.91,63.97 l -7.49,82.43 c -4.24,43.77 27.57,82.96 71.88,88.58 v 0 c 45.38,5.74 94.85,-24.78 100.69,-69.43 l 5.28,-66.37 c 4.08,-51.33 -33.54,-92.6 -85.45,-99.18"
         style="fill:#f89ca3;fill-opacity:1;fill-rule:nonzero;stroke:none"
         id="path396" /><path
         d="m 5697.36,4397.46 -0.87,-15.05 11.39,0.04"
         style="fill:none;stroke:#1e1415;stroke-width:5.65868;stroke-linecap:round;stroke-linejoin:round;stroke-miterlimit:10;stroke-dasharray:none;stroke-opacity:1"
         id="path398" /><path
         d="m 5746.81,4455.21 c 0,0 -18.91,0.81 -18.76,-6.99 0,0 0.23,-5.27 16.71,-5.65 16.47,-0.37 20.7,1.02 21.99,6.04 1.29,5.02 -11.11,6.92 -19.94,6.6"
         style="fill:#1e1415;fill-opacity:1;fill-rule:nonzero;stroke:none"
         id="path400" /><path
         d="m 5668.16,4449.77 c 0,0 15.48,2.27 17.05,-5 0,0 0.95,-4.92 -12.61,-6.59 -13.57,-1.68 -18.07,-0.11 -19.52,3.84 -1.65,4.47 7.69,7.33 15.08,7.75"
         style="fill:#1e1415;fill-opacity:1;fill-rule:nonzero;stroke:none"
         id="path402" /><path
         d="m 5751.45,4418.65 c 0,0 -11.44,-11.22 -25.61,-1.31"
         style="fill:none;stroke:#1e1415;stroke-width:5.65868;stroke-linecap:round;stroke-linejoin:round;stroke-miterlimit:10;stroke-dasharray:none;stroke-opacity:1"
         id="path404" /><path
         d="m 5681.05,4412.77 c 0,0 -6.83,-11.05 -21,-1.13"
         style="fill:none;stroke:#1e1415;stroke-width:5.65868;stroke-linecap:round;stroke-linejoin:round;stroke-miterlimit:10;stroke-dasharray:none;stroke-opacity:1"
         id="path406" /><path
         d="m 5699.5,4362.82 c 0,0 16.01,-4.05 26.34,5.08"
         style="fill:none;stroke:#1e1415;stroke-width:5.65868;stroke-linecap:round;stroke-linejoin:round;stroke-miterlimit:10;stroke-dasharray:none;stroke-opacity:1"
         id="path408" /><path
         d="m 5669.06,4540.62 c 0,0 51.32,-64.79 154.94,-56.96 0,0 -23.09,69.44 -83.65,80.23 -60.56,10.78 -71.29,-23.27 -71.29,-23.27"
         style="fill:#41231c;fill-opacity:1;fill-rule:nonzero;stroke:none"
         id="path410" /><path
         d="m 5775.02,4531.05 c 0,0 -36.38,-54.96 38.54,-102.63 0,0 64.55,51.49 20.77,93.03 -43.79,41.53 -59.31,9.6 -59.31,9.6"
         style="fill:#41231c;fill-opacity:1;fill-rule:nonzero;stroke:none"
         id="path412" /><path
         d="m 5864.19,4429.31 c 2.39,-18.31 -10.74,-35.05 -29.35,-37.41 -18.6,-2.35 -35.61,10.58 -38,28.88 -2.4,18.3 10.74,35.04 29.34,37.4 18.59,2.35 35.62,-10.57 38.01,-28.87"
         style="fill:#f89ca3;fill-opacity:1;fill-rule:nonzero;stroke:none"
         id="path414" /><path
         d="m 5820.03,4413.7 c 0,0 -3.15,24.02 20.7,23.19"
         style="fill:none;stroke:#1e1415;stroke-width:5.65868;stroke-linecap:round;stroke-linejoin:round;stroke-miterlimit:10;stroke-dasharray:none;stroke-opacity:1"
         id="path416" /><path
         d="m 5881.17,4450.57 c 0,0 9.71,33.45 3.27,48.11 -40.55,92.38 -137.79,84.16 -157.67,94.83 l 17.29,-9.29 c 3.34,0.12 102.93,-43.97 137.11,-133.65"
         style="fill:#f03d41;fill-opacity:1;fill-rule:nonzero;stroke:none"
         id="path418" /><path
         d="m 5764.02,4596.32 c 0,0 38.86,27.82 100.45,9.83 0,0 -71.37,-68.92 -113.33,-25.8 l 12.88,15.97"
         style="fill:#f36275;fill-opacity:1;fill-rule:nonzero;stroke:none"
         id="path420" /><path
         d="m 5735.97,4601.17 c 0,0 -3.55,26.45 -84.52,40.99 0,0 7.2,-88.95 84.28,-58.14 v 0"
         style="fill:#f36275;fill-opacity:1;fill-rule:nonzero;stroke:none"
         id="path422" /><path
         d="m 5760.07,4585.31 c 0,0 5.89,5.96 29.89,5.35"
         style="fill:none;stroke:#f1424d;stroke-width:5.19648;stroke-linecap:butt;stroke-linejoin:miter;stroke-miterlimit:10;stroke-dasharray:none;stroke-opacity:1"
         id="path424" /><path
         d="m 5736.92,4591.02 c 0,0 -8.83,9.25 -27.31,10"
         style="fill:none;stroke:#f1424d;stroke-width:5.19648;stroke-linecap:butt;stroke-linejoin:miter;stroke-miterlimit:10;stroke-dasharray:none;stroke-opacity:1"
         id="path426" /><path
         d="m 5733.59,4592.98 c -0.35,-9.76 7.42,-17.96 17.35,-18.31 9.93,-0.34 18.26,7.3 18.61,17.07 0.35,9.76 -7.41,17.96 -17.34,18.31 -9.94,0.34 -18.27,-7.3 -18.62,-17.07"
         style="fill:#f36275;fill-opacity:1;fill-rule:nonzero;stroke:none"
         id="path428" /><path
         d="m 5723.05,4267.59 c 0,0 -54.16,-43.67 -26.56,-65.22 27.61,-21.55 122.3,22.85 117.07,51.02 l -90.51,14.2"
         style="fill:#f89ca3;fill-opacity:1;fill-rule:nonzero;stroke:none"
         id="path430" /><path
         d="m 3654.04,2840.87 h 3447.1"
         style="fill:none;stroke:#342834;stroke-width:10.3348;stroke-linecap:butt;stroke-linejoin:miter;stroke-miterlimit:10;stroke-dasharray:none;stroke-opacity:1"
         id="path432" /><path
         d="m 2724.48,2838.57 h -722.21 v 978.92 h 722.21 v -978.92"
         style="fill:#ffffff;fill-opacity:1;fill-rule:nonzero;stroke:none"
         id="path434" /><path
         d="m 2902.2,2838.57 h -177.72 v 978.92 h 177.72 v -978.92"
         style="fill:#c9c8c6;fill-opacity:1;fill-rule:nonzero;stroke:none"
         id="path436" /><path
         d="M 2724.48,3608.81 H 2002.27"
         style="fill:none;stroke:#c9c8c6;stroke-width:10;stroke-linecap:butt;stroke-linejoin:miter;stroke-miterlimit:10;stroke-dasharray:none;stroke-opacity:1"
         id="path438" /><path
         d="m 2190.59,2884.1 h -139.68 v 68.56 h 139.68 z"
         style="fill:none;stroke:#b8bcc0;stroke-width:9.8185;stroke-linecap:butt;stroke-linejoin:miter;stroke-miterlimit:10;stroke-dasharray:none;stroke-opacity:1"
         id="path440" /><path
         d="m 2364.99,3706.93 c 0,-18.75 -15.2,-33.96 -33.96,-33.96 -18.75,0 -33.95,15.21 -33.95,33.96 0,18.75 15.2,33.96 33.95,33.96 18.76,0 33.96,-15.21 33.96,-33.96"
         style="fill:#c9c8c6;fill-opacity:1;fill-rule:nonzero;stroke:none"
         id="path442" /><path
         d="m 2476.79,3706.93 c 0,-18.75 -15.21,-33.96 -33.96,-33.96 -18.75,0 -33.96,15.21 -33.96,33.96 0,18.75 15.21,33.96 33.96,33.96 18.75,0 33.96,-15.21 33.96,-33.96"
         style="fill:#c9c8c6;fill-opacity:1;fill-rule:nonzero;stroke:none"
         id="path444" /><path
         d="m 2674.31,3666.83 h -145.19 v 80.2 h 145.19 z"
         style="fill:none;stroke:#b8bcc0;stroke-width:9.8185;stroke-linecap:butt;stroke-linejoin:miter;stroke-miterlimit:10;stroke-dasharray:none;stroke-opacity:1"
         id="path446" /><path
         d="m 2242.64,3651.17 h -211.73 v 111.53 h 211.73 v -111.53"
         style="fill:#494d5c;fill-opacity:1;fill-rule:nonzero;stroke:none"
         id="path448" /><path
         d="m 2610.09,3265.55 c 0,-141.4 -114.64,-256.04 -256.04,-256.04 -141.41,0 -256.04,114.64 -256.04,256.04 0,141.41 114.63,256.04 256.04,256.04 141.4,0 256.04,-114.63 256.04,-256.04"
         style="fill:#859098;fill-opacity:1;fill-rule:nonzero;stroke:none"
         id="path450" /><path
         d="m 2542.84,3265.55 c 0,-104.27 -84.52,-188.79 -188.79,-188.79 -104.27,0 -188.79,84.52 -188.79,188.79 0,104.27 84.52,188.79 188.79,188.79 104.27,0 188.79,-84.52 188.79,-188.79"
         style="fill:#494d5c;fill-opacity:1;fill-rule:nonzero;stroke:none"
         id="path452" /><path
         d="m 2095.32,3265.55 c 0,-141.4 -114.63,-256.04 -256.04,-256.04 -141.4,0 -256.03,114.64 -256.03,256.04 0,141.41 114.63,256.04 256.03,256.04 141.41,0 256.04,-114.63 256.04,-256.04"
         style="fill:#b8bcc0;fill-opacity:1;fill-rule:nonzero;stroke:none"
         id="path454" /><path
         d="m 2028.08,3265.55 c 0,-104.27 -84.53,-188.79 -188.8,-188.79 -104.26,0 -188.79,84.52 -188.79,188.79 0,104.27 84.53,188.79 188.79,188.79 104.27,0 188.8,-84.52 188.8,-188.79"
         style="fill:#ffffff;fill-opacity:1;fill-rule:nonzero;stroke:none"
         id="path456" /><path
         d="m 2754.79,3817.49 h -176.28 v 202.2 h 176.28 v -202.2"
         style="fill:#48aeca;fill-opacity:1;fill-rule:nonzero;stroke:none"
         id="path458" /><path
         d="m 2703.39,3817.49 h -176.28 v 202.2 h 176.28 v -202.2"
         style="fill:#73cbe7;fill-opacity:1;fill-rule:nonzero;stroke:none"
         id="path460" /><path
         d="m 2543.94,3931.57 v -76.49 l 142.62,46.2 v 81.63 l -142.62,-51.34"
         style="fill:#ffffff;fill-opacity:1;fill-rule:nonzero;stroke:none"
         id="path462" /><path
         d="m 2411.9,3817.49 h -327.02 c -13.94,0 -25.24,11.3 -25.24,25.23 v 4.52 c 0,13.93 11.3,25.23 25.24,25.23 h 327.02 c 13.93,0 25.23,-11.3 25.23,-25.23 v -4.52 c 0,-13.93 -11.3,-25.23 -25.23,-25.23"
         style="fill:#f03d41;fill-opacity:1;fill-rule:nonzero;stroke:none"
         id="path464" /><path
         d="m 2374.47,3872.47 h -248.82 c -10.61,0 -19.2,8.6 -19.2,19.2 v 3.44 c 0,10.6 8.59,19.2 19.2,19.2 h 248.82 c 10.6,0 19.2,-8.6 19.2,-19.2 v -3.44 c 0,-10.6 -8.6,-19.2 -19.2,-19.2"
         style="fill:#ffffff;fill-opacity:1;fill-rule:nonzero;stroke:none"
         id="path466" /><path
         d="M 2395.22,3914.31 H 2146.4 c -10.6,0 -19.2,8.6 -19.2,19.2 v 3.43 c 0,10.6 8.6,19.2 19.2,19.2 h 248.82 c 10.61,0 19.2,-8.6 19.2,-19.2 v -3.43 c 0,-10.6 -8.59,-19.2 -19.2,-19.2"
         style="fill:#ffffff;fill-opacity:1;fill-rule:nonzero;stroke:none"
         id="path468" /><path
         d="m 1501.55,4013.27 c 0,-42.46 -34.42,-76.88 -76.88,-76.88 -42.45,0 -76.87,34.42 -76.87,76.88 0,42.45 34.42,76.87 76.87,76.87 42.46,0 76.88,-34.42 76.88,-76.87"
         style="fill:#1e1415;fill-opacity:1;fill-rule:nonzero;stroke:none"
         id="path470" /><path
         d="m 1496.07,3949.47 c 0,0 -16.89,41.08 -46.34,30.32 -29.46,-10.77 -30.72,-46.51 -15.26,-56.23 15.45,-9.71 56.47,22.11 56.47,22.11 l 5.13,3.8"
         style="fill:#efb043;fill-opacity:1;fill-rule:nonzero;stroke:none"
         id="path472" /><path
         d="m 1515.28,3717.83 -70.38,-96.62 -82.28,61.95 105.88,145.11 46.78,-110.44"
         style="fill:#ad4f53;fill-opacity:1;fill-rule:nonzero;stroke:none"
         id="path474" /><path
         d="m 1478.41,3667.21 c 1.22,1.69 -13.1,71.72 -13.1,71.72 l 39.45,-35.55 -26.35,-36.17"
         style="fill:#92383e;fill-opacity:1;fill-rule:nonzero;stroke:none"
         id="path476" /><path
         d="m 1619.1,3923.68 c 0,0 48.6,-24.69 31.09,-90.08 0,0 -13.21,-47.24 -32.78,-115.08 -10.33,-35.85 -51.68,-54.58 -84.02,-35.97 -19.8,11.41 -40.75,27.7 -56.68,50.57 l -20.96,37.13 c -44.85,99.26 57.62,203.22 156.22,156.94 2.36,-1.1 4.73,-2.27 7.13,-3.51"
         style="fill:#ad4f53;fill-opacity:1;fill-rule:nonzero;stroke:none"
         id="path478" /><path
         d="m 1622.98,3776.85 16.28,-33.3 c 3.47,-5.44 -0.63,-13.72 -5.18,-12.8 l -24.07,4.85 12.97,41.25"
         style="fill:#ad4f53;fill-opacity:1;fill-rule:nonzero;stroke:none"
         id="path480" /><path
         d="m 1623.08,3822.94 c 0,0 17.92,-2.6 16.8,-10.69 0,0 -0.89,-5.45 -16.47,-2.85 -15.57,2.6 -19.38,4.82 -19.96,10.28 -0.58,5.46 11.34,5.19 19.63,3.26"
         style="fill:#1e1415;fill-opacity:1;fill-rule:nonzero;stroke:none"
         id="path482" /><path
         d="m 1607.28,3780.79 c -2.04,-3.8 -0.7,-8.49 2.98,-10.47 3.69,-1.98 8.32,-0.49 10.36,3.32 2.03,3.81 0.69,8.49 -3,10.47 -3.68,1.97 -8.31,0.49 -10.34,-3.32"
         style="fill:#1e1415;fill-opacity:1;fill-rule:nonzero;stroke:none"
         id="path484" /><path
         d="m 1607.68,3719.7 -8.98,3.43"
         style="fill:none;stroke:#1e1415;stroke-width:6.10045;stroke-linecap:round;stroke-linejoin:round;stroke-miterlimit:10;stroke-dasharray:none;stroke-opacity:1"
         id="path486" /><path
         d="m 1514.42,3829.51 c 0,0 18.91,166.27 134.17,59.95 0,0 -25.51,102.19 -160.85,87.85 -28.34,-3 -63.76,-25.32 -76.82,-50.65 -21.13,-40.99 -8.68,-85.57 8.39,-165.81 l 61.93,38.4 c 6.12,10.01 33.18,30.26 33.18,30.26"
         style="fill:#1e1415;fill-opacity:1;fill-rule:nonzero;stroke:none"
         id="path488" /><path
         d="m 1485.37,3889.15 6.77,-73.15 c 190.36,-0.41 136.85,105.61 136.85,105.61 0,0 -127.07,85.75 -143.62,-32.46"
         style="fill:#1e1415;fill-opacity:1;fill-rule:nonzero;stroke:none"
         id="path490" /><path
         d="m 1562.73,3830.92 -35.72,-28.57 -17.17,51.92 z"
         style="fill:#1e1415;fill-opacity:1;fill-rule:nonzero;stroke:none"
         id="path492" /><path
         d="m 1601.3,3920.92 c 0,0 56.23,-28.57 51.87,-72.46 0,0 59.81,46.39 -24.84,79.5 -57.4,22.46 -27.03,-7.04 -27.03,-7.04"
         style="fill:#1e1415;fill-opacity:1;fill-rule:nonzero;stroke:none"
         id="path494" /><path
         d="m 1463.03,3834.53 c -7.48,-18.37 1.36,-39.33 19.74,-46.81 18.38,-7.47 39.33,1.37 46.81,19.74 7.47,18.38 -1.37,39.34 -19.74,46.81 -18.38,7.48 -39.34,-1.36 -46.81,-19.74"
         style="fill:#ad4f53;fill-opacity:1;fill-rule:nonzero;stroke:none"
         id="path496" /><path
         d="m 1508.33,3808.34 c 0,0 9.81,24.13 -14.8,29.72"
         style="fill:none;stroke:#1e1415;stroke-width:6.10045;stroke-linecap:round;stroke-linejoin:round;stroke-miterlimit:10;stroke-dasharray:none;stroke-opacity:1"
         id="path498" /><path
         d="m 1479.33,2892.83 61.96,168.42 117.98,17.74 -83.18,-187.46 -79.74,-17.01 -17.02,18.31"
         style="fill:#ad4f53;fill-opacity:1;fill-rule:nonzero;stroke:none"
         id="path500" /><path
         d="m 1500.89,2951.43 c 0,0 18.97,-29.97 98.85,-7.92 l 122.37,-66.96 c 16.24,-10.18 8.99,-35.27 -10.18,-35.21 l -199.66,0.61 c -27.76,0.09 -46.39,28.53 -35.37,54.02 l 23.99,55.46"
         style="fill:#ffffff;fill-opacity:1;fill-rule:nonzero;stroke:none"
         id="path502" /><g
         id="g504"><g
           id="g506"
           clip-path="url(#clipPath510)"><path
             d="m 1519.75,2866.19 c 0,-22.15 -17.96,-40.11 -40.11,-40.11 -22.15,0 -40.1,17.96 -40.1,40.11 0,22.15 17.95,40.1 40.1,40.1 22.15,0 40.11,-17.95 40.11,-40.1"
             style="fill:#73cbe7;fill-opacity:1;fill-rule:nonzero;stroke:none"
             id="path512" /><path
             d="m 1766.61,2850.63 c 0,-22.15 -17.96,-40.1 -40.11,-40.1 -22.15,0 -40.1,17.95 -40.1,40.1 0,22.15 17.95,40.11 40.1,40.11 22.15,0 40.11,-17.96 40.11,-40.11"
             style="fill:#73cbe7;fill-opacity:1;fill-rule:nonzero;stroke:none"
             id="path514" /></g></g><path
         d="m 1215.69,3011.86 110.8,149.59 99.94,-38.09 -138.33,-161.28 -66.84,26.53 -5.57,23.25"
         style="fill:#ad4f53;fill-opacity:1;fill-rule:nonzero;stroke:none"
         id="path516" /><path
         d="m 1350.16,2899.96 -43.97,81.76 c -69.31,-16.22 -76.48,49.06 -76.48,49.06 0,0 -66.27,-34.71 -73.33,-51.11 v 0 c -6.13,-10.95 -2.26,-33.58 16.79,-41.99 l 94,-78.9 c 16.93,-11.25 36.65,-17.57 56.97,-18.26 l 57.3,-1.94 c 9.19,-0.31 16.98,6.73 17.59,15.91 v 0 c 0.39,5.84 -2.24,11.48 -6.97,14.93 l -41.9,30.54"
         style="fill:#ffffff;fill-opacity:1;fill-rule:nonzero;stroke:none"
         id="path518" /><g
         id="g520"><g
           id="g522"
           clip-path="url(#clipPath526)"><path
             d="m 1203.96,2962.08 c 0,-23.71 -19.22,-42.92 -42.92,-42.92 -23.71,0 -42.92,19.21 -42.92,42.92 0,23.7 19.21,42.92 42.92,42.92 23.7,0 42.92,-19.22 42.92,-42.92"
             style="fill:#73cbe7;fill-opacity:1;fill-rule:nonzero;stroke:none"
             id="path528" /><path
             d="m 1438.34,2848.53 c 0,-23.71 -19.21,-42.92 -42.92,-42.92 -23.7,0 -42.92,19.21 -42.92,42.92 0,23.7 19.22,42.92 42.92,42.92 23.71,0 42.92,-19.22 42.92,-42.92"
             style="fill:#73cbe7;fill-opacity:1;fill-rule:nonzero;stroke:none"
             id="path530" /></g></g><path
         d="m 1320.95,3315.01 300.08,157.04 c 98.68,51.65 208.4,-47.23 167.28,-150.74 l -121.84,-303.38 -171.89,11.27 81.96,201.62 -102.21,-101.23 c 0,0 -139.85,-127.27 -260.44,-81.77 -120.6,45.51 -134.25,177.48 -134.25,177.48 l 241.31,89.71"
         style="fill:#2e3b5f;fill-opacity:1;fill-rule:nonzero;stroke:none"
         id="path532" /><path
         d="m 1576.54,3230.82 17.37,47.74"
         style="fill:none;stroke:#242b45;stroke-width:7.5;stroke-linecap:butt;stroke-linejoin:miter;stroke-miterlimit:10;stroke-dasharray:none;stroke-opacity:1"
         id="path534" /><path
         d="m 1462.07,3659.85 -70.82,25.67 c -17.34,6.29 -36.18,7.23 -53.99,2.41 -51.18,-13.86 -154.98,-58.4 -222.04,-198.3 -100,-208.64 -68.27,-322.24 -68.27,-322.24 0,0 243.77,16.38 306.61,165.19 0,0 -14.32,49.75 9.88,71.59 0,0 69.32,11.18 105.1,107.34 l 3.98,132.95 c 0.21,6.85 -4.01,13.06 -10.45,15.39"
         style="fill:#efb043;fill-opacity:1;fill-rule:nonzero;stroke:none"
         id="path536" /><path
         d="m 1938.21,3357.51 c 0,0 -24.96,146.16 96.01,124.39 120.98,-21.77 96.59,-81.44 157.18,-157.57 0,0 133.42,-115.96 -58.12,-156.94 -191.55,-40.97 -95.98,138.34 -195.07,190.12"
         style="fill:#73cbe7;fill-opacity:1;fill-rule:nonzero;stroke:none"
         id="path538" /><path
         d="m 1938.14,3284.36 c -34.01,2.47 -59.59,32.04 -57.12,66.06 2.46,34.02 32.04,59.59 66.06,57.13 34.01,-2.47 59.59,-32.04 57.12,-66.06 -2.46,-34.02 -32.04,-59.6 -66.06,-57.13"
         style="fill:#ad4f53;fill-opacity:1;fill-rule:nonzero;stroke:none"
         id="path540" /><path
         d="m 1988.26,3387.49 c 0,0 10.22,26.24 -21.82,31.05 -32.05,4.82 -76.1,-6.68 -85.42,-68.12 l 107.24,37.07"
         style="fill:#ad4f53;fill-opacity:1;fill-rule:nonzero;stroke:none"
         id="path542" /><path
         d="m 1908.05,3405.48 -330.11,18.24 c -38.98,1.22 -53.82,-25.65 -50.98,-64.56 v 0 c 2.63,-36.05 33.89,-63.22 69.97,-60.8 l 297.8,10.21 13.32,96.91"
         style="fill:#efb043;fill-opacity:1;fill-rule:nonzero;stroke:none"
         id="path544" /><path
         d="m 1470.94,3651.85 161.31,-236.9 c 27.36,-32.3 38.64,-79.36 3.99,-103.68 v 0 c -31,-21.75 -73.55,-15.75 -97.34,13.71 l -170.39,194.26 c -25.52,31.62 -35.99,109.6 -3.06,133.4 v 0 c 30.01,21.7 92.54,12.39 105.49,-0.79"
         style="fill:#efb043;fill-opacity:1;fill-rule:nonzero;stroke:none"
         id="path546" /><path
         d="m 1431.16,3447.82 -77.6,94.69"
         style="fill:none;stroke:#dd9834;stroke-width:7.5;stroke-linecap:butt;stroke-linejoin:miter;stroke-miterlimit:10;stroke-dasharray:none;stroke-opacity:1"
         id="path548" /><path
         d="M 3207.3,2841.41 H 593.746"
         style="fill:none;stroke:#342834;stroke-width:10.2515;stroke-linecap:butt;stroke-linejoin:miter;stroke-miterlimit:10;stroke-dasharray:none;stroke-opacity:1"
         id="path550" /><path
         d="m 1914.94,4246.01 -905.81,-1.83 -0.09,52.5 905.8,1.84 0.1,-52.51"
         style="fill:#8e98c8;fill-opacity:1;fill-rule:nonzero;stroke:none"
         id="path552" /><path
         d="m 1423.61,4298.52 v 202.21 l 105.44,86.66 20.22,-30.33 v -258.54 h -125.66"
         style="fill:#73cbe7;fill-opacity:1;fill-rule:nonzero;stroke:none"
         id="path554" /><path
         d="m 1516.59,4577.15 -21.66,30.02 c -2.39,3.3 -7.06,3.92 -10.23,1.35 l -23.54,-19.09 c -2.99,-2.44 -3.5,-6.81 -1.15,-9.86 l 23.11,-29.93 33.47,27.51"
         style="fill:#2e3b5f;fill-opacity:1;fill-rule:nonzero;stroke:none"
         id="path556" /><path
         d="m 1220.52,4466.74 c 0,0 -4.75,-10.8 -8.22,-69.18 0,0 -1.72,-22.05 -17.72,-16.86 -16,5.19 -18.59,37.62 -11.67,67.45 6.91,29.84 19.88,40.21 28.97,39.78 9.07,-0.43 10.6,-13.28 8.64,-21.19 z m 53.56,90.8 h -43.27 c -3.61,-1.2 -43.27,-27.64 -57.69,-60.09 -14.43,-32.46 -30.05,-93.75 -14.43,-198.93 h 138 c 0,0 33.89,106.37 -22.61,259.02"
         style="fill:#2e3b5f;fill-opacity:1;fill-rule:nonzero;stroke:none"
         id="path558" /><path
         d="m 1239.39,4599.59 h 26.11 c 4.74,0 8.58,-3.84 8.58,-8.58 v -33.47 h -43.27 v 33.47 c 0,4.74 3.84,8.58 8.58,8.58"
         style="fill:#73cbe7;fill-opacity:1;fill-rule:nonzero;stroke:none"
         id="path560" /><path
         d="m 1686.72,4557.54 -35.83,-259.02 h 118.76 l -29.69,259.02 h -53.24"
         style="fill:#2e3b5f;fill-opacity:1;fill-rule:nonzero;stroke:none"
         id="path562" /><path
         d="m 1704.55,4588.38 h 19.15 c 3.47,0 6.29,-2.82 6.29,-6.29 v -24.55 h -31.74 v 24.55 c 0,3.47 2.82,6.29 6.3,6.29"
         style="fill:#73cbe7;fill-opacity:1;fill-rule:nonzero;stroke:none"
         id="path564" /></g></g></svg>
