<?xml version="1.0" encoding="UTF-8" standalone="no"?>
<svg
   xmlns:dc="http://purl.org/dc/elements/1.1/"
   xmlns:cc="http://creativecommons.org/ns#"
   xmlns:rdf="http://www.w3.org/1999/02/22-rdf-syntax-ns#"
   xmlns:svg="http://www.w3.org/2000/svg"
   xmlns="http://www.w3.org/2000/svg"
   xmlns:sodipodi="http://sodipodi.sourceforge.net/DTD/sodipodi-0.dtd"
   xmlns:inkscape="http://www.inkscape.org/namespaces/inkscape"
   version="1.1"
   id="svg2"
   xml:space="preserve"
   width="600"
   height="600"
   viewBox="0 0 600 600"
   sodipodi:docname="46776.eps"><metadata
     id="metadata8"><rdf:RDF><cc:Work
         rdf:about=""><dc:format>image/svg+xml</dc:format><dc:type
           rdf:resource="http://purl.org/dc/dcmitype/StillImage" /></cc:Work></rdf:RDF></metadata><defs
     id="defs6" /><sodipodi:namedview
     pagecolor="#ffffff"
     bordercolor="#666666"
     borderopacity="1"
     objecttolerance="10"
     gridtolerance="10"
     guidetolerance="10"
     inkscape:pageopacity="0"
     inkscape:pageshadow="2"
     inkscape:window-width="640"
     inkscape:window-height="480"
     id="namedview4" /><g
     id="g10"
     inkscape:groupmode="layer"
     inkscape:label="ink_ext_XXXXXX"
     transform="matrix(1.3333333,0,0,-1.3333333,0,600)"><g
       id="g12"
       transform="scale(0.1)"><path
         d="M 4500,0 H 0 V 4500 H 4500 V 0"
         style="fill:#ffffff;fill-opacity:1;fillRule:nonzero;stroke:none"
         id="path14" /><path
         d="m 2047.16,3049.56 h 13.17 c 0,0 -6.58,178.94 142.43,220.23 v 5.98 5.99 c -149.01,41.29 -142.43,220.22 -142.43,220.22 h -6.58 -6.59 c 0,0 6.59,-178.93 -142.42,-220.22 v -5.99 -5.98 c 149.01,-41.29 142.42,-220.23 142.42,-220.23"
         style="fill:#3b4a8f;fill-opacity:1;fillRule:nonzero;stroke:none"
         id="path16" /><path
         d="m 1634.43,2708.3 h 5.09 c 0,0 -2.55,69.06 54.96,85 v 2.31 2.31 c -57.51,15.94 -54.96,84.99 -54.96,84.99 h -2.55 -2.54 c 0,0 2.54,-69.05 -54.96,-84.99 v -2.31 -2.31 c 57.5,-15.94 54.96,-85 54.96,-85"
         style="fill:#3b4a8f;fill-opacity:1;fillRule:nonzero;stroke:none"
         id="path18" /><path
         d="m 1119.27,2979.25 h 5.08 c 0,0 -2.54,69.06 54.97,84.99 v 2.31 2.31 c -57.51,15.94 -54.97,85 -54.97,85 h -2.54 -2.54 c 0,0 2.54,-69.06 -54.97,-85 v -2.31 -2.31 c 57.51,-15.93 54.97,-84.99 54.97,-84.99"
         style="fill:#3b4a8f;fill-opacity:1;fillRule:nonzero;stroke:none"
         id="path20" /><path
         d="m 3104.35,2702.88 h 5.08 c 0,0 -2.54,69.06 54.97,85 v 2.31 2.31 c -57.51,15.93 -54.97,84.99 -54.97,84.99 h -2.54 -2.54 c 0,0 2.54,-69.06 -54.97,-84.99 v -2.31 -2.31 c 57.51,-15.94 54.97,-85 54.97,-85"
         style="fill:#3b4a8f;fill-opacity:1;fillRule:nonzero;stroke:none"
         id="path22" /><path
         d="m 1356.63,1518.62 h 5.08 c 0,0 -2.54,69.05 54.97,84.99 v 2.31 2.31 c -57.51,15.94 -54.97,84.99 -54.97,84.99 h -2.54 -2.54 c 0,0 2.54,-69.05 -54.97,-84.99 v -2.31 -2.31 c 57.51,-15.94 54.97,-84.99 54.97,-84.99"
         style="fill:#3b4a8f;fill-opacity:1;fillRule:nonzero;stroke:none"
         id="path24" /><path
         d="m 2215.81,924.398 h 5.09 c 0,0 -2.54,69.063 54.96,85.002 v 2.31 2.31 c -57.5,15.93 -54.96,84.99 -54.96,84.99 h -2.54 -2.55 c 0,0 2.55,-69.06 -54.96,-84.99 v -2.31 -2.31 c 57.51,-15.939 54.96,-85.002 54.96,-85.002"
         style="fill:#3b4a8f;fill-opacity:1;fillRule:nonzero;stroke:none"
         id="path26" /><path
         d="m 3298.42,1677.68 h 5.08 c 0,0 -2.54,69.06 54.97,85 v 2.31 2.31 c -57.51,15.93 -54.97,84.99 -54.97,84.99 h -2.54 -2.54 c 0,0 2.54,-69.06 -54.97,-84.99 v -2.31 -2.31 c 57.51,-15.94 54.97,-85 54.97,-85"
         style="fill:#3b4a8f;fill-opacity:1;fillRule:nonzero;stroke:none"
         id="path28" /><path
         d="m 2583.16,777.031 68.78,63.789 c 0,0 -7.37,29.168 -47.69,13.328 -32.08,-12.597 -37.52,1.762 -43.19,12.383 -2.08,3.91 -4.76,6.528 -7.64,7.86 -5.58,2.57 -11.92,0.199 -16.29,-7.86 -5.73,-10.582 -11.1,-24.98 -43.18,-12.383 -40.32,15.84 -47.7,-13.328 -47.7,-13.328 l 76.37,-83.23 60.54,19.441"
         style="fill:#3b4a8f;fill-opacity:1;fillRule:nonzero;stroke:none"
         id="path30" /><path
         d="m 2600.97,366.191 -0.15,1.938 -6.26,78.75 23.91,-15.168 h 0.01 c 10.79,17 14.31,37.187 9.92,56.848 -4.26,19.062 -15.49,35.402 -31.68,46.211 l 26.85,20.191 6.89,5.18 c 18.93,-16.2 32.08,-37.961 37.61,-62.711 6.77,-30.25 1.34,-61.328 -15.26,-87.5 v -0.008 l 23.91,-15.18 z m -50.79,-14.839 c -12.02,0 -24.1,1.89 -35.86,5.687 -29.5,9.551 -53.51,30.012 -67.62,57.609 l -25.22,-12.886 11.46,65.867 1.1,6.269 1.32,7.614 15.63,-7.614 20.75,-10.117 36.39,-17.73 -25.23,-12.903 c 18.19,-35.578 60.94,-50.546 97.1,-34.867 l 2.67,-33.551 0.67,-8.48 c -10.8,-3.258 -21.96,-4.898 -33.16,-4.898 z m -2.34,238.609 v 28.328 l 64.69,-48.648 -64.69,-48.661 v 28.329 c -38.31,0 -70.01,-28.719 -74.77,-65.75 l -29.66,14.461 -8.19,3.992 c 12.6,50.457 58.31,87.949 112.62,87.949 z m 181.49,-62.371 c 19.35,71.281 0,108.961 -61.09,144.601 -35.79,20.879 -60.4,55.649 -74.72,80.938 h -85.45 l -10.9,-20.859 c 0,0 -6.11,-24.442 -67.21,-60.079 -61.1,-35.64 -80.44,-73.32 -61.1,-144.601 19.35,-71.27 -14.25,-66.18 -38.69,-114.039 -24.44,-47.86 0,-155.801 89.61,-174.129 46.33,-9.473 89.94,-14.012 133.64,-13.692 40.82,0.309 81.72,4.84 125,13.692 89.61,18.328 114.05,126.269 89.61,174.129 -24.44,47.859 -58.04,42.769 -38.7,114.039"
         style="fill:#3b4a8f;fill-opacity:1;fillRule:nonzero;stroke:none"
         id="path32" /><path
         d="m 2653.03,748.059 c -21.22,2.742 -41.99,13.3 -55.3,21.382 12.46,4.418 30.51,9.418 48.38,9.418 3.75,0 7.39,-0.218 10.81,-0.66 14.38,-1.859 23.38,-11.09 22.46,-18.219 -1.01,-7.82 -13.12,-13.648 -26.35,-11.921 z m 6.39,49.523 c -4.25,0.547 -8.72,0.828 -13.31,0.828 -36.59,0 -71.87,-17.39 -73.36,-18.129 l -11.02,-5.5 c -30.34,6.598 -85.22,15.77 -127.25,9.508 l 2.89,-19.34 c 33.98,5.071 62.13,-1.219 77.99,-6.461 -29.43,-7.968 -64.55,-22.816 -89,-50.238 l 14.6,-13.012 c 36.37,40.813 130.41,49.864 156.84,51.633 14.36,-7.711 33.09,-15.66 52.73,-18.199 2.47,-0.32 4.91,-0.473 7.3,-0.473 21.54,0 38.75,12.313 40.94,29.281 2.49,19.321 -14.79,36.942 -39.35,40.102"
         style="fill:#a8a8a8;fill-opacity:1;fillRule:nonzero;stroke:none"
         id="path34" /><path
         d="m 1785.15,457.48 c 0.04,0.071 0.13,0.129 0.17,0.2 0,0 44.07,94.031 56.36,123.949 3.31,8.101 1.24,17.34 -6.48,21.48 l -1.87,1.012 c -7.71,4.149 -17.34,1.25 -21.48,-6.461 -5.71,-10.64 -15.32,-28.531 -25.5,-47.488 -0.01,-0.024 -0.02,-0.043 -0.04,-0.063 -9.32,-17.347 -20.59,-3.687 -20.76,-3.48 l -3.81,12.68 c -0.01,0 -0.01,0.011 -0.01,0.023 l -38.95,129.328 c -2.54,8.379 -11.4,13.141 -19.77,10.61 l -2.05,-0.622 c -8.38,-2.519 -13.14,-11.359 -10.61,-19.75 L 1723,570.5 l -5.07,-1.531 -37.31,123.929 c -2.54,8.391 -11.38,13.153 -19.78,10.622 l -2.03,-0.61 c -8.4,-2.531 -13.15,-11.379 -10.64,-19.789 l 37.34,-123.922 -5.32,-1.597 L 1647.54,666 c -2.52,8.391 -11.38,13.129 -19.77,10.621 L 1625.75,676 c -8.41,-2.531 -13.14,-11.359 -10.61,-19.75 l 32.63,-108.41 -4.64,-1.399 -24.1,80.02 c -2.54,8.398 -11.38,13.16 -19.76,10.641 l -2.03,-0.622 c -8.4,-2.519 -13.17,-11.39 -10.62,-19.769 l 30.35,-100.781 c 0.02,-0.071 0.03,-0.149 0.05,-0.219 l 24.96,-82.859 c 3.21,-10.641 11.89,-17.512 20.1,-16.493 l 27.59,-189.91 162.59,55.832 -73.88,168.989 c 2.84,1.218 5.15,3.371 6.77,6.21"
         style="fill:#a8a8a8;fill-opacity:1;fillRule:nonzero;stroke:none"
         id="path36" /><path
         d="m 2063.79,772.031 -2.02,0.617 c -8.38,2.524 -17.23,-2.238 -19.77,-10.636 l -24.09,-80.024 -4.65,1.403 32.64,108.398 c 2.52,8.402 -2.21,17.231 -10.62,19.762 l -2.02,0.609 c -8.38,2.52 -17.24,-2.219 -19.77,-10.609 l -32.65,-108.403 -5.31,1.602 37.33,123.922 c 2.52,8.41 -2.23,17.25 -10.63,19.789 l -2.03,0.609 c -8.4,2.532 -17.24,-2.23 -19.78,-10.629 l -37.32,-123.921 -5.06,1.519 32.65,108.402 c 2.53,8.399 -2.24,17.231 -10.61,19.758 l -2.05,0.621 c -8.38,2.532 -17.23,-2.238 -19.77,-10.609 l -38.95,-129.332 c 0,-0.008 -0.01,-0.02 -0.01,-0.027 l -3.82,-12.672 c -0.17,-0.211 -11.44,-13.871 -20.76,3.468 -0.01,0.024 -0.02,0.032 -0.03,0.051 -10.18,18.973 -19.79,36.86 -25.5,47.512 -4.14,7.711 -13.77,10.609 -21.48,6.461 l -1.87,-1.012 c -7.73,-4.14 -9.79,-13.379 -6.49,-21.48 12.3,-29.93 56.37,-123.95 56.37,-123.95 0.04,-0.07 0.13,-0.128 0.17,-0.199 1.62,-2.84 3.93,-4.992 6.77,-6.211 l -73.88,-168.992 162.58,-55.836 27.59,189.918 c 8.22,-1.019 16.9,5.84 20.1,16.488 l 24.97,82.864 c 0.02,0.07 0.02,0.136 0.04,0.207 l 30.35,100.793 c 2.55,8.379 -2.21,17.25 -10.62,19.769"
         style="fill:#a8a8a8;fill-opacity:1;fillRule:nonzero;stroke:none"
         id="path38" /><path
         d="m 3002.86,851.059 c -9.12,-7.09 -22.27,-5.45 -29.35,3.671 -7.1,9.11 -5.47,22.25 3.65,29.34 9.12,7.11 22.27,5.461 29.36,-3.66 7.09,-9.109 5.46,-22.262 -3.66,-29.351 z m -27.18,36.062 c -11.54,-8.992 -13.62,-25.621 -4.62,-37.152 8.96,-11.547 25.59,-13.61 37.13,-4.649 11.54,8.989 13.62,25.621 4.65,37.168 -8.98,11.524 -25.63,13.602 -37.16,4.633"
         style="fill:#3b4a8f;fill-opacity:1;fillRule:nonzero;stroke:none"
         id="path40" /><path
         d="m 3423.62,851.059 c -9.12,-7.09 -22.27,-5.45 -29.35,3.671 -7.1,9.11 -5.47,22.25 3.65,29.34 9.12,7.11 22.27,5.461 29.36,-3.66 7.09,-9.109 5.46,-22.262 -3.66,-29.351 z m -27.18,36.062 c -11.54,-8.992 -13.62,-25.621 -4.62,-37.152 8.96,-11.547 25.6,-13.61 37.13,-4.649 11.54,8.989 13.62,25.621 4.65,37.168 -8.98,11.524 -25.63,13.602 -37.16,4.633"
         style="fill:#3b4a8f;fill-opacity:1;fillRule:nonzero;stroke:none"
         id="path42" /><path
         d="m 2851.94,884.23 c -13.98,-4.761 -29.18,2.7 -33.95,16.68 -4.77,13.988 2.7,29.192 16.67,33.961 13.99,4.77 29.19,-2.699 33.96,-16.68 4.77,-13.972 -2.69,-29.191 -16.68,-33.961 z m -13.32,63.391 c -23.62,-8.051 -36.21,-33.723 -28.16,-57.32 8.06,-23.621 33.72,-36.223 57.33,-28.16 23.6,8.05 36.22,33.711 28.15,57.32 -8.05,23.609 -33.71,36.23 -57.32,28.16"
         style="fill:#a8a8a8;fill-opacity:1;fillRule:nonzero;stroke:none"
         id="path44" /><path
         d="m 3059.67,759.309 c 0.88,-0.02 1.72,-0.047 2.7,-0.047 13.41,0 17.9,2 27.74,6.398 13.27,5.918 31.44,14.039 63.83,14.039 32.42,0 50.57,-8.121 63.83,-14.051 9.82,-4.386 14.31,-6.386 27.74,-6.386 13.4,0 17.89,2 27.75,6.386 13.25,5.93 31.4,14.051 63.82,14.051 0.39,0 0.72,-0.039 1.11,-0.039 v 181.512 h 113.29 v 101.908 h -27.5 -85.79 -58.26 c 0,-44.73 -36.26,-80.99 -81,-80.99 -44.74,0 -81,36.26 -81,80.99 h -58.26 -113.29 V 961.172 h 113.29 V 759.309"
         style="fill:#a8a8a8;fill-opacity:1;fillRule:nonzero;stroke:none"
         id="path46" /><path
         d="m 3392.05,609.41 c -12.06,0.738 -18.56,4.129 -26.52,8.32 -10.47,5.508 -23.53,12.372 -47.65,12.372 -24.16,0 -37.2,-6.864 -47.67,-12.372 -9.01,-4.738 -16.14,-8.48 -31.63,-8.48 -15.51,0 -22.64,3.742 -31.63,8.48 -10.49,5.508 -23.53,12.372 -47.67,12.372 -24.14,0 -37.2,-6.864 -47.67,-12.372 -9.01,-4.738 -16.12,-8.48 -31.63,-8.48 -15.5,0 -22.62,3.742 -31.63,8.48 -10.28,5.399 -23.1,12.079 -46.39,12.329 -2.38,8.91 -4.82,18.05 -7.28,27.32 2.7,1.121 6.11,1.961 10.69,1.992 23.67,0.18 36.45,-6.73 46.72,-12.133 8.83,-4.636 15.82,-8.308 31.01,-8.308 15.21,0 22.18,3.672 31.01,8.308 10.27,5.403 23.07,12.133 46.74,12.133 23.67,0 36.45,-6.73 46.74,-12.133 8.81,-4.636 15.8,-8.308 31.01,-8.308 15.19,0 22.18,3.672 31.01,8.308 10.27,5.403 23.05,12.133 46.74,12.133 23.65,0 36.45,-6.73 46.72,-12.133 8.83,-4.636 16.14,-7.726 30.81,-11.687 1.34,-0.36 3.05,-0.742 4.88,-1.11 -2.3,-8.601 -4.54,-16.972 -6.71,-25.031 z m 77.21,229.809 c -8.64,2.242 -17.43,-2.93 -19.68,-11.547 -0.23,-0.883 -11.19,-43.063 -24.97,-95.512 -16.39,0.52 -24.67,4.129 -34.82,8.66 -12.25,5.481 -26.15,11.668 -52.71,11.668 -26.57,0 -40.47,-6.187 -52.72,-11.668 -10.98,-4.898 -19.63,-8.769 -38.85,-8.769 -19.24,0 -27.9,3.871 -38.86,8.769 -12.25,5.481 -26.16,11.668 -52.71,11.668 -26.57,0 -40.46,-6.187 -52.73,-11.668 -10.96,-4.898 -19.62,-8.769 -38.84,-8.769 -19.24,0 -27.87,3.871 -38.85,8.769 -12.25,5.481 -26.17,11.668 -52.72,11.668 -0.47,0 -0.77,-0.078 -1.17,-0.117 -11.19,42.668 -19.47,74.527 -19.67,75.301 -2.25,8.617 -11.04,13.789 -19.66,11.547 -8.62,-2.25 -13.79,-11.028 -11.57,-19.66 0.51,-1.868 48.74,-187.418 70.57,-266.098 11.86,-42.641 38.14,-49.02 52.75,-49.02 h 157.72 157.72 c 14.61,0 40.9,6.379 52.73,49.02 21.87,78.68 70.1,264.23 70.59,266.098 2.23,8.632 -2.95,17.41 -11.55,19.66"
         style="fill:#3b4a8f;fill-opacity:1;fillRule:nonzero;stroke:none"
         id="path48" /><path
         d="m 3457.76,3804.4 c 18.4,6.69 38.73,-2.79 45.44,-21.19 6.69,-18.39 -2.81,-38.73 -21.19,-45.42 -18.41,-6.7 -38.74,2.79 -45.44,21.17 -6.69,18.4 2.81,38.75 21.19,45.44 z m 30.4,-74.5 c 28.39,10.34 43.03,41.73 32.7,70.12 -10.34,28.39 -41.72,43.02 -70.13,32.69 -28.39,-10.33 -43.02,-41.72 -32.69,-70.12 10.33,-28.39 41.74,-43.02 70.12,-32.69"
         style="fill:#3b4a8f;fill-opacity:1;fillRule:nonzero;stroke:none"
         id="path50" /><path
         d="m 3563.59,3787.75 c 9.45,17.25 31.08,23.57 48.32,14.12 17.24,-9.44 23.56,-31.07 14.11,-48.32 -9.44,-17.23 -31.07,-23.55 -48.31,-14.11 -17.24,9.44 -23.55,31.07 -14.12,48.31 z m 10.38,-52.68 c 21.81,-11.94 49.19,-3.94 61.15,17.87 11.95,21.82 3.95,49.19 -17.87,61.15 -21.81,11.95 -49.18,3.95 -61.13,-17.88 -11.95,-21.82 -3.96,-49.19 17.85,-61.14"
         style="fill:#3b4a8f;fill-opacity:1;fillRule:nonzero;stroke:none"
         id="path52" /><path
         d="m 3561.14,3685.34 c -1.73,-10.23 -11.44,-17.12 -21.67,-15.36 -10.23,1.73 -17.12,11.45 -15.36,21.68 1.73,10.22 11.43,17.11 21.67,15.36 10.23,-1.74 17.11,-11.45 15.36,-21.68 z m -14.24,24.51 c -12.96,2.2 -25.25,-6.5 -27.43,-19.46 -2.23,-12.94 6.49,-25.22 19.43,-27.43 12.95,-2.2 25.24,6.5 27.45,19.45 2.2,12.94 -6.51,25.23 -19.45,27.44"
         style="fill:#3b4a8f;fill-opacity:1;fillRule:nonzero;stroke:none"
         id="path54" /><path
         d="m 3475.24,3642.67 c -6.37,-11.63 -20.98,-15.91 -32.63,-9.53 -11.63,6.38 -15.9,20.98 -9.52,32.62 6.37,11.65 20.99,15.9 32.62,9.54 11.64,-6.38 15.9,-20.99 9.53,-32.63 z m 1.32,37.74 c -19.66,10.77 -44.31,3.55 -55.07,-16.1 -10.77,-19.65 -3.57,-44.3 16.09,-55.07 19.65,-10.76 44.3,-3.57 55.07,16.09 10.77,19.65 3.57,44.31 -16.09,55.08"
         style="fill:#3b4a8f;fill-opacity:1;fillRule:nonzero;stroke:none"
         id="path56" /><path
         d="m 3772.74,3637.39 -1.22,0.65 37.85,70.45 -91.19,48.97 -37.83,-70.44 -1.22,0.66 c -2.88,1.54 -6.2,1.71 -9.49,0.81 -0.07,-0.02 -0.16,0 -0.23,-0.02 0,0 -88.04,-31.85 -114.96,-43.09 -7.27,-3.06 -11.84,-10.26 -9.56,-17.83 l 0.55,-1.83 c 2.27,-7.56 10.26,-11.85 17.81,-9.58 10.43,3.15 27.96,8.43 46.53,14.02 0.03,0.01 0.05,0.01 0.07,0.02 17,5.12 15.48,-10.78 15.45,-11.02 l -5.65,-10.52 c 0,0 0,-0.01 0,-0.01 l -4.59,-8.54 v 0 l -8.79,-16.36 -44.25,-82.39 c -3.72,-6.96 -1.11,-15.64 5.84,-19.37 l 1.7,-0.91 c 6.95,-3.73 15.62,-1.13 19.36,5.83 l 30.11,56.07 v 0 l 18.19,33.86 4.2,-2.26 -17.63,-32.82 v 0 l -37.59,-69.98 c -3.74,-6.97 -1.13,-15.64 5.84,-19.38 l 1.68,-0.91 c 6.97,-3.74 15.64,-1.13 19.4,5.84 l 39.38,73.35 v 0 l 15.82,29.45 4.4,-2.36 -15.9,-29.62 v 0 l -32.39,-60.31 c -3.74,-6.96 -1.11,-15.63 5.84,-19.37 l 1.68,-0.89 c 6.97,-3.75 15.62,-1.14 19.36,5.82 l 30.14,56.11 v 0 l 18.17,33.81 3.85,-2.07 -35.65,-66.37 c -3.74,-6.98 -1.13,-15.65 5.82,-19.39 l 1.68,-0.9 c 6.97,-3.75 15.66,-1.13 19.38,5.84 l 44.9,83.6 c 0.03,0.06 0.08,0.11 0.11,0.17 l 36.9,68.73 c 5.16,9.6 3.42,20.55 -3.87,24.48"
         style="fill:#a8a8a8;fill-opacity:1;fillRule:nonzero;stroke:none"
         id="path58" /><path
         d="m 3709.24,3470.27 c 7.58,-16.5 11.93,-34.79 11.93,-54.13 0,-71.72 -58.14,-129.86 -129.86,-129.86 -71.72,0 -129.86,58.14 -129.86,129.86 0,66.62 50.19,121.45 114.81,128.91 l 30.04,55.95 c -4.95,0.39 -9.94,0.65 -14.99,0.65 -102.46,0 -185.51,-83.06 -185.51,-185.51 0,-102.46 83.05,-185.51 185.51,-185.51 102.46,0 185.51,83.05 185.51,185.51 0,41.68 -13.75,80.16 -36.96,111.13 l -30.62,-57"
         style="fill:#3b4a8f;fill-opacity:1;fillRule:nonzero;stroke:none"
         id="path60" /><path
         d="m 3405.8,3709.24 v 1.9 c -23.67,6.56 -22.62,34.98 -22.62,34.98 h -1.05 -1.04 c 0,0 1.04,-28.42 -22.62,-34.98 v -0.95 -0.95 c 23.66,-6.56 22.62,-34.97 22.62,-34.97 h 1.04 1.05 c 0,0 -1.05,28.41 22.62,34.97"
         style="fill:#3b4a8f;fill-opacity:1;fillRule:nonzero;stroke:none"
         id="path62" /><path
         d="m 3542.78,3436.33 v 1.9 c -23.66,6.56 -22.62,34.98 -22.62,34.98 h -1.04 -1.05 c 0,0 1.05,-28.42 -22.62,-34.98 v -0.95 -0.95 c 23.67,-6.56 22.62,-34.97 22.62,-34.97 h 1.05 1.04 c 0,0 -1.04,28.41 22.62,34.97"
         style="fill:#3b4a8f;fill-opacity:1;fillRule:nonzero;stroke:none"
         id="path64" /><path
         d="m 3534.07,3836.13 h 1.84 c 0,0 -0.92,25.01 19.91,30.78 v 0.84 0.84 c -20.83,5.77 -19.91,30.78 -19.91,30.78 h -0.92 -0.92 c 0,0 0.92,-25.01 -19.91,-30.78 v -0.84 -0.84 c 20.83,-5.77 19.91,-30.78 19.91,-30.78"
         style="fill:#3b4a8f;fill-opacity:1;fillRule:nonzero;stroke:none"
         id="path66" /><path
         d="m 580.492,2247.73 -62.269,19.03 c 18.668,54.15 55.632,157.91 55.632,157.91 5.415,17.71 -4.55,36.44 -22.253,41.86 -17.704,5.41 -36.442,-4.55 -41.856,-22.26 0,0 -27.375,-106.69 -42.176,-162.02 l -62.273,19.04 c -35.649,10.9 -63.453,-23.85 -93.313,-72.43 0.047,0.05 0.09,0.08 0.141,0.12 -0.047,-0.04 -0.094,-0.08 -0.141,-0.12 -8.644,-14.07 -17.461,-29.28 -26.687,-44.89 -5.981,-10.12 -12.664,-21.37 -19.645,-33.09 l 32.743,-10.01 140.511,-42.96 140.512,-42.95 32.738,-10.01 c 0.77,13.61 1.52,26.68 2.219,38.41 1.078,18.1 2.277,35.64 2.977,52.14 2.41,56.97 -1.211,101.33 -36.86,112.23"
         style="fill:#a8a8a8;fill-opacity:1;fillRule:nonzero;stroke:none"
         id="path68" /><path
         d="m 578.602,2040.6 -143.782,43.95 -143.777,43.96 h -0.004 l -32.75,10.01 c -8.644,-14.49 -17.519,-29.32 -25.918,-43.34 l 188.113,-57.51 188.118,-57.51 c 0.875,16.31 1.816,33.57 2.75,50.42 l -32.75,10.02 v 0"
         style="fill:#a8a8a8;fill-opacity:1;fillRule:nonzero;stroke:none"
         id="path70" /><path
         d="m 686.859,2582.61 c -8.164,-2.97 -17.179,1.24 -20.144,9.4 -2.965,8.16 1.242,17.18 9.402,20.15 8.16,2.96 17.18,-1.25 20.145,-9.41 2.965,-8.16 -1.246,-17.18 -9.403,-20.14 z m 71.891,-118.94 c -18.176,56.55 -46.68,147.69 -46.68,147.69 -6.324,17.4 -25.554,26.38 -42.953,20.06 -17.398,-6.33 -26.375,-25.56 -20.051,-42.96 0,0 36.672,-88.17 59.043,-143.19 -25.734,-23.59 -35.504,-66.1 -22.644,-108.2 l 160.125,58.2 c -17.176,40.52 -51.961,66.84 -86.84,68.4"
         style="fill:#3b4a8f;fill-opacity:1;fillRule:nonzero;stroke:none"
         id="path72" /><path
         d="m 1019.94,2176.29 c -17.98,6.98 -53.311,25.25 -72.792,65.65 -55.269,114.65 -90.98,136.09 -98.597,139.54 L 692,2324.58 c -3.43,-7.1 -17.355,-46.24 14.059,-170.27 11.015,-43.49 -4.364,-80.17 -13.657,-97.08 10.344,-0.27 29.657,0.76 60.871,7.42 5.364,25.45 6.086,67.1 -10.605,134.43 0,0 39.668,-57.87 50.527,-124.44 16.891,4.77 36.11,10.85 57.809,18.48 l -18.992,90.12 53.172,-77.54 c 18.375,7.09 34.429,13.83 48.492,20.19 l -13.528,53.19 40.981,-40.04 c 32.937,16.79 50.381,29.79 58.811,37.25"
         style="fill:#a8a8a8;fill-opacity:1;fillRule:nonzero;stroke:none"
         id="path74" /><path
         d="m 345.102,1922.66 c -13.508,0 -24.461,-10.95 -24.461,-24.46 0,-13.51 10.953,-24.46 24.461,-24.46 13.511,0 24.461,10.95 24.461,24.46 0,13.51 -10.95,24.46 -24.461,24.46"
         style="fill:#3b4a8f;fill-opacity:1;fillRule:nonzero;stroke:none"
         id="path76" /><path
         d="m 438.5,1911.54 c -7.367,0 -13.344,-5.97 -13.344,-13.34 0,-7.37 5.977,-13.34 13.344,-13.34 7.367,0 13.344,5.97 13.344,13.34 0,7.37 -5.977,13.34 -13.344,13.34"
         style="fill:#3b4a8f;fill-opacity:1;fillRule:nonzero;stroke:none"
         id="path78" /><path
         d="m 386.242,2013.19 c -20.652,0 -37.394,-16.74 -37.394,-37.39 0,-20.65 16.742,-37.4 37.394,-37.4 20.653,0 37.395,16.75 37.395,37.4 0,20.65 -16.742,37.39 -37.395,37.39"
         style="fill:#3b4a8f;fill-opacity:1;fillRule:nonzero;stroke:none"
         id="path80" /><path
         d="m 904.129,1324.54 c -24.352,47.69 -57.84,42.62 -38.563,113.64 19.286,71.04 0,108.58 -60.878,144.1 -6.032,3.51 -12.145,9.67 -18.223,17.54 -47.375,40.63 -85.043,99.43 -93.977,113.96 -1.675,-0.69 -3.363,-1.2 -5.047,-1.83 1.731,-3.2 2.801,-6.8 2.801,-10.68 0,-7.56 -3.762,-14.22 -9.476,-18.33 5.714,-4.11 9.476,-10.78 9.476,-18.34 0,-7.56 -3.762,-14.23 -9.476,-18.33 5.714,-4.11 9.476,-10.78 9.476,-18.34 0,-7.56 -3.762,-14.23 -9.48,-18.34 5.718,-4.11 9.48,-10.77 9.48,-18.34 0,-12.47 -10.14,-22.61 -22.613,-22.61 h -83.117 c -8.633,0 -16.063,4.91 -19.871,12.04 -58.758,-35.05 -77.278,-72.52 -58.282,-142.5 19.278,-71.02 -14.207,-65.95 -38.558,-113.64 -24.36,-47.7 0,-155.25 89.293,-173.52 46.168,-9.44 89.625,-13.96 133.172,-13.64 40.683,0.3 81.437,4.82 124.57,13.64 89.293,18.27 113.644,125.82 89.293,173.52"
         style="fill:#3b4a8f;fill-opacity:1;fillRule:nonzero;stroke:none"
         id="path82" /><path
         d="m 686.984,1759.71 c 7.063,-1.73 30.895,-7.77 51.168,-15.04 l 50.301,46.65 c 0,0 -7.351,29.07 -47.535,13.29 -31.961,-12.56 -37.387,1.75 -43.031,12.33 -2.078,3.89 -4.746,6.51 -7.621,7.83 -5.551,2.57 -11.879,0.19 -16.227,-7.83 -5.715,-10.55 -11.07,-24.89 -43.031,-12.33 -40.18,15.78 -47.531,-13.29 -47.531,-13.29 l 54.851,-50.87 47.293,19.59 1.363,-0.33"
         style="fill:#3b4a8f;fill-opacity:1;fillRule:nonzero;stroke:none"
         id="path84" /><path
         d="m 681.684,1701.27 c 0,2.87 -0.871,5.53 -2.348,7.76 -12.813,-4.02 -25.461,-6.18 -36.75,-6.18 -5.406,0 -10.301,0.51 -14.555,1.51 -6.734,1.58 -9.945,5.34 -11.453,8.21 -0.476,0.91 -0.836,1.83 -1.117,2.76 h -30.949 c -7.75,0 -14.055,-6.31 -14.055,-14.06 0,-7.75 6.305,-14.05 14.055,-14.05 h 83.117 c 7.75,0 14.055,6.3 14.055,14.05"
         style="fill:#a8a8a8;fill-opacity:1;fillRule:nonzero;stroke:none"
         id="path86" /><path
         d="m 681.684,1664.6 c 0,7.75 -6.305,14.06 -14.055,14.06 h -83.117 c -7.75,0 -14.055,-6.31 -14.055,-14.06 0,-7.75 6.305,-14.05 14.055,-14.05 h 83.117 c 7.75,0 14.055,6.3 14.055,14.05"
         style="fill:#a8a8a8;fill-opacity:1;fillRule:nonzero;stroke:none"
         id="path88" /><path
         d="m 681.684,1627.93 c 0,7.75 -6.305,14.06 -14.055,14.06 h -83.117 c -7.75,0 -14.055,-6.31 -14.055,-14.06 0,-7.75 6.305,-14.06 14.055,-14.06 h 83.117 c 7.75,0 14.055,6.31 14.055,14.06"
         style="fill:#a8a8a8;fill-opacity:1;fillRule:nonzero;stroke:none"
         id="path90" /><path
         d="m 584.512,1577.2 h 83.117 c 7.75,0 14.055,6.3 14.055,14.05 0,7.75 -6.305,14.06 -14.055,14.06 h -83.117 c -7.75,0 -14.055,-6.31 -14.055,-14.06 0,-7.75 6.305,-14.05 14.055,-14.05"
         style="fill:#a8a8a8;fill-opacity:1;fillRule:nonzero;stroke:none"
         id="path92" /><path
         d="m 686.305,1751.06 -62.532,-25.9 c -0.566,-2.32 -1.007,-5.99 0.395,-8.64 1.008,-1.89 2.91,-3.14 5.82,-3.83 14.895,-3.51 40.164,0.59 62.524,10.41 l 3.465,1.52 1.933,-3.26 c 0.555,-0.94 55.969,-93.74 119.629,-134.26 h 55.191 v 91.42 h -96.523 l -0.461,3.76 c -0.012,0.11 -1.359,10.93 -5.769,22.17 -2.895,9.01 -5.809,15.59 -8.512,19.29 -5.695,7.78 -48.524,20.72 -75.16,27.32"
         style="fill:#a8a8a8;fill-opacity:1;fillRule:nonzero;stroke:none"
         id="path94" /><path
         d="m 3741.08,1106.32 c -18.17,0 -32.89,14.73 -32.89,32.89 0,18.17 14.72,32.89 32.89,32.89 18.16,0 32.89,-14.72 32.89,-32.89 0,-18.16 -14.73,-32.89 -32.89,-32.89 z m 0,109.03 c -41.98,0 -76.13,-34.16 -76.13,-76.14 0,-41.97 34.15,-76.13 76.13,-76.13 41.98,0 76.13,34.16 76.13,76.13 0,41.98 -34.15,76.14 -76.13,76.14"
         style="fill:#a8a8a8;fill-opacity:1;fillRule:nonzero;stroke:none"
         id="path96" /><path
         d="m 3886.08,1259.29 -0.13,1.72 -5.54,69.56 21.13,-13.4 v 0 c 9.54,15.02 12.65,32.86 8.77,50.22 -3.77,16.84 -13.69,31.27 -27.98,40.82 l 23.71,17.84 6.09,4.57 c 16.72,-14.31 28.34,-33.53 33.23,-55.4 5.97,-26.72 1.18,-54.17 -13.49,-77.29 v -0.01 l 21.13,-13.4 z m -44.87,-13.11 c -10.62,0 -21.28,1.67 -31.67,5.03 -26.06,8.44 -47.27,26.51 -59.73,50.89 l -22.29,-11.38 10.13,58.18 0.97,5.54 1.17,6.73 13.8,-6.73 18.34,-8.94 32.14,-15.67 -22.28,-11.38 c 16.06,-31.44 53.82,-44.66 85.77,-30.81 l 2.35,-29.64 0.6,-7.48 c -9.55,-2.88 -19.4,-4.34 -29.3,-4.34 z m -68.11,116.79 -26.21,12.78 -7.22,3.52 c 11.13,44.57 51.5,77.69 99.47,77.69 v 25.03 l 57.16,-42.98 -57.16,-42.98 v 25.02 c -33.83,0 -61.84,-25.36 -66.04,-58.08 z m 277.71,179.81 h -460.98 c -3.27,0 -5.91,-2.64 -5.91,-5.91 v -20.68 c 0,-3.27 2.64,-5.91 5.91,-5.91 h 1.9 v -367.96 h 17.2 c 12.96,0 23.46,10.51 23.46,23.46 v 344.5 h 8.68 l 31.28,-308.6 c 17.02,18.72 41.49,30.56 68.73,30.56 51.29,0 93.03,-41.73 93.03,-93.03 0,-24.72 -9.76,-47.16 -25.55,-63.84 h 31.7 0.16 138.15 c 10.33,0 18.7,8.37 18.7,18.69 l 42.99,416.22 h 10.55 c 3.26,0 5.91,2.64 5.91,5.91 v 20.68 c 0,3.27 -2.65,5.91 -5.91,5.91"
         style="fill:#3b4a8f;fill-opacity:1;fillRule:nonzero;stroke:none"
         id="path98" /><path
         d="m 3955.14,2827.14 c 40.63,0 57.1,35.01 57.1,66.56 h -114.17 c 0,-31.55 18.18,-66.56 57.07,-66.56"
         style="fill:#3b4a8f;fill-opacity:1;fillRule:nonzero;stroke:none"
         id="path100" /><path
         d="m 3916.51,2969.51 c 0,-10.19 -8.23,-18.46 -18.44,-18.46 -10.18,0 -18.45,8.27 -18.45,18.46 0,10.19 8.27,18.46 18.45,18.46 10.21,0 18.44,-8.27 18.44,-18.46"
         style="fill:#3b4a8f;fill-opacity:1;fillRule:nonzero;stroke:none"
         id="path102" /><path
         d="m 3907.76,2973.91 c 0,-4.22 -3.44,-7.65 -7.65,-7.65 -4.23,0 -7.67,3.43 -7.67,7.65 0,4.22 3.44,7.65 7.67,7.65 4.21,0 7.65,-3.43 7.65,-7.65"
         style="fill:#3b4a8f;fill-opacity:1;fillRule:nonzero;stroke:none"
         id="path104" /><path
         d="m 3993.76,2969.51 c 0,-10.19 8.28,-18.46 18.46,-18.46 10.18,0 18.44,8.27 18.44,18.46 0,10.19 -8.26,18.46 -18.44,18.46 -10.18,0 -18.46,-8.27 -18.46,-18.46"
         style="fill:#3b4a8f;fill-opacity:1;fillRule:nonzero;stroke:none"
         id="path106" /><path
         d="m 4002.55,2973.91 c 0,-4.22 3.42,-7.65 7.64,-7.65 4.23,0 7.64,3.43 7.64,7.65 0,4.22 -3.41,7.65 -7.64,7.65 -4.22,0 -7.64,-3.43 -7.64,-7.65"
         style="fill:#3b4a8f;fill-opacity:1;fillRule:nonzero;stroke:none"
         id="path108" /><path
         d="m 4066.58,3144.97 c 0,0 -83.86,-78.63 -219.33,-78.63 0,0 -0.81,35.41 -26.88,38.39 -16.37,1.87 -30.47,-5.88 -37.86,-18.04 -27.88,27.53 -72.88,59.8 -129.85,58.22 0,0 26.09,-106.18 106.1,-106.18 -80.01,0 -61.05,-149.1 -61.05,-149.1 81.7,33.37 113.62,105.45 125.39,145.33 1.75,0 132.04,-65.45 325.45,21.66 1.9,0.86 -29.92,67.66 -81.97,88.35"
         style="fill:#a8a8a8;fill-opacity:1;fillRule:nonzero;stroke:none"
         id="path110" /><path
         d="m 3862.67,3085.08 c 81.69,3.87 142.04,37.62 171.41,57.95 -24.38,9.89 -51.01,15.38 -78.94,15.38 -45.13,0 -86.89,-14.27 -121.13,-38.47 15.99,-6.4 24.66,-21.11 28.66,-34.86"
         style="fill:#3b4a8f;fill-opacity:1;fillRule:nonzero;stroke:none"
         id="path112" /><path
         d="m 4097.59,3017.31 c 19.26,-22.13 30.47,-49.06 30.47,-78.42 0,-80.92 -77.56,-146.75 -172.89,-146.75 -90.45,0 -164.78,59.27 -172.19,134.43 -9.36,-10.03 -20.11,-19.61 -32.29,-28.4 13.34,-56.79 49.74,-103.07 104.24,-134.89 l 22.07,25.07 c 23.9,-9.29 50.31,-14.58 78.17,-14.58 27.85,0 54.25,5.29 78.13,14.56 l 22.04,-25.05 c 69.76,40.71 110.05,105.02 110.05,184.84 0,31.27 -6.88,60.92 -19.12,87.6 -16.25,-6.98 -32.48,-13.14 -48.68,-18.41"
         style="fill:#3b4a8f;fill-opacity:1;fillRule:nonzero;stroke:none"
         id="path114" /><path
         d="m 4267.63,2545.18 c 0,103.17 -49.62,187.4 -107.9,194.28 v -245.44 h 107.9 v 51.16"
         style="fill:#a8a8a8;fill-opacity:1;fillRule:nonzero;stroke:none"
         id="path116" /><path
         d="m 3642.65,2545.18 v -51.16 h 107.92 v 225.43 c -63.93,-32 -107.92,-97.92 -107.92,-174.27"
         style="fill:#a8a8a8;fill-opacity:1;fillRule:nonzero;stroke:none"
         id="path118" /><path
         d="m 3955.14,2617.08 0.02,-0.06 v 0.06 h 143.7 v 123.06 c -62.12,0 -143.72,0 -143.72,0 h -117.53 c -8.9,0 -17.59,-0.81 -26.16,-1.96 v -121.1 h 143.69"
         style="fill:#3b4a8f;fill-opacity:1;fillRule:nonzero;stroke:none"
         id="path120" /><path
         d="m 3853.22,2074.76 h 4 c 0,0 -2,54.45 43.35,67.02 v 1.82 1.82 c -45.35,12.57 -43.35,67.02 -43.35,67.02 h -2 -2 c 0,0 2,-54.45 -43.34,-67.02 v -1.82 -1.82 c 45.34,-12.57 43.34,-67.02 43.34,-67.02"
         style="fill:#3b4a8f;fill-opacity:1;fillRule:nonzero;stroke:none"
         id="path122" /><path
         d="m 4072.35,2318.01 h 5.68 c 0,0 -2.84,77.18 61.44,94.99 v 2.58 2.58 c -64.28,17.81 -61.44,94.99 -61.44,94.99 h -2.84 -2.84 c 0,0 2.84,-77.18 -61.43,-94.99 v -2.58 -2.58 c 64.27,-17.81 61.43,-94.99 61.43,-94.99"
         style="fill:#3b4a8f;fill-opacity:1;fillRule:nonzero;stroke:none"
         id="path124" /><path
         d="m 3980.83,1991.36 c -8.24,0 -14.93,6.7 -14.93,14.93 0,8.23 6.69,14.94 14.93,14.94 8.24,0 14.94,-6.71 14.94,-14.94 0,-8.23 -6.7,-14.93 -14.94,-14.93 z m 0,40.73 c -14.22,0 -25.8,-11.57 -25.8,-25.8 0,-14.22 11.58,-25.8 25.8,-25.8 14.23,0 25.8,11.58 25.8,25.8 0,14.23 -11.57,25.8 -25.8,25.8"
         style="fill:#a8a8a8;fill-opacity:1;fillRule:nonzero;stroke:none"
         id="path126" /><path
         d="m 3909.08,1824.08 c -4.99,0 -9.05,4.06 -9.05,9.04 0,4.99 4.06,9.05 9.05,9.05 4.99,0 9.06,-4.06 9.06,-9.05 0,-4.98 -4.07,-9.04 -9.06,-9.04 z m 0,28.96 c -10.98,0 -19.91,-8.94 -19.91,-19.92 0,-10.98 8.93,-19.91 19.91,-19.91 10.99,0 19.92,8.93 19.92,19.91 0,10.98 -8.93,19.92 -19.92,19.92"
         style="fill:#a8a8a8;fill-opacity:1;fillRule:nonzero;stroke:none"
         id="path128" /><path
         d="m 3855.22,1926.06 c -4.99,0 -9.05,4.07 -9.05,9.06 0,4.99 4.06,9.05 9.05,9.05 4.99,0 9.05,-4.06 9.05,-9.05 0,-4.99 -4.06,-9.06 -9.05,-9.06 z m 0,28.97 c -10.98,0 -19.91,-8.93 -19.91,-19.91 0,-10.99 8.93,-19.92 19.91,-19.92 10.99,0 19.92,8.93 19.92,19.92 0,10.98 -8.93,19.91 -19.92,19.91"
         style="fill:#a8a8a8;fill-opacity:1;fillRule:nonzero;stroke:none"
         id="path130" /><path
         d="m 4048.03,2135.85 c -11.98,0 -21.72,9.75 -21.72,21.73 0,11.97 9.74,21.72 21.72,21.72 11.99,0 21.73,-9.75 21.73,-21.72 0,-11.98 -9.74,-21.73 -21.73,-21.73 z m 0,54.31 c -17.96,0 -32.58,-14.61 -32.58,-32.58 0,-17.97 14.62,-32.59 32.58,-32.59 17.98,0 32.59,14.62 32.59,32.59 0,17.97 -14.61,32.58 -32.59,32.58"
         style="fill:#a8a8a8;fill-opacity:1;fillRule:nonzero;stroke:none"
         id="path132" /><path
         d="m 3828.52,1831.95 c -4.99,0 -9.05,4.06 -9.05,9.06 0,4.98 4.06,9.04 9.05,9.04 4.99,0 9.05,-4.06 9.05,-9.04 0,-5 -4.06,-9.06 -9.05,-9.06 z m 0,28.97 c -10.99,0 -19.92,-8.93 -19.92,-19.91 0,-10.99 8.93,-19.93 19.92,-19.93 10.98,0 19.91,8.94 19.91,19.93 0,10.98 -8.93,19.91 -19.91,19.91"
         style="fill:#a8a8a8;fill-opacity:1;fillRule:nonzero;stroke:none"
         id="path134" /><path
         d="m 4115.93,2066.18 c -4.99,0 -9.05,4.06 -9.05,9.06 0,4.98 4.06,9.04 9.05,9.04 4.99,0 9.06,-4.06 9.06,-9.04 0,-5 -4.07,-9.06 -9.06,-9.06 z m 0,28.97 c -10.98,0 -19.91,-8.94 -19.91,-19.91 0,-10.99 8.93,-19.93 19.91,-19.93 10.99,0 19.92,8.94 19.92,19.93 0,10.97 -8.93,19.91 -19.92,19.91"
         style="fill:#a8a8a8;fill-opacity:1;fillRule:nonzero;stroke:none"
         id="path136" /><path
         d="m 4193.72,1971.97 c -8,0 -14.48,6.48 -14.48,14.48 0,8 6.48,14.48 14.48,14.48 8,0 14.49,-6.48 14.49,-14.48 0,-8 -6.49,-14.48 -14.49,-14.48 z m -85.96,27.4 c -11.71,-3.48 -23.81,-7.09 -35.56,-12.52 -32.86,-15.18 -81.67,-69.49 -93.27,-103.77 -4.14,-12.25 -6.44,-24.68 -8.66,-36.69 -3.96,-21.38 -7.69,-41.59 -21.49,-56.93 -22.04,-24.53 -53.6,-38.59 -86.59,-38.59 h -0.01 c -28.75,0 -56.37,10.6 -77.77,29.83 -47.74,42.91 -51.67,116.65 -8.77,164.38 13.79,15.34 33.48,21.21 54.32,27.42 11.71,3.47 23.82,7.08 35.57,12.5 32.85,15.18 81.67,69.49 93.27,103.78 4.15,12.25 6.44,24.68 8.67,36.7 3.95,21.38 7.68,41.58 21.47,56.92 22.04,24.53 53.61,38.59 86.61,38.59 28.75,0 56.36,-10.6 77.77,-29.83 23.12,-20.79 36.77,-49.34 38.42,-80.38 1.66,-31.05 -8.87,-60.88 -29.66,-84 -13.78,-15.34 -33.47,-21.21 -54.32,-27.41 z m 8.17,-56.37 c -7.99,0 -14.48,6.48 -14.48,14.48 0,8 6.49,14.49 14.48,14.49 8,0 14.49,-6.49 14.49,-14.49 0,-8 -6.49,-14.48 -14.49,-14.48 z m -95.05,-91.27 c -8,0 -14.49,6.48 -14.49,14.48 0,8 6.49,14.49 14.49,14.49 8,0 14.48,-6.49 14.48,-14.49 0,-8 -6.48,-14.48 -14.48,-14.48 z m -52.02,-112.25 c -8,0 -14.48,6.49 -14.48,14.48 0,8 6.48,14.49 14.48,14.49 8,0 14.49,-6.49 14.49,-14.49 0,-7.99 -6.49,-14.48 -14.49,-14.48 z m 250.26,404.17 c -7.24,26.78 -21.9,51.86 -44.01,71.74 -27.4,24.63 -62.76,38.19 -99.56,38.19 -42.23,0 -82.63,-18 -110.85,-49.39 -19.92,-22.18 -24.9,-49.06 -29.28,-72.8 -2.11,-11.38 -4.1,-22.12 -7.49,-32.17 -8.72,-25.77 -51.37,-73.23 -76.07,-84.63 -9.62,-4.45 -20.1,-7.57 -31.2,-10.86 -23.12,-6.89 -49.33,-14.7 -69.26,-36.86 -54.91,-61.1 -49.88,-155.49 11.22,-210.4 26.8,-24.09 61.23,-37.5 97.17,-38.08 63.37,-12.11 139.2,-9.04 167.11,22.01 22.84,25.42 21.62,58.04 32.58,87.33 9.88,26.38 51.14,72.29 76.32,84.92 27.96,14.01 60.53,16.26 83.38,41.68 32.73,36.42 24.6,127.95 -0.06,189.32"
         style="fill:#a8a8a8;fill-opacity:1;fillRule:nonzero;stroke:none"
         id="path138" /><path
         d="m 490.438,3190.84 h 4.093 c 0,0 -2.051,55.65 44.297,68.5 v 1.86 1.86 c -46.348,12.84 -44.297,68.49 -44.297,68.49 h -2.051 -2.042 c 0,0 2.042,-55.65 -44.297,-68.49 v -1.86 -1.86 c 46.339,-12.85 44.297,-68.5 44.297,-68.5"
         style="fill:#3b4a8f;fill-opacity:1;fillRule:nonzero;stroke:none"
         id="path140" /><path
         d="m 405.359,3150.82 h 1.907 c 0,0 -0.953,25.93 20.644,31.92 v 0.87 0.86 c -21.597,5.99 -20.644,31.92 -20.644,31.92 h -0.953 -0.954 c 0,0 0.954,-25.93 -20.644,-31.92 v -0.86 -0.87 c 21.598,-5.99 20.644,-31.92 20.644,-31.92"
         style="fill:#3b4a8f;fill-opacity:1;fillRule:nonzero;stroke:none"
         id="path142" /><path
         d="M 654.035,3053.83 H 397.41 c 0,-69.36 38.395,-129.72 95.07,-161.06 v -164.78 h 161.555 16.192 184.679 v 92.97 H 670.227 v 71.81 c 28.953,16.01 53.109,39.6 69.836,68.09 h 114.843 v 92.97 h -89.601 -111.27"
         style="fill:#a8a8a8;fill-opacity:1;fillRule:nonzero;stroke:none"
         id="path144" /><path
         d="m 397.41,3080.78 h 343.028 v 37.26 H 397.41 v -37.26"
         style="fill:#3b4a8f;fill-opacity:1;fillRule:nonzero;stroke:none"
         id="path146" /><path
         d="m 838.773,3376.04 v 29.07 h -69.488 v -29.07 h -39.75 l 24.934,-295.26 h 100.437 l 23.621,295.26 h -39.754"
         style="fill:#3b4a8f;fill-opacity:1;fillRule:nonzero;stroke:none"
         id="path148" /><path
         d="m 1160.44,1121.77 c 1.71,10.1 11.29,16.9 21.4,15.18 10.11,-1.72 16.91,-11.32 15.18,-21.42 -1.72,-10.09 -11.3,-16.9 -21.4,-15.17 -10.11,1.72 -16.91,11.31 -15.18,21.41 z m 14.61,-28.34 c 12.8,-2.17 24.93,6.42 27.11,19.21 2.17,12.78 -6.43,24.92 -19.21,27.1 -12.8,2.18 -24.93,-6.42 -27.09,-19.22 -2.2,-12.79 6.41,-24.91 19.19,-27.09"
         style="fill:#3b4a8f;fill-opacity:1;fillRule:nonzero;stroke:none"
         id="path150" /><path
         d="m 1046.87,1179.37 c 2.58,15.12 16.93,25.3 32.06,22.71 15.11,-2.56 25.3,-16.9 22.71,-32.03 -2.57,-15.13 -16.93,-25.31 -32.05,-22.72 -15.12,2.57 -25.31,16.92 -22.72,32.04 z m 18.39,-39.74 c 19.13,-3.25 37.3,9.63 40.56,28.76 3.26,19.15 -9.6,37.32 -28.76,40.56 -19.14,3.28 -37.29,-9.61 -40.55,-28.73 -3.26,-19.16 9.61,-37.32 28.75,-40.59"
         style="fill:#3b4a8f;fill-opacity:1;fillRule:nonzero;stroke:none"
         id="path152" /><path
         d="m 1306.05,1221.06 c 12.5,8.88 29.86,5.94 38.72,-6.59 8.87,-12.51 5.92,-29.86 -6.61,-38.72 -12.5,-8.88 -29.84,-5.94 -38.71,6.59 -8.88,12.51 -5.92,29.86 6.6,38.72 z m 38.29,-48.85 c 15.86,11.22 19.57,33.16 8.36,48.99 -11.24,15.85 -33.19,19.6 -49.03,8.37 -15.83,-11.23 -19.57,-33.19 -8.35,-49.02 11.24,-15.85 33.18,-19.59 49.02,-8.34"
         style="fill:#3b4a8f;fill-opacity:1;fillRule:nonzero;stroke:none"
         id="path154" /><path
         d="m 1032.16,997.301 12.48,-198.18 c 83.97,-20.922 172.79,21.918 218.58,101.77 -4.9,7.418 -6.57,16.859 -3.55,25.949 5.23,15.719 22.22,24.23 37.94,18.992 15.73,-5.23 24.23,-22.211 19,-37.941 -3.5,-10.512 -12.3,-17.68 -22.42,-19.782 -50.65,-91.699 -150.72,-142.55 -247.38,-123.507 l 11.23,-178.313 c 0,0 74.74,1 166.97,1 0.03,0 0.03,0 0.03,0 92.27,0 167.01,-1 167.01,-1 l 25.39,411.012 h -385.28"
         style="fill:#3b4a8f;fill-opacity:1;fillRule:nonzero;stroke:none"
         id="path156" /><path
         d="m 1390.7,997.441 h -223.18 c 5.84,23.889 27.37,41.699 53.04,41.699 6.73,0 13.39,-1.26 19.81,-3.77 l 17.26,-6.73 -0.91,20.1 c -0.04,0.44 -0.07,0.87 -0.07,1.32 0,36.99 29.97,67.09 66.9,67.34 43.2,-0.51 78.2,-35.76 78.2,-79.07 0,-11.46 -5.74,-29.43 -11.05,-40.889 z m -327.96,0 c -17.09,18.489 -21.59,33.009 -21.59,46.199 0,30.14 24.52,54.67 54.66,54.67 6.72,0 13.39,-1.27 19.8,-3.77 l 17.2,-6.69 -0.85,20.06 c -0.03,0.45 -0.07,0.88 -0.07,1.32 0,37.14 30.22,67.36 67.37,67.36 33.15,0 61,-23.94 66.35,-56.25 -17.24,-14.34 -29.19,-34.83 -32.3,-58.11 -4.21,0.7 -8.47,1.05 -12.75,1.05 -39.02,0 -71.42,-28.55 -77.63,-65.839 z m 354.7,0 h -0.58 c 5.15,13.039 9.02,28.349 9.02,40.889 0,56.46 -45.58,102.43 -101.87,103.18 v 0.05 c -0.16,0 -0.32,-0.02 -0.48,-0.02 -0.31,0 -0.6,0.04 -0.91,0.04 -12.16,0 -24.24,-2.17 -35.62,-6.36 -11.25,38.28 -46.51,65.5 -87.74,65.5 -46.34,0 -84.73,-34.61 -90.7,-79.33 -4.21,0.7 -8.47,1.05 -12.75,1.05 -43.45,0 -78.8,-35.35 -78.8,-78.8 0,-16.69 5.34,-32.9 15.15,-46.339 h 385.28 v 0.14"
         style="fill:#a8a8a8;fill-opacity:1;fillRule:nonzero;stroke:none"
         id="path158" /><path
         d="m 3314.45,1567.71 c 15.64,-22.02 10.46,-52.56 -11.61,-68.2 -22.04,-15.65 -52.61,-10.43 -68.23,11.64 -15.63,22.02 -10.45,52.59 11.62,68.2 22.04,15.64 52.61,10.43 68.22,-11.64 z m -80.08,25.61 c -27.92,-19.8 -34.52,-58.46 -14.74,-86.38 19.78,-27.88 58.47,-34.47 86.36,-14.7 27.92,19.8 34.52,58.46 14.69,86.35 -19.76,27.94 -58.42,34.49 -86.31,14.73"
         style="fill:#a8a8a8;fill-opacity:1;fillRule:nonzero;stroke:none"
         id="path160" /><path
         d="m 1734.53,3320 c 23.41,-33 15.62,-78.76 -17.42,-102.13 -32.96,-23.4 -78.69,-15.65 -102.09,17.38 -23.43,33.01 -15.62,78.77 17.41,102.13 32.97,23.41 78.73,15.66 102.1,-17.38 z m -108.39,39.82 c -41.73,-29.62 -51.6,-87.52 -22,-129.28 29.63,-41.79 87.5,-51.67 129.25,-21.98 41.83,29.57 51.63,87.44 22.06,129.19 -29.65,41.8 -87.52,51.68 -129.31,22.07"
         style="fill:#a8a8a8;fill-opacity:1;fillRule:nonzero;stroke:none"
         id="path162" /><path
         d="m 1233.74,2068.35 c 23.41,-33 15.62,-78.76 -17.41,-102.13 -32.97,-23.41 -78.69,-15.66 -102.1,17.38 -23.42,33 -15.61,78.76 17.42,102.13 32.96,23.41 78.73,15.65 102.09,-17.38 z m -108.39,39.81 c -41.73,-29.61 -51.59,-87.52 -22,-129.27 29.63,-41.8 87.5,-51.67 129.26,-21.99 41.82,29.58 51.63,87.45 22.05,129.2 -29.65,41.79 -87.52,51.68 -129.31,22.06"
         style="fill:#a8a8a8;fill-opacity:1;fillRule:nonzero;stroke:none"
         id="path164" /><path
         d="m 1328.96,2758.94 c -6.75,-39.86 -44.59,-66.74 -84.48,-59.91 -39.89,6.79 -66.73,44.65 -59.9,84.54 6.76,39.86 44.57,66.71 84.48,59.9 39.9,-6.77 66.74,-44.65 59.9,-84.53 z m -162.48,19.7 c -8.66,-50.48 25.33,-98.34 75.76,-106.95 50.52,-8.59 98.43,25.35 107.04,75.84 8.57,50.45 -25.4,98.37 -75.86,106.97 -50.5,8.59 -98.4,-25.34 -106.94,-75.86"
         style="fill:#a8a8a8;fill-opacity:1;fillRule:nonzero;stroke:none"
         id="path166" /><path
         d="m 3457.32,2153.42 c -6.76,-39.86 -44.6,-66.74 -84.48,-59.9 -39.89,6.78 -66.74,44.64 -59.9,84.53 6.75,39.86 44.57,66.71 84.48,59.9 39.9,-6.77 66.73,-44.65 59.9,-84.53 z m -162.48,19.7 c -8.67,-50.48 25.32,-98.34 75.76,-106.95 50.51,-8.59 98.42,25.35 107.03,75.84 8.57,50.45 -25.4,98.37 -75.85,106.97 -50.51,8.6 -98.41,-25.34 -106.94,-75.86"
         style="fill:#3b4a8f;fill-opacity:1;fillRule:nonzero;stroke:none"
         id="path168" /><path
         d="m 3372.05,2628.55 c -6.75,-39.86 -44.59,-66.74 -84.48,-59.9 -39.89,6.78 -66.73,44.64 -59.9,84.53 6.76,39.86 44.57,66.71 84.48,59.9 39.9,-6.77 66.74,-44.65 59.9,-84.53 z m -162.48,19.7 c -8.66,-50.48 25.33,-98.34 75.76,-106.95 50.52,-8.59 98.43,25.35 107.04,75.84 8.57,50.45 -25.4,98.37 -75.86,106.97 -50.5,8.6 -98.4,-25.34 -106.94,-75.86"
         style="fill:#a8a8a8;fill-opacity:1;fillRule:nonzero;stroke:none"
         id="path170" /><path
         d="m 1800.81,1007.55 c -6.76,-39.859 -44.6,-66.741 -84.49,-59.902 -39.89,6.782 -66.73,44.641 -59.9,84.532 6.76,39.86 44.57,66.71 84.48,59.9 39.9,-6.77 66.74,-44.65 59.91,-84.53 z m -162.49,19.7 c -8.66,-50.48 25.33,-98.34 75.77,-106.949 50.51,-8.59 98.42,25.347 107.03,75.84 8.57,50.449 -25.4,98.369 -75.85,106.969 -50.51,8.6 -98.41,-25.34 -106.95,-75.86"
         style="fill:#a8a8a8;fill-opacity:1;fillRule:nonzero;stroke:none"
         id="path172" /><path
         d="m 2620.2,3433.12 c -6.76,-39.86 -44.6,-66.73 -84.49,-59.9 -39.89,6.79 -66.73,44.65 -59.9,84.53 6.76,39.86 44.57,66.72 84.49,59.91 39.89,-6.78 66.73,-44.66 59.9,-84.54 z m -162.49,19.71 c -8.66,-50.49 25.33,-98.34 75.77,-106.95 50.51,-8.59 98.42,25.34 107.03,75.83 8.57,50.46 -25.4,98.38 -75.85,106.97 -50.51,8.6 -98.41,-25.33 -106.95,-75.85"
         style="fill:#a8a8a8;fill-opacity:1;fillRule:nonzero;stroke:none"
         id="path174" /><path
         d="m 3256.59,3226.47 c -6.75,-39.86 -44.59,-66.74 -84.48,-59.9 -39.88,6.78 -66.73,44.64 -59.9,84.53 6.76,39.86 44.57,66.71 84.48,59.9 39.9,-6.77 66.74,-44.65 59.9,-84.53 z m -162.48,19.7 c -8.66,-50.48 25.33,-98.34 75.77,-106.95 50.51,-8.59 98.42,25.35 107.03,75.84 8.57,50.45 -25.4,98.37 -75.85,106.97 -50.51,8.6 -98.41,-25.34 -106.95,-75.86"
         style="fill:#a8a8a8;fill-opacity:1;fillRule:nonzero;stroke:none"
         id="path176" /><path
         d="m 2723.04,1161.56 c -6.76,-39.86 -44.6,-66.74 -84.48,-59.9 -39.89,6.78 -66.74,44.64 -59.9,84.53 6.76,39.86 44.57,66.71 84.48,59.9 39.9,-6.77 66.74,-44.65 59.9,-84.53 z m -162.48,19.7 c -8.66,-50.48 25.32,-98.34 75.76,-106.95 50.52,-8.59 98.42,25.35 107.04,75.84 8.57,50.45 -25.41,98.37 -75.86,106.97 -50.5,8.6 -98.41,-25.34 -106.94,-75.86"
         style="fill:#a8a8a8;fill-opacity:1;fillRule:nonzero;stroke:none"
         id="path178" /><path
         d="m 1375.82,3638.21 4.5,5.85 c 6.21,8.17 4.67,19.79 -3.48,26.03 l -54.56,41.61 c -8.16,6.27 -19.78,4.67 -25.99,-3.45 l -4.5,-5.92 84.03,-64.12"
         style="fill:#3b4a8f;fill-opacity:1;fillRule:nonzero;stroke:none"
         id="path180" /><path
         d="m 1649.97,3621.53 c -28.64,51.58 -86.18,73.35 -116.06,81.47 0.29,-0.47 0.67,-0.95 0.77,-1.47 1.25,-4.82 -2.23,-17.89 -6.01,-21.83 26.47,-7.46 76.61,-26.72 100.5,-69.68 33.59,-60.47 -18.82,-129.17 -19.35,-129.83 l 18.88,-14.43 c 2.58,3.28 62.58,81.41 21.27,155.77"
         style="fill:#3b4a8f;fill-opacity:1;fillRule:nonzero;stroke:none"
         id="path182" /><path
         d="M 1379.56,3622.15 1238.87,3730 c 0,0 55.59,72.94 222.17,-54.18 0,0 -62.56,-46.7 -81.48,-53.67 z m 148.02,85.97 c -2.31,4.2 -8.49,6.83 -13.24,8.29 -0.84,1.44 -1.82,2.74 -3.01,3.84 -96.51,85.17 -190.55,122.37 -271.97,134.65 -28.32,4.28 -55.07,5.5 -79.92,4.73 -55.77,-1.81 -101.71,-13.89 -132.91,-25.4 -18.06,-6.65 -32.007,-13.48 -41.534,-18.78 -1.918,-1.06 -3.613,-2.06 -5.172,-2.9 -12.969,-7.6 -2.179,-20.99 -2.179,-20.99 l 328.145,-250.44 c 20.66,1.15 29.2,-0.66 40.6,-5.83 9.98,-4.53 21.06,-13.31 31.72,-15.91 21.2,-5.18 33.63,7.78 39.4,16.48 25.21,38.1 76.49,136.05 76.49,136.05 0.04,0 0.14,0.1 0.23,0.1 5.3,1.77 9.58,4.67 13.02,8.19 5.16,-1.59 10.38,-0.9 13.84,1.68 0.25,0.21 0.47,0.54 0.72,0.78 4.1,4.25 7.92,18.56 6.58,23.81 -0.19,0.61 -0.52,1.12 -0.81,1.65"
         style="fill:#a8a8a8;fill-opacity:1;fillRule:nonzero;stroke:none"
         id="path184" /><path
         d="m 1298.21,3520.26 c -0.72,0.55 -2.53,1.93 -5.29,4.03 l 3.77,4.93 -328.163,250.41 -3.734,-4.91 c -4.34,3.32 -7.707,5.92 -9.832,7.51 -9.086,6.93 -20.668,-6.41 -11.043,-13.71 83.932,-64.06 297.992,-227.45 339.122,-258.82 16.39,-12.54 27.17,1.39 15.17,10.56"
         style="fill:#3b4a8f;fill-opacity:1;fillRule:nonzero;stroke:none"
         id="path186" /><path
         d="m 1241.27,3865.04 -38,29.04 c -8.15,6.18 -19.81,4.64 -26.03,-3.55 l -15.9,-20.81 c 24.87,0.8 51.6,-0.41 79.93,-4.68"
         style="fill:#3b4a8f;fill-opacity:1;fillRule:nonzero;stroke:none"
         id="path188" /><path
         d="m 1241.97,3461.73 c -25.61,-37.08 -69.39,-45.03 -106.46,-19.42 -8.65,5.96 -15.84,13.52 -21.33,22.34 -1.88,3.06 -4.98,5.16 -8.52,5.88 -3.48,0.67 -7.15,-0.17 -10.05,-2.23 -30.97,-22.42 -72.87,-22.89 -104.247,-1.17 -31.351,21.68 -45.687,61.05 -35.675,97.91 0.933,3.46 0.41,7.19 -1.465,10.2 -1.914,3.05 -4.957,5.21 -8.465,5.92 -10.266,2.04 -19.844,6.09 -28.465,12.06 -16.824,11.62 -28.102,29.07 -31.762,49.23 -3.664,20.09 0.727,40.44 12.367,57.24 3.172,4.64 7.086,9.08 11.633,13.2 5.297,4.79 5.688,12.94 0.895,18.24 -4.832,5.3 -12.988,5.71 -18.285,0.92 -5.981,-5.46 -11.223,-11.38 -15.528,-17.67 -15.582,-22.47 -21.457,-49.65 -16.527,-76.59 4.894,-26.9 19.969,-50.3 42.5,-65.89 7.914,-5.41 16.453,-9.73 25.422,-12.75 -6.738,-43.56 11.855,-87.86 48.637,-113.33 36.825,-25.43 84.825,-27.17 123.205,-5.5 5.99,-7.33 13,-13.77 20.94,-19.3 18.99,-13.11 39.68,-19.5 59.83,-19.5 31.66,0 62.02,15.68 82.63,45.49 4.08,5.9 2.59,13.92 -3.29,18.01 -5.84,4.06 -13.92,2.56 -17.99,-3.29"
         style="fill:#a8a8a8;fill-opacity:1;fillRule:nonzero;stroke:none"
         id="path190" /><path
         d="m 1007.98,3665.16 c 3.51,3.15 3.79,8.62 0.57,12.18 -3.18,3.51 -8.64,3.79 -12.163,0.59 -3.231,-2.96 -6.106,-6.18 -8.496,-9.68 -8.477,-12.27 -11.688,-27.12 -9.012,-41.78 2.695,-14.7 10.93,-27.48 23.221,-35.99 3.92,-2.7 8.1,-4.85 12.48,-6.45 -3.03,-23.24 7.06,-46.64 26.68,-60.23 19.59,-13.56 45.05,-14.75 65.74,-3.72 3.04,-3.54 6.57,-6.68 10.46,-9.4 10.4,-7.16 21.67,-10.64 32.67,-10.64 17.28,0.02 33.86,8.55 45.12,24.84 2.72,3.95 1.74,9.32 -2.16,12 -3.94,2.72 -9.3,1.75 -12.03,-2.18 -15.18,-21.97 -37.97,-20.77 -53.77,-9.85 -4.37,3.04 -8.03,6.87 -10.81,11.35 -1.25,2.04 -3.33,3.43 -5.67,3.91 -2.35,0.44 -4.76,-0.12 -6.7,-1.51 -15.74,-11.42 -37.08,-11.65 -53.05,-0.62 -15.97,11.1 -23.26,31.09 -18.14,49.86 0.62,2.34 0.26,4.77 -1,6.83 -1.27,1.99 -3.3,3.44 -5.63,3.91 -5.17,1.03 -10.03,3.07 -14.39,6.08 -8.49,5.87 -14.209,14.7 -16.048,24.85 -1.836,10.21 0.375,20.47 6.218,28.96 1.64,2.36 3.62,4.61 5.91,6.69"
         style="fill:#3b4a8f;fill-opacity:1;fillRule:nonzero;stroke:none"
         id="path192" /><path
         d="m 3115.38,4065.28 c -7,0 -12.67,5.67 -12.67,12.67 0,6.98 5.67,12.66 12.67,12.66 6.99,0 12.67,-5.68 12.67,-12.66 0,-7 -5.68,-12.67 -12.67,-12.67 z m -65.21,0 c -7.01,0 -12.68,5.67 -12.68,12.67 0,6.98 5.67,12.66 12.68,12.66 6.98,0 12.66,-5.68 12.66,-12.66 0,-7 -5.68,-12.67 -12.66,-12.67 z m -65.23,0 c -7,0 -12.67,5.67 -12.67,12.67 0,6.98 5.67,12.66 12.67,12.66 6.99,0 12.67,-5.68 12.67,-12.66 0,-7 -5.68,-12.67 -12.67,-12.67 z m -65.22,0 c -7,0 -12.67,5.67 -12.67,12.67 0,6.98 5.67,12.66 12.67,12.66 6.99,0 12.66,-5.68 12.66,-12.66 0,-7 -5.67,-12.67 -12.66,-12.67 z m -69.44,-7.98 h -109.8 v 41.29 h 109.8 z m 340.14,57.81 c -0.71,1.68 -1.74,3.2 -3.02,4.47 -2.55,2.55 -6.07,4.13 -9.95,4.13 h -446.91 c -3.89,0 -7.41,-1.58 -9.96,-4.13 -1.27,-1.27 -2.3,-2.79 -3.02,-4.47 -0.71,-1.69 -1.1,-3.54 -1.1,-5.48 v -72.02 h 475.07 v 72.02 c 0,1.94 -0.39,3.79 -1.11,5.48"
         style="fill:#a8a8a8;fill-opacity:1;fillRule:nonzero;stroke:none"
         id="path194" /><path
         d="m 2956.3,3953.82 c 90.93,0 164.9,-73.98 164.9,-164.9 0,-90.94 -73.97,-164.92 -164.9,-164.92 -90.93,0 -164.91,73.98 -164.91,164.92 0,90.92 73.98,164.9 164.91,164.9 z m -240.89,-386.98 c 0,-7.77 6.3,-14.07 14.08,-14.07 h 446.91 c 7.77,0 14.08,6.3 14.08,14.07 v 450.76 h -475.07 v -450.76"
         style="fill:#a8a8a8;fill-opacity:1;fillRule:nonzero;stroke:none"
         id="path196" /><path
         d="m 2892.9,3717.97 c 22.12,0 34.57,5.83 45.8,12.39 14.45,8.44 26.89,18.07 55.32,18.07 35.39,0 46.04,-14.89 66.56,-23.86 -2.82,-4.36 -5.91,-8.53 -9.23,-12.5 -23.27,-27.78 -58.2,-45.44 -97.28,-45.44 -48.16,0 -90.04,26.88 -111.53,66.43 12.58,-7.56 25.23,-15.09 50.36,-15.09 z m -65.66,73.23 c 6.01,-2.82 11.23,-6.12 16.6,-9.32 11.82,-7.06 24.4,-13.65 47.91,-13.65 28.45,0 40.9,9.65 55.34,18.08 11.23,6.57 23.67,12.4 45.79,12.4 44.83,0 49.94,-23.94 85.77,-29.36 -1.57,-8.13 -3.91,-15.97 -6.95,-23.46 -0.85,-2.11 -1.88,-4.11 -2.85,-6.16 l -1.38,0.61 c -4.83,2.1 -9.26,4.77 -13.96,7.6 -13.79,8.29 -29.41,17.7 -59.49,17.7 -30.05,0 -45.66,-9.41 -59.43,-17.7 -11.84,-7.13 -21.19,-12.76 -41.69,-12.76 -20.5,0 -29.76,5.57 -41.49,12.62 l -19.5,11.73 c -2.81,10.11 -4.47,20.7 -4.67,31.67 z m 129.06,-141.4 c 9.35,0 18.47,0.96 27.3,2.72 0.74,0.15 1.47,0.32 2.21,0.49 2.9,0.62 5.74,1.4 8.57,2.2 3,0.87 5.95,1.83 8.88,2.89 1.36,0.49 2.73,0.96 4.08,1.49 2.3,0.92 4.57,1.9 6.81,2.93 0.95,0.43 1.87,0.9 2.81,1.35 3.46,1.68 6.84,3.51 10.16,5.47 1.57,0.93 3.15,1.85 4.69,2.84 1.4,0.9 2.77,1.84 4.14,2.78 20.83,14.59 37.47,34.71 47.78,58.27 6.87,15.7 10.83,32.93 11.43,51.02 0.05,1.56 0.24,3.09 0.24,4.67 0,76.82 -62.27,139.09 -139.1,139.09 -68.32,0 -125.01,-49.28 -136.76,-114.21 -1.46,-8.09 -2.35,-16.37 -2.35,-24.88 0,-7.39 0.75,-14.58 1.86,-21.65 10.42,-66.52 67.81,-117.47 137.25,-117.47"
         style="fill:#3b4a8f;fill-opacity:1;fillRule:nonzero;stroke:none"
         id="path198" /><path
         d="m 2261.85,3955.95 -37.33,-84.75 h -49.88 v 84.75 h 87.21"
         style="fill:#3b4a8f;fill-opacity:1;fillRule:nonzero;stroke:none"
         id="path200" /><path
         d="m 2418.48,3672.86 c -34.31,0 -62.11,27.81 -62.11,62.12 0,34.3 27.8,62.11 62.11,62.11 34.3,0 62.11,-27.81 62.11,-62.11 0,-34.31 -27.81,-62.12 -62.11,-62.12 z m 0,165.38 c -57.04,0 -103.27,-46.23 -103.27,-103.26 0,-57.03 46.23,-103.27 103.27,-103.27 57.03,0 103.26,46.24 103.26,103.27 0,57.03 -46.23,103.26 -103.26,103.26"
         style="fill:#3b4a8f;fill-opacity:1;fillRule:nonzero;stroke:none"
         id="path202" /><path
         d="m 2314.5,3794.92 c 0.27,125.39 41.23,195.82 76.35,218.04 6.93,4.38 13.58,6.7 19.22,6.7 2.65,0 5.25,-0.23 7.74,-0.69 11.35,-2.07 30.41,-11.11 30.41,-48.29 v -119.43 c 12.2,-3.12 23.64,-8.08 34.02,-14.62 v 251.33 c 0,36.78 -15.49,67.28 -58.56,73.05 -4.82,0.65 -9.96,1 -15.49,1 -9.54,0 -22.2,-3.15 -36.64,-9.85 -69.66,-32.29 -180.58,-146.99 -180.58,-387.57 0,-40.89 33.16,-74.05 74.05,-74.05 h 41.92 c -5.51,13.76 -8.62,28.73 -8.62,44.44 0,21.84 5.95,42.27 16.18,59.94"
         style="fill:#3b4a8f;fill-opacity:1;fillRule:nonzero;stroke:none"
         id="path204" /><path
         d="m 2414.77,4002.36 c -1.47,0.27 -3.03,0.41 -4.7,0.41 -0.88,0 -4.2,-0.29 -10.19,-4.09 -23.76,-15.03 -62.86,-69.51 -67.94,-180.56 21.88,22.76 52.55,37.01 86.54,37.01 4.34,0 8.62,-0.26 12.85,-0.71 v 116.26 c 0,19.01 -5.57,29.67 -16.56,31.68"
         style="fill:#a8a8a8;fill-opacity:1;fillRule:nonzero;stroke:none"
         id="path206" /><path
         d="m 1957.62,3631.71 h -42.23 v 547.47 c 0,52.44 42.66,95.11 95.1,95.11 52.44,0 95.1,-42.67 95.1,-95.11 V 3984.5 h -42.23 v 194.68 c 0,29.15 -23.72,52.87 -52.87,52.87 -29.15,0 -52.87,-23.72 -52.87,-52.87 v -547.47"
         style="fill:#a8a8a8;fill-opacity:1;fillRule:nonzero;stroke:none"
         id="path208" /><path
         d="m 2158.46,3891.27 c -52.44,0 -95.1,42.66 -95.1,95.11 h 42.23 c 0,-29.15 23.72,-52.87 52.87,-52.87 v -42.24"
         style="fill:#a8a8a8;fill-opacity:1;fillRule:nonzero;stroke:none"
         id="path210" /><path
         d="m 2022.28,3709.25 h -171.54 c -42.82,0 -77.53,-34.71 -77.53,-77.54 h 326.6 c 0,42.83 -34.71,77.54 -77.53,77.54"
         style="fill:#3b4a8f;fill-opacity:1;fillRule:nonzero;stroke:none"
         id="path212" /><path
         d="m 1982.5,3697.92 h -91.98 v 55.22 h 91.98 v -55.22"
         style="fill:#3b4a8f;fill-opacity:1;fillRule:nonzero;stroke:none"
         id="path214" /><path
         d="m 1983.88,1810.27 h 245.58 v -177.96 h -245.58 z m 0,248.08 h 245.58 v -196.91 h -245.58 z m 532.24,-196.91 h -235.48 v 196.91 h 235.48 z m 0,-229.13 h -235.48 v 177.96 h 235.48 z m -914.88,-260.08 h 1297.52 v 927.25 H 1601.24 v -927.25"
         style="fill:#3b4a8f;fill-opacity:1;fillRule:nonzero;stroke:none"
         id="path216" /><path
         d="m 2828.18,2993.01 h 48.6 v 134.76 h -391.13 v -134.76 h 48.71 V 2911 l 293.82,-237.22 v 319.23"
         style="fill:#3b4a8f;fill-opacity:1;fillRule:nonzero;stroke:none"
         id="path218" /><path
         d="M 2812.29,2616.06 2518.48,2853.28 2250,3070.05 1371.3,2360.59 h 229.94 1297.52 229.94 l -316.41,255.47"
         style="fill:#3b4a8f;fill-opacity:1;fillRule:nonzero;stroke:none"
         id="path220" /></g></g></svg>
